<?xml version="1.0" encoding="utf-8"?>
<!-- Generator: Adobe Illustrator 27.8.1, SVG Export Plug-In . SVG Version: 6.00 Build 0)  -->
<svg version="1.1" id="Layer_1" xmlns:serif="http://www.serif.com/"
	 xmlns="http://www.w3.org/2000/svg" xmlns:xlink="http://www.w3.org/1999/xlink" x="0px" y="0px" viewBox="0 0 1920 257.9"
	 style="enable-background:new 0 0 1920 257.9;" xml:space="preserve">
<style type="text/css">
	.st0{fill:#141923;}
	.st1{fill:#11161E;}
	.st2{fill:#151B26;}
	.st3{fill:#161E2C;}
	.st4{fill:#181F2B;}
	.st5{fill:#1B2644;}
	.st6{fill:#233151;}
	.st7{fill:#1C3057;}
	.st8{fill:#253962;}
	.st9{fill:#F47DD7;}
	.st10{fill:#BE34A3;}
	.st11{fill:#24539D;}
	.st12{fill:#182C53;}
	.st13{fill:#F266C9;}
	.st14{fill:#2555A0;}
	.st15{fill:#D0F5F7;}
	.st16{fill:#DDF8FA;}
	.st17{fill:#1E335D;}
	.st18{fill:#182B52;}
	.st19{fill:#9EE9FE;}
	.st20{fill:#B5EFFF;}
	.st21{fill:#C5F2F5;}
	.st22{fill:#E88BD2;}
	.st23{fill:#F582D9;}
	.st24{fill:#EF42B5;}
	.st25{fill:#F054BB;}
	.st26{fill:#2C467A;}
	.st27{fill:#172341;}
	.st28{fill:#1F345E;}
	.st29{fill:#A02492;}
	.st30{fill:#2F60AD;}
	.st31{fill:#2759A8;}
	.st32{fill:#EDB0E9;}
	.st33{fill:#191E2A;}
</style>
<g>
	<g>
		<path class="st0" d="M471.2,257.9h991.4v-10.7c0,0-50.7-1.8-79.7-72.8c-29-71-30-94.2-43.1-76.5c-13.1,17.7-307.2,35.6-373.9,35.6
			c-66.8-0.1-358.8-18-371.9-35.6c-13.2-17.7-14.1,5.5-43.1,76.5c-29,71-79.7,72.8-79.7,72.8L471.2,257.9L471.2,257.9z"/>
		<path class="st1" d="M614.2,257.9h698l38.2-48.4c6.6-8.4,6.2-20.4-1.1-28.3l-65.2-70.2c-91.7,12.4-268.3,22.4-318.2,22.5
			c-51.4,0-236.1-10.7-324.5-23.6c-17.1,25-34,50.2-51.1,75.2c-5.5,8-6,18.5-1.3,27C597.4,227.3,605.9,242.5,614.2,257.9
			L614.2,257.9z"/>
		<path class="st2" d="M1660.9,255.6c-114.8-1.4-229.6-2.9-344.4-4.4c-74.4-1-148.9-2-223.3-3l-8.1-30.6
			c178.7-3.2,356.5-13,530.7-29.4C1631,210.5,1646,233,1660.9,255.6L1660.9,255.6z M803.2,244.6c-83.7-0.9-167.4-1.7-251.1-2.4
			c-94-0.8-188.1-1.3-282.1-1.6c12.4-17.1,25-34.1,37.7-51c165.7,15.1,333.9,24.2,502.6,27.6L803.2,244.6z"/>
		<path class="st3" d="M1343,161.1c-0.7,0-1.4-0.3-2-0.9c-5.4-5.3-10.7-10.7-15.7-16.3c0.3-2.5,0.6-5.2,0.9-7.9
			c6.1,6.9,12.4,13.5,19,19.9C1347.4,158.2,1345.3,161.1,1343,161.1L1343,161.1z"/>
		<path class="st3" d="M583.8,178.4c-2.1,0-4.1-2.1-2.7-4.4c6.3-9.8,12.9-19.4,19.9-28.7c0.7-0.9,1.6-1.3,2.5-1.3
			c2.2,0,4.2,2.1,2.6,4.3c-6.9,9.4-13.6,18.9-19.9,28.7C585.7,178,584.8,178.4,583.8,178.4L583.8,178.4z"/>
		<path class="st3" d="M610.1,140c-1.8-0.5-3.1-2.3-1.8-4.2c0.3-0.4,0.6-0.8,0.8-1.2C609.5,136.3,609.8,138.1,610.1,140z"/>
		<path class="st4" d="M629.8,0c0,0-47.3,85.9-7.2,181.5c0,0,162.7,25.9,341.7,25.9c179.1,0,353.7-25.9,353.7-25.9
			S1350.3,71.6,1296.8,0L629.8,0L629.8,0z"/>
		<path class="st5" d="M638.2,8.2c0,0-45.9,71.4-7,164.2c0,0,157.8,25.1,331.5,25.1c173.7,0,343.2-25.1,343.2-25.1
			s31.3-94.7-20.7-164.2C1285.2,8.2,638.2,8.2,638.2,8.2z"/>
		<path class="st6" d="M694.2,8.2h-56c0,0-18.7,29.2-22.1,74.5C642.1,57.8,668,32.8,694.2,8.2L694.2,8.2z"/>
		<path class="st6" d="M622.5,147.4c2.2,8.1,5.1,16.4,8.6,24.9c0,0,4.6,0.7,13.2,2C696.7,118.5,750.5,63.9,803,8.2h-44.8
			C712.1,53.8,667.3,100.6,622.5,147.4z"/>
		<path class="st6" d="M1309.1,58.3c-2.2-8.3-5.1-16.6-8.8-24.7c-38.9,51.1-78.4,101.7-117.2,152.8c13.2-1.2,25.7-2.5,37.2-3.7
			C1249.7,141.1,1279.7,99.9,1309.1,58.3z"/>
		<path class="st6" d="M1036.3,8.2h-39.1C944.6,69,893.4,131,843.2,193.8c10.9,0.6,22.1,1.2,33.5,1.7
			C928,131.5,981.5,69.3,1036.3,8.2L1036.3,8.2z"/>
		<path class="st6" d="M1135,8.2h-34.7c-14.1,17-28,34.1-41.7,51.3c-36.1,45.3-69.9,92.4-105.8,137.9c4.1,0,8.2,0,12.3,0
			c7.1,0,14.1,0,21.3-0.1C1034.8,133.6,1084.7,70.4,1135,8.2z"/>
		<path class="st7" d="M964.6,182.3c-22.5-0.1-42.8-9.4-57.3-24.5c1.9-2.4,3.9-4.7,5.8-7.1c12.9,13.8,31.2,22.5,51.6,22.5h0.1
			c0,0,0,0,0.1,0h0.3c0,0,0,0,0,0h0.1c0,0,0.1,0,0.1,0h0.2c0,0,0,0,0.1,0h0c0,0,0,0,0.1,0h0c0,0,0,0,0.1,0h0.1c0,0,0.1,0,0.1,0
			c0,0,0,0,0,0c0,0,0,0,0.1,0h0c0,0,0,0,0.1,0h0c0,0,0,0,0.1,0h0c0,0,0,0,0.1,0c0,0,0,0,0,0c0.1,0,0.2,0,0.4,0h0c0,0,0.1,0,0.1,0
			c0,0,0,0,0,0c0,0,0.1,0,0.1,0h0c1.6-0.1,3.1-0.2,4.7-0.3C969.5,176,967,179.2,964.6,182.3L964.6,182.3z M1007.1,170.2
			c11.1-14.5,22.4-29,33.6-43.4C1035,144.9,1022.9,160.2,1007.1,170.2L1007.1,170.2z M891.5,134c-4.1-9.6-6.4-20.2-6.4-31.3
			c0-44,35.7-79.7,79.6-79.7c6.1,0,12.1,0.7,17.9,2c-2.3,2.6-4.5,5.3-6.8,8c-3.6-0.6-7.3-0.9-11.1-0.9c-38.3,0-69.4,30.5-70.5,68.4
			v0c0,0,0,0.1,0,0.1c0,0,0,0,0,0c0,0,0,0.1,0,0.1c0,0,0,0,0,0v0.1c0,0,0,0,0,0c0,0,0,0.1,0,0.1c0,0,0,0,0,0.1v0.1c0,0,0,0,0,0v0.1
			c0,0,0,0,0,0.1v0.1c0,0,0,0,0,0.1v0c0,0,0,0,0,0.1v0c0,0,0,0.1,0,0.1v0c0,0,0,0,0,0.1v0.1c0,0,0,0,0,0v0.1c0,0,0,0.1,0,0.1v0.3
			c0,0,0,0,0,0v0.2c0,8.1,1.4,16,3.9,23.2C896,128.6,893.8,131.3,891.5,134L891.5,134z M1034.3,90.6c-3.3-19.3-14.5-35.9-30-46.4
			c2-2.3,4-4.6,6.1-6.9c15,10.4,26.2,25.9,31.2,43.9C1039.1,84.3,1036.7,87.5,1034.3,90.6L1034.3,90.6z"/>
		<path class="st8" d="M907.3,157.8c-6.6-6.9-12-14.9-15.8-23.8c2.2-2.7,4.4-5.4,6.6-8.1c3.3,9.3,8.4,17.8,15,24.8
			C911.2,153.1,909.3,155.5,907.3,157.8L907.3,157.8z M1004.3,44.2c-8.4-5.7-18-9.6-28.4-11.2c2.3-2.7,4.5-5.3,6.8-8
			c10.1,2.3,19.5,6.5,27.7,12.3C1008.3,39.6,1006.3,41.9,1004.3,44.2L1004.3,44.2z"/>
		<path class="st8" d="M964.8,182.3h-0.2c2.4-3.1,4.9-6.3,7.3-9.5c35.6-3.6,63.5-33.6,63.5-70.2c0-4.1-0.4-8.2-1-12.1
			c2.4-3.1,4.8-6.2,7.2-9.4c1.9,6.8,2.9,14,2.9,21.4c0,8.4-1.3,16.5-3.7,24.1c-11.3,14.4-22.5,28.9-33.6,43.4
			C994.9,177.9,980.3,182.3,964.8,182.3z"/>
		<path class="st9" d="M964.9,173.2L964.9,173.2L964.9,173.2z M965,173.2L965,173.2L965,173.2z M965.1,173.2L965.1,173.2
			L965.1,173.2z M965.2,173.2L965.2,173.2L965.2,173.2z M965.3,173.2C965.4,173.2,965.4,173.2,965.3,173.2
			C965.4,173.2,965.4,173.2,965.3,173.2z M965.5,173.2L965.5,173.2L965.5,173.2z M965.6,173.2L965.6,173.2L965.6,173.2z
			 M965.7,173.2L965.7,173.2L965.7,173.2z M965.8,173.2L965.8,173.2L965.8,173.2z M965.9,173.2L965.9,173.2L965.9,173.2z M966,173.2
			L966,173.2L966,173.2z M966.1,173.2c0,0,0.1,0,0.1,0C966.2,173.2,966.1,173.2,966.1,173.2z M966.3,173.2
			C966.3,173.2,966.3,173.2,966.3,173.2C966.3,173.2,966.3,173.2,966.3,173.2z M966.4,173.2C966.4,173.2,966.4,173.2,966.4,173.2
			C966.4,173.2,966.4,173.2,966.4,173.2z M966.5,173.2C966.5,173.2,966.5,173.2,966.5,173.2C966.5,173.2,966.5,173.2,966.5,173.2z
			 M966.6,173.2C966.6,173.2,966.6,173.2,966.6,173.2C966.6,173.2,966.6,173.2,966.6,173.2z M966.7,173.2c0.1,0,0.2,0,0.4,0
			C966.9,173.2,966.8,173.2,966.7,173.2z M967,173.2C967.1,173.2,967.1,173.2,967,173.2C967.1,173.2,967.1,173.2,967,173.2z
			 M967.1,173.2C967.2,173.2,967.2,173.2,967.1,173.2C967.2,173.2,967.2,173.2,967.1,173.2z M967.2,173.2c1.6-0.1,3.1-0.2,4.7-0.3
			C970.3,173,968.8,173.1,967.2,173.2z M1006.5,124.2c-9.9,0-19.9-1.9-29.3-5.4c-9.8-3.7-17.9-8.9-24.4-15.3
			c17-19.9,34.1-39.7,51.4-59.3c15.6,10.5,26.7,27.1,30,46.4c-8.6,11.2-17.1,22.4-25.5,33.6C1008,124.2,1007.3,124.2,1006.5,124.2
			L1006.5,124.2z M894.3,100.6c1.1-38,32.3-68.4,70.5-68.4c3.8,0,7.5,0.3,11.1,0.9c-13,15.2-25.9,30.4-38.7,45.7
			c-4.3-12.1-5.5-25.6-3.9-39.2C910.8,50.8,895.1,73.8,894.3,100.6z"/>
		<g transform="matrix(0.99982,0,0,0.997263,0,0)">
			
				<image style="overflow:visible;enable-background:new    ;" width="179" height="173" id="_Image1" xlink:href="BFCC8EF3.png"  transform="matrix(0.9998 0 0 0.9973 873.3427 21.6017)">
			</image>
		</g>
		<path class="st10" d="M995,142.5l-2.3,3c-1.7,2.2-3.4,4.4-5,6.7C990.1,148.9,992.5,145.7,995,142.5z M980,162.2
			c-1.3,1.7-2.5,3.3-3.8,5c1.7-2.2,3.3-4.3,5-6.5L980,162.2z M941.1,117.3c-1.4,1.7-2.9,3.4-4.3,5.1
			C938.3,120.7,939.7,119,941.1,117.3z M905.5,117l-2.2,2.7L905.5,117l1.1-1.3L905.5,117z M916.3,103.8c-1.4,1.8-2.9,3.5-4.3,5.3
			C913.5,107.3,914.9,105.6,916.3,103.8z M922.5,96.4c-1,1.2-2,2.4-2.9,3.6l0.5-0.6L922.5,96.4z M951.6,105c-0.8,1-1.7,2-2.5,2.9
			l1.2-1.5L951.6,105L951.6,105z M1004.2,130.3c1.5-2,3.1-4.1,4.6-6.1c8.4-0.3,16.7-1.9,24.6-5.1c-6.9,28.8-31.4,50.8-61.5,53.8
			c0.7-0.9,1.3-1.7,2-2.6c-0.7,0.9-1.3,1.7-2,2.6c-1.5,0.2-3.1,0.3-4.7,0.3l-0.1,0c0,0,0,0,0,0l-0.5,0c0,0,0,0,0,0l-0.2,0
			c0,0,0,0-0.1,0h0c0,0,0,0-0.1,0c0,0,0,0,0,0l-0.3,0c0,0,0,0-0.1,0l-0.5,0c0,0,0,0,0,0l-0.5,0c-20.4,0-38.7-8.6-51.6-22.5
			c7.3-8.9,14.7-17.7,22.1-26.5c-7.4,8.8-14.8,17.7-22.1,26.5c-6.6-7.1-11.7-15.5-15-24.8l-0.1-0.3c-2.5-7.2-3.8-14.9-3.8-22.9
			l0-0.8l0,0l0-0.7c0,0,0,0,0,0V101c0,0,0,0,0-0.1c0,0,0-0.1,0-0.1c0,0,0,0,0,0v-0.1c0,0,0,0,0,0l0-0.1c0,0,0,0,0,0l0-0.1
			c0.8-26.8,16.5-49.8,39-61c-1.6,13.6-0.4,27.1,3.9,39.2l0.2,0.4c3.3,9.1,8.4,17.4,15.5,24.4l0.3,0.3c6.4,6.2,14.4,11.3,24.1,15
			c9.4,3.5,19.4,5.4,29.3,5.4c0.8,0,1.5,0,2.3,0c-3.1,4.1-6.1,8.1-9.2,12.2L1004.2,130.3L1004.2,130.3z M927.4,90.5
			c1.7-2.1,3.4-4.1,5.2-6.2c-2.5,3-5.1,6.1-7.6,9.2L927.4,90.5z"/>
		<g transform="matrix(0.997552,0,0,0.997711,0,0)">
			
				<image style="overflow:visible;enable-background:new    ;" width="164" height="131" id="_Image2" xlink:href="BFCC8EF1.png"  transform="matrix(0.9976 0 0 0.9977 890.9923 13.8652)">
			</image>
		</g>
	</g>
	<path class="st9" d="M965.3,173.2L965.3,173.2C965.4,173.2,965.4,173.2,965.3,173.2z M965.6,173.2L965.6,173.2L965.6,173.2z
		 M965.7,173.2L965.7,173.2L965.7,173.2z M965.9,173.2L965.9,173.2L965.9,173.2z M966.1,173.2l0.1,0
		C966.2,173.2,966.1,173.2,966.1,173.2z M966.3,173.2L966.3,173.2C966.3,173.2,966.3,173.2,966.3,173.2z M966.4,173.2L966.4,173.2
		C966.4,173.2,966.4,173.2,966.4,173.2z M966.5,173.2L966.5,173.2L966.5,173.2z M966.6,173.2L966.6,173.2
		C966.6,173.2,966.6,173.2,966.6,173.2z M966.7,173.2l0.4,0C966.9,173.2,966.8,173.2,966.7,173.2z M967,173.2L967,173.2
		C967.1,173.2,967.1,173.2,967,173.2z M967.2,173.2L967.2,173.2L967.2,173.2C967.2,173.2,967.2,173.2,967.2,173.2L967.2,173.2z
		 M967.2,173.2c0.8,0,1.6-0.1,2.3-0.1c0.8-0.1,1.5-0.1,2.3-0.2C970.3,173,968.8,173.1,967.2,173.2L967.2,173.2z M894.4,97.7l0,0.7
		l0,0.3l0,0.8l0,0.4l0,0.7l0-0.4l0-0.3l0-0.3l0-0.2l0-0.2l0-0.6v0l0,0l0-0.2L894.4,97.7L894.4,97.7L894.4,97.7l0.1-0.9L894.4,97.7
		L894.4,97.7z M972.4,172.8l0.3,0l0.1,0l0.2,0l0,0l-0.1,0l-0.2,0l-0.2,0l-0.3,0L972.4,172.8L972.4,172.8z M973.3,172.7l-0.1,0
		L973.3,172.7l0.2,0l0.1,0l0.3,0l0.1,0l0.4-0.1l-0.2,0l-0.6,0.1L973.3,172.7L973.3,172.7z M974.4,172.6L974.4,172.6L974.4,172.6
		l0.3,0l0.2,0l0.1,0l-0.4,0.1L974.4,172.6L974.4,172.6L974.4,172.6z M975.1,172.5L975.1,172.5L975.1,172.5l0.1,0L975.1,172.5z
		 M975.3,172.4l0.2,0l0.2,0l0.2,0l0.2,0l0.2,0l-0.1,0l-0.2,0L975.3,172.4L975.3,172.4z M976.6,172.2l0.2,0l-0.3,0.1l-0.1,0l0.1,0
		L976.6,172.2z M977,172.2l0.2,0l0,0L977,172.2l-0.2,0L977,172.2L977,172.2z M977.4,172.1L977.4,172.1L977.4,172.1l0.2,0
		L977.4,172.1z M977.5,172.1l0.2,0l0.1,0l0.2,0l0.1,0L977.5,172.1z M978.4,171.9l-0.2,0L978.4,171.9L978.4,171.9L978.4,171.9z
		 M979.2,171.7L979.2,171.7l0.3-0.1l0.1,0l-0.2,0L979.2,171.7l-0.2,0l-0.2,0l-0.2,0l-0.2,0l0.3-0.1L979.2,171.7L979.2,171.7z
		 M979.5,171.7l0.3-0.1l0,0L979.5,171.7L979.5,171.7z M980.2,171.5L980.2,171.5l-0.4,0.1C980,171.6,980.1,171.5,980.2,171.5
		L980.2,171.5z M980.3,171.5L980.3,171.5L980.3,171.5L980.3,171.5z M980.6,171.4L980.6,171.4L980.6,171.4L980.6,171.4L980.6,171.4
		L980.6,171.4z M980.7,171.4L980.7,171.4L980.7,171.4z M980.9,171.4L980.9,171.4l-0.1,0L980.9,171.4L980.9,171.4L980.9,171.4z
		 M981.3,171.3L981.3,171.3l-0.2,0L981.3,171.3L981.3,171.3L981.3,171.3z M981.6,171.2l-0.1,0l-0.1,0L981.6,171.2L981.6,171.2
		L981.6,171.2z M982,171.1L982,171.1l-0.2,0l0.1,0L982,171.1L982,171.1z M982.3,171L982.3,171l-0.2,0L982.3,171L982.3,171z
		 M982.6,170.9L982.6,170.9l-0.1,0L982.6,170.9L982.6,170.9L982.6,170.9z M982.7,170.9L982.7,170.9L982.7,170.9z M983,170.8
		L983,170.8L983,170.8L983,170.8l-0.1,0l0,0L983,170.8L983,170.8z M983.3,170.8L983.3,170.8L983.3,170.8z M984.6,170.4L984.6,170.4
		L984.6,170.4z M984.9,170.3L984.9,170.3L984.9,170.3z M985.2,170.2L985.2,170.2L985.2,170.2z M1020.3,109l-0.1,0.1L1020.3,109
		l0.2-0.3l0,0L1020.3,109L1020.3,109z M1022.4,106.2l-0.3,0.4l0,0L1022.4,106.2l0.2-0.3l0,0L1022.4,106.2L1022.4,106.2z
		 M1024.4,103.5l-0.3,0.4l0,0L1024.4,103.5l0.1-0.1L1024.4,103.5L1024.4,103.5z M1026.5,100.8l-0.1,0.1L1026.5,100.8l0.3-0.4l0,0
		L1026.5,100.8z M958.5,96.9l-0.1,0.1l-2.2,2.5L958.5,96.9L958.5,96.9z M1028.6,98.1l-0.3,0.4L1028.6,98.1l0.3-0.4l0,0L1028.6,98.1z
		 M963.1,91.5l-1.1,1.2l-0.7,0.9l-0.3,0.3l0,0l-0.1,0.1l-1.5,1.7l-0.7,0.8l-0.1,0.1l0.7-0.9l1.6-1.9l1-1.2l1.4-1.6
		C963.4,91.2,963.1,91.5,963.1,91.5z M1030.6,95.4l-0.4,0.5L1030.6,95.4l0.2-0.2L1030.6,95.4z M994.1,55.8l-1.1,1.3l-1.3,1.5
		l-1.1,1.3l-1.3,1.5l-1.1,1.3l-1.3,1.5l-1.1,1.3l-1.3,1.5l-1.1,1.3l-1.3,1.5l-1.1,1.3l-1.3,1.5l-1.1,1.3l-1.3,1.5l-1.1,1.3l-1.3,1.5
		l-1.1,1.3l-1.3,1.5l-1.1,1.3l-1.3,1.5l-1.1,1.3L967,87l-1.1,1.3l-1.4,1.6l-1,1.2l0.2-0.3l0.8-1l1.2-1.3l0.1-0.1l0.2-0.2l0-0.1
		l0.4-0.5L967,87l0.8-1l0.4-0.5l0-0.1l0.1-0.1l0.2-0.2l0.8-1l1-1.2l0.1-0.1l0.2-0.3l0.1-0.1l0.5-0.5l0.6-0.7l0.7-0.8l0.5-0.6
		l0.1-0.2l0.3-0.4l0.8-0.9l0.9-1l0.1-0.1l0.3-0.4l0.1-0.2l0.5-0.6l0.5-0.6l0.6-0.7l0.5-0.6l0.2-0.3l0.4-0.4l0.2-0.2l0.5-0.6l0.8-0.9
		l0.1-0.1l0.5-0.5l0.2-0.2l0.5-0.5l0.5-0.6l0.5-0.5l0.5-0.6l0.3-0.4l0.4-0.5l0.4-0.4l0.4-0.4l0.7-0.8l0.1-0.1l0.6-0.7l0.3-0.4
		l0.4-0.4l0.4-0.5l0.4-0.4l0.5-0.6l0.4-0.5l0.4-0.5l0.5-0.5l0.2-0.3l0.6-0.7l0,0l0.7-0.8l0.5-0.5l0.3-0.3l0.4-0.5l0.2-0.3l0.5-0.6
		l0.5-0.6l0.5-0.5l0.5-0.6L994.1,55.8l0.5-0.5l1.6-1.8L994.1,55.8L994.1,55.8z M943,71.8l-0.2,0.2l0.5-0.7L943,71.8L943,71.8z
		 M945.9,68.3l-0.4,0.4l-0.7,0.8l-0.1,0.1l0.7-0.8l0.1-0.1L945.9,68.3l0.2-0.3L945.9,68.3L945.9,68.3z M948.8,65l-0.8,1l-0.4,0.5
		l-0.2,0.2l0.1-0.1l0.5-0.6l0.5-0.6l0.5-0.6L948.8,65L948.8,65z M950.7,62.7l-0.9,1.1l0-0.1l1-1.1l0.4-0.5l0,0L950.7,62.7z
		 M956.5,55.8l-2.4,2.9l-0.5,0.6l-0.4,0.5l-0.7,0.8L952,61l0,0l0.4-0.5l0-0.1l0.1-0.2l0.5-0.6l0.9-1.1l0.2-0.2
		C955,57.5,955.7,56.7,956.5,55.8L956.5,55.8z M1001,47.9c-0.5,0.6-1.1,1.2-1.6,1.8l-1.6,1.8c0.5-0.6,1.1-1.2,1.6-1.8L1001,47.9z
		 M961.4,49.9l2.3-2.7c-0.4,0.5-0.8,1-1.2,1.5L961.4,49.9z M969.5,40.5l-0.9,1l-0.9,1.1l0.9-1.1L969.5,40.5z M894.5,96.4L894.5,96.4
		l0-0.1l0-0.1l0-0.2l0-0.1l0,0l0-0.3l0,0l0-0.1l0-0.1l0-0.1l0-0.1c0-0.3,0.1-0.5,0.1-0.8l0,0l0,0c4.1-35.1,33.9-62.3,70.1-62.3
		c3.8,0,7.5,0.3,11.1,0.9l0.5,0.1c0.2,0,0.3,0.1,0.5,0.1h0l0.1,0l0.4,0.1l0,0l0.1,0l0.3,0.1l0,0l0.2,0l0.3,0.1l0,0l0,0l0.2,0
		l0.3,0.1l0,0l0,0l0.2,0l0.3,0.1l0,0l0,0l0.2,0l0.3,0.1l0,0l0,0l0.2,0l0.3,0.1l0,0l0,0l0.2,0l0.2,0.1l0,0l0,0l0.2,0l0.2,0.1l0,0l0,0
		l0.2,0l0.2,0.1l0,0l0,0l0.2,0l0.2,0.1l0.1,0l0,0l0.2,0l0.2,0.1l0.1,0l0,0l0.2,0l0.2,0.1l0.1,0l0,0l0.2,0l0.2,0.1l0.1,0l0,0l0.1,0
		l0.2,0.1l0.1,0l0.1,0l0.1,0l0.2,0.1l0.1,0l0.1,0l0.1,0l0.2,0.1l0.1,0l0.1,0l0.1,0l0.2,0.1l0.1,0l0.1,0l0.1,0l0.2,0.1l0.1,0l0.1,0
		l0.1,0l0.2,0.1l0.1,0l0.1,0l0.1,0l0.2,0.1l0.1,0l0.1,0l0.1,0l0.2,0.1l0.1,0l0.1,0l0.1,0l0.2,0.1l0.1,0l0.1,0l0.1,0L988,36l0.1,0
		l0.1,0l0.1,0l0.1,0.1l0.1,0l0.1,0l0.1,0l0.1,0.1l0.1,0l0.1,0l0.1,0l0.1,0l0.1,0l0.1,0l0.1,0l0.1,0l0.1,0l0.1,0l0.1,0l0.1,0l0.1,0
		l0.1,0l0.1,0l0.1,0l0.1,0l0.1,0l0.1,0l0.1,0l0.1,0l0.1,0l0.1,0l0.1,0l0.1,0.1l0.1,0l0.1,0l0.1,0l0.1,0.1l0.1,0l0.1,0l0.1,0l0.1,0.1
		l0.1,0l0.1,0l0.1,0l0.1,0.1l0.1,0l0.1,0l0.1,0l0.1,0.1l0.1,0.1l0.1,0l0.1,0l0.1,0.1l0.1,0.1l0.1,0l0.1,0l0.1,0.1l0.1,0.1l0.1,0
		l0.1,0l0.1,0.1l0.1,0.1l0.1,0l0.1,0l0.1,0.1l0.1,0.1l0.1,0l0.1,0l0.1,0.1l0.1,0.1l0.1,0l0.1,0l0.2,0.1l0.1,0.1l0.1,0l0.1,0l0.2,0.1
		l0.1,0.1l0.1,0l0.1,0l0.2,0.1l0.1,0.1l0.1,0l0.1,0l0.2,0.1l0.1,0.1l0.1,0l0.1,0l0.2,0.1l0.1,0.1l0.1,0l0.1,0l0.2,0.1l0.2,0.1l0,0
		l0.1,0l0.2,0.1l0.2,0.1l0,0l0,0l0.2,0.1L999,41l0,0l0,0l0.2,0.1l0.2,0.1l0,0l0,0l0.2,0.1l0.2,0.1l0,0l0,0l0.2,0.1l0.2,0.1l0,0l0,0
		l0.2,0.1l0.2,0.1l0,0l0,0l0.2,0.1l0.2,0.1l0,0l0,0l0.2,0.1l0.2,0.1l0,0l0,0l0.2,0.1l0.2,0.1l0,0l0,0l0.2,0.1l0.2,0.1l0,0l0,0
		l0.2,0.1l0.2,0.1l0,0l0,0l0.2,0.1l0.2,0.1l0,0l0.2,0.1l0.2,0.1l0,0l0.3,0.2l0.1,0.1l0,0c0.1,0.1,0.3,0.2,0.4,0.3l0.4,0.2
		c15.4,10.5,26.4,27,29.7,46.2l0.1,0.4c0,0.1,0,0.2,0.1,0.4l0,0l0,0.1l0,0.2l0,0l0,0.1l0,0.2l0,0l0,0l0,0.1l0,0.2l0,0l0,0l0,0.1
		l0,0.2l0,0l0,0l0,0.1l0,0.2l0,0l0,0l0,0.1l0,0.2l0,0l0,0l0,0.1l0,0.2l0,0.1l0,0l0,0.1l0,0.1l0,0.1l0,0l0,0.1l0,0.1l0,0.1l0,0.1
		l0,0.1l0,0.1l0,0.1l0,0.1l0,0.1l0,0.1l0,0.1l0,0.1l0,0.1l0,0.1l0,0.1l0,0.1l0,0.1l0,0.1l0,0.1l0,0.1l0,0.1l0,0.1l0,0.1l0,0.1l0,0.1
		l0,0.1l0,0.1l0,0.1l0,0.1l0,0.1l0,0.1l0,0.1l0,0.1l0,0.1l0,0.1l0,0.1l0,0.1l0,0.1l0,0.1l0,0.1l0,0.1l0,0.1l0,0.1l0,0.1l0,0.1l0,0.1
		l0,0.1l0,0.1l0,0.1l0,0.1l0,0.1l0,0.1l0,0.1l0,0.1l0,0.1l0,0.1l0,0l0,0l0,0.2l0,0.1l0,0l0,0l0,0.2l0,0.1l0,0l0,0l0,0.2l0,0.1l0,0
		l0,0l0,0.2l0,0.1v0l0,0l0,0.2l0,0.1v0v0l0,0.2l0,0.1v0l0,0.2l0,0.1v0c0,0.1,0,0.3,0,0.4c0,0.1,0,0.3,0,0.4v0l0,0.1l0,0.2l0,0v0
		l0,0.1l0,0.2l0,0.1v0l0,0.1l0,0.2l0,0.1l0,0.1l0,0.1l0,0.1l0,0.1l0,0.1l0,0.1l0,0.1l0,0.1l0,0.1l0,0.1l0,0.1l0,0.1l0,0.1l0,0.1
		l0,0.1l0,0.1l0,0.1l0,0.1l0,0.1l0,0.2l0,0.1l0,0l0,0.1l0,0.2l0,0.1l0,0l0,0l0,0.2l0,0.1l0,0l0,0l0,0.3l0,0c0,0.1,0,0.3,0,0.4l0,0
		l0,0.1l0,0.2l0,0l0,0l0,0.1l0,0.2l0,0l0,0l0,0.1l0,0.2l0,0.1l0,0.1l0,0.1l0,0.1l0,0.1l0,0.1l0,0.1l0,0.1l0,0.1l0,0.1l0,0.1l0,0.1
		l0,0.1l0,0.1l0,0.1l0,0.1l0,0.1l0,0.1l0,0.1l0,0.1l0,0.2l0,0.1l0,0l0,0.1l0,0.2l0,0.1l0,0l0,0l0,0.2l0,0.1l0,0l0,0l0,0.3l0,0.1l0,0
		c0,0.1,0,0.3-0.1,0.4l0,0l0,0.1l0,0.2l0,0l0,0l0,0.1l0,0.2l0,0l0,0l0,0.1l0,0.2l0,0.1l0,0.1l0,0.1l0,0.1l0,0.1l0,0.1l0,0.1l0,0.1
		l0,0.1l0,0.1l0,0.1l0,0.1l0,0.1l0,0.1l0,0.1l0,0.1l0,0.1l0,0.1l0,0.1l0,0.1l0,0.1l0,0.1l0,0.1l0,0.1l0,0.2l0,0.1l0,0l0,0l0,0.2
		l0,0.1l0,0l0,0l-0.1,0.2l0,0.1l0,0c0,0.1-0.1,0.3-0.1,0.4l0,0l0,0.1l0,0.2l0,0l0,0l0,0.1l0,0.2l0,0l0,0l0,0.1l0,0.2l0,0.1l0,0.1
		l0,0.1l0,0.1l0,0.1l0,0.1l0,0.1l0,0.1l0,0.1l0,0.1l0,0.1l0,0.1l0,0.1l0,0.1l0,0.1l0,0.1l0,0.1l0,0.1l0,0.1l0,0.1l0,0.1l0,0.1l0,0.1
		l0,0l0,0.1l0,0.1l0,0l0,0l0,0.2l0,0.2l0,0l0,0l-0.1,0.2l0,0.2l0,0c0,0.1-0.1,0.2-0.1,0.4l0,0l-0.1,0.2l-0.1,0.2l0,0l0,0l-0.1,0.2
		l0,0.2l0,0l0,0l0,0.2l0,0.1l0,0l0,0.1l0,0.1l0,0.1l0,0.1l0,0.1l0,0.1l0,0.1l0,0.1l0,0.1l0,0.1l0,0.1l0,0.1l0,0.1l0,0.1l0,0.1l0,0.1
		l0,0.1l0,0.1l0,0.1l0,0.1l0,0.1l0,0.1l0,0l0,0.1l-0.1,0.2l0,0.1l0,0l0,0.1l-0.1,0.2l0,0l0,0l0,0.1l-0.1,0.2c0,0.1-0.1,0.3-0.1,0.4
		l-0.1,0.3l0,0.1l0,0l0,0l-0.1,0.2l0,0.1l0,0l0,0l-0.1,0.2l0,0.1l0,0l0,0.1l-0.1,0.2l0,0.1l0,0l0,0.1l-0.1,0.1l0,0.1l0,0.1l0,0.1
		l0,0.1l0,0.1l0,0.1l0,0.1l0,0.1l0,0.1l0,0.1l-0.1,0.1l0,0.1l0,0l0,0.1l-0.1,0.2l0,0.1l0,0l0,0.1l-0.1,0.2l0,0.1l0,0l0,0.1l-0.1,0.2
		l0,0l0,0c-0.2,0.4-0.4,0.9-0.6,1.3l0,0l0,0l0,0.1l-0.1,0.2l0,0.1l0,0l0,0.1l-0.1,0.2l0,0.1l0,0l0,0.1l-0.1,0.2l0,0.1l0,0l-0.1,0.1
		l-0.1,0.1l0,0.1l0,0l-0.1,0.1l-0.1,0.1l0,0l0,0.1l-0.1,0.1l-0.1,0.1l0,0l0,0.1l-0.1,0.2l0,0.1l0,0l0,0l-0.1,0.2l0,0.1l0,0l0,0
		c-0.3,0.6-0.7,1.3-1,1.9l-0.1,0.1l-0.1,0.2l0,0l0,0l-0.1,0.1l-0.1,0.2l0,0l0,0l-0.1,0.1l-0.1,0.2l0,0l0,0l-0.1,0.1l-0.1,0.1l0,0
		l0,0l-0.1,0.2l-0.1,0.1l0,0l0,0l-0.1,0.2l-0.1,0.1l0,0c-9.9,16.3-26.1,28.3-45.3,32.5l0,0l0,0l-0.2,0l-0.1,0l0,0l0,0l-0.2,0l-0.1,0
		l-0.3,0.1c-0.1,0-0.3,0.1-0.4,0.1l-0.2,0l-0.1,0l0,0l-0.1,0l-0.2,0l-0.1,0l0,0l-0.1,0l-0.1,0l-0.1,0l-0.1,0l-0.1,0l-0.1,0l0,0
		l-0.1,0l-0.2,0l0,0l0,0l-0.2,0l-0.2,0l-0.1,0l-0.2,0l0,0l0,0l-0.1,0l-0.2,0l-0.1,0l-0.1,0l-0.1,0l-0.1,0l-0.1,0l-0.1,0l-0.1,0
		l-0.1,0l-0.1,0l-0.1,0l0,0l0,0l-0.2,0l-0.1,0l0,0c-0.1,0-0.3,0-0.4,0.1l0,0l-0.1,0l-0.2,0l-0.1,0l0,0l-0.1,0l-0.2,0l-0.1,0l-0.1,0
		l-0.1,0l-0.1,0l-0.1,0l-0.1,0l-0.1,0l-0.1,0l-0.2,0l-0.1,0l0,0l0,0l-0.4,0l0.7-0.1l0.4,0l0.3,0l0.9-0.1l0.3,0l0.1,0l0.6-0.1
		l1.1-0.2l0.2,0l0.6-0.1l0.3-0.1l1-0.2l0.3-0.1l0.3-0.1l0.3-0.1l0.5-0.1l0.3-0.1l0.1,0l0.2,0l0.2,0l0.2,0l0.1,0l0,0l0.2,0l0.1,0
		l0.1,0l0.1,0l0.1,0l0.1,0l0.2,0l0,0l0.1,0l0.2,0l0.1,0l0,0l0.2-0.1l0.1,0l0.3-0.1l0,0c0.5-0.1,1-0.3,1.5-0.4l0,0l0.3-0.1l0,0
		l0.3-0.1l0,0l0.3-0.1l0,0l0.3-0.1l0,0c9.7-3,18.5-8,25.8-14.6l0,0l0.2-0.2l0,0l0.2-0.2l0,0l0.2-0.2l0,0c0.5-0.5,1-1,1.5-1.4l0,0
		l0.2-0.2l0,0l0.2-0.2l0,0l0.2-0.2l0,0l0.2-0.2l0,0l0.2-0.2l0,0c0.4-0.4,0.8-0.9,1.2-1.3l0,0l0.2-0.2l0,0l0.2-0.2l0-0.1l0.2-0.2
		l0.1-0.1l0.2-0.2l0-0.1l0.2-0.2l0,0l0.2-0.2l0,0c0.3-0.3,0.5-0.6,0.8-0.9l0,0l0.2-0.2l0-0.1l0.1-0.2l0.1-0.1l0.1-0.2l0.1-0.1
		l0.1-0.2l0.1-0.1l0.1-0.2l0.1-0.1l0.1-0.2l0.1-0.1l0.1-0.2l0,0c0.2-0.3,0.5-0.6,0.7-0.9l0-0.1l0.1-0.2l0.1-0.1l0.1-0.2l0.1-0.1
		l0.1-0.2l0.1-0.1l0.1-0.2l0.1-0.1l0.1-0.2l0.1-0.1l0.1-0.2l0.1-0.1l0.1-0.2l0.1-0.1l0.1-0.2l0,0l0.2-0.2c0.1-0.1,0.1-0.2,0.2-0.2
		l0.1-0.2l0.1-0.1l0.1-0.2l0.1-0.1l0.1-0.2l0.1-0.1l0.1-0.2l0.1-0.1l0.1-0.1l0.1-0.1l0.1-0.1l0.1-0.1l0.1-0.1l0.1-0.1l0.1-0.2
		l0.1-0.1l0.1-0.2l0.1-0.1l0.1-0.2l0.1-0.2l0-0.1l0.1-0.2l0.1-0.1l0.1-0.1l0.1-0.1l0.1-0.1l0.1-0.1l0.1-0.1l0.1-0.1l0.1-0.1l0.1-0.1
		l0.1-0.1l0.1-0.1l0.1-0.1l0.1-0.1l0.1-0.1l0.1-0.1l0.1-0.1l0.1-0.1l0.1-0.1l0.2-0.3l0.1-0.1l0.1-0.1l0.1-0.1l0.1-0.1l0.1-0.1
		l0.1-0.1l0.1-0.1l0.1-0.1l0.1-0.1l0.1-0.1l0.1-0.1l0.1-0.1l0.1-0.1l0.1-0.1l0.1-0.1l0.1-0.2l0.1-0.1l0.1-0.2l0.1-0.1l0.1-0.3
		l0.1-0.1l0.1-0.2l0.1-0.1l0.1-0.2l0.1-0.1l0.1-0.2l0.1-0.1l0.1-0.2l0.1-0.1l0.1-0.2l0.1-0.1l0.1-0.2l0.1-0.1l0.1-0.2l0.1-0.1
		l0.1-0.2l0.1-0.1l0.1-0.2l0-0.1l0.1-0.3l0-0.1l0.1-0.2l0.1-0.1l0.1-0.2l0.1-0.1l0.1-0.2l0.1-0.1l0.1-0.2l0.1-0.1l0.1-0.2l0.1-0.1
		l0.1-0.2l0.1-0.1l0.1-0.2l0.1-0.1l0.1-0.2l0.1-0.1l0.1-0.2l0-0.1l0.1-0.3l0-0.1l0.1-0.2l0-0.1l0.1-0.2l0-0.1l0.1-0.2l0.1-0.1
		l0.1-0.2l0-0.1l0.1-0.2l0-0.1l0.1-0.2l0-0.1l0.1-0.2l0-0.1l0.1-0.2l0-0.1l0.1-0.2l0-0.1l0.1-0.3l0,0l0.1-0.3l0-0.1l0.1-0.2l0-0.1
		l0.1-0.2l0-0.1l0.1-0.2l0-0.1l0.1-0.2l0-0.1l0.1-0.2l0-0.1l0.1-0.2l0-0.1l0.1-0.2l0-0.1l0.1-0.2l0-0.1l0.1-0.3l0,0l0.1-0.3l0-0.1
		l0.1-0.2l0-0.1l0.1-0.2l0-0.1l0.1-0.2l0-0.1l0-0.2l0-0.1l0-0.2l0-0.1l0-0.2l0-0.1l0-0.2l0-0.1l0.1-0.2l0-0.1l0.1-0.3
		c-0.1,0.1-0.2,0.1-0.4,0.1l0,0l-0.1,0l-0.2,0.1l0,0l-0.1,0.1l-0.2,0.1l0,0l-0.2,0.1l-0.2,0.1l0,0l-0.2,0.1l-0.2,0.1l0,0l0,0
		l-0.2,0.1l-0.2,0.1l0,0l0,0l-0.2,0.1l-0.2,0.1l0,0l0,0l-0.2,0.1l-0.2,0.1l0,0l0,0l-0.2,0.1l-0.2,0.1l0,0l0,0l-0.1,0.1l-0.2,0.1l0,0
		l0,0l-0.1,0.1l-0.2,0.1l0,0l0,0l-0.1,0l-0.2,0.1l0,0l0,0l-0.1,0l-0.2,0.1l0,0l0,0l-0.1,0l-0.2,0l0,0l0,0l-0.1,0l-0.2,0l0,0l0,0
		l-0.1,0l-0.1,0l0,0l0,0l-0.1,0l-0.1,0l-0.1,0l0,0l-0.1,0l-0.1,0l-0.1,0l-0.1,0l-0.1,0l-0.1,0l-0.1,0l-0.1,0l-0.1,0l-0.1,0l-0.1,0
		l-0.1,0l-0.1,0l-0.1,0l-0.1,0l-0.1,0l-0.1,0l-0.1,0l-0.1,0l-0.1,0l-0.1,0l-0.1,0l-0.1,0l-0.1,0l-0.1,0l-0.1,0l-0.1,0l-0.1,0l-0.1,0
		l-0.1,0l-0.1,0l-0.1,0l-0.1,0l-0.1,0l-0.1,0l-0.1,0l-0.1,0l-0.1,0l-0.1,0l-0.1,0l-0.1,0l-0.1,0l-0.1,0l-0.1,0l-0.1,0l-0.1,0l-0.1,0
		l-0.1,0l-0.1,0l-0.1,0l-0.1,0l-0.1,0l-0.1,0l-0.1,0l-0.1,0l-0.1,0l-0.1,0l-0.1,0l-0.1,0l-0.1,0l-0.1,0l-0.1,0l-0.1,0l-0.1,0l-0.1,0
		l-0.1,0l-0.1,0l-0.1,0l-0.1,0l-0.1,0l-0.1,0l-0.1,0l-0.1,0l-0.1,0l-0.1,0l-0.1,0l-0.1,0l-0.1,0l-0.1,0l-0.1,0l-0.1,0l-0.1,0l-0.1,0
		l-0.1,0l-0.1,0l-0.1,0l-0.1,0l-0.1,0l-0.1,0l-0.1,0l-0.1,0l-0.1,0l-0.1,0l-0.1,0l-0.1,0l-0.1,0l-0.1,0l-0.1,0l-0.1,0l-0.1,0l-0.1,0
		l-0.1,0l-0.1,0l-0.1,0l-0.1,0l-0.1,0l-0.2,0l-0.1,0l-0.1,0l-0.1,0l-0.2,0l-0.1,0l0,0l-0.1,0l-0.2,0l-0.1,0l0,0l-0.1,0l-0.2,0
		l-0.1,0l0,0l-0.1,0l-0.2,0l-0.1,0l0,0l-0.1,0l-0.2,0l-0.1,0l0,0l0,0l-0.2,0l-0.1,0l0,0l0,0l-0.2,0l-0.1,0l0,0l0,0l-0.2,0l-0.1,0
		l0,0l0,0l-0.2,0l-0.1,0l0,0l0,0l-0.2,0l-0.1,0l0,0l0,0l-0.2,0l-0.1,0l0,0l0,0l-0.2,0l-0.1,0l0,0l0,0l-0.2,0l-0.1,0l0,0l0,0l-0.2,0
		l-0.1,0h0l0,0l-0.2,0l-0.1,0l0,0l-0.2,0l-0.1,0l0,0l-0.3,0l-0.1,0h0l-0.3,0l-0.1,0h0l-0.4,0l-0.4,0c-0.8,0-1.5,0-2.3,0
		c-9.9,0-19.9-1.9-29.3-5.4c-9.8-3.7-17.9-8.9-24.4-15.3l-0.3-0.3c-0.1-0.1-0.2-0.2-0.3-0.3l0,0l-0.1-0.1l-0.2-0.2l0,0l-0.1-0.1
		l-0.2-0.2l0,0l-0.1-0.1l-0.2-0.2l0,0l0,0l-0.1-0.1l-0.2-0.2l0,0l0,0l-0.1-0.1l-0.2-0.2l0,0l0,0l-0.1-0.1l-0.2-0.2l0,0l0,0l-0.1-0.1
		l-0.2-0.2l0,0l0,0l-0.1-0.1l-0.2-0.2l0,0l0,0l-0.1-0.1l-0.2-0.2l0,0l0,0l-0.1-0.1l-0.1-0.2l0,0l0,0l-0.1-0.1l-0.1-0.2l0,0l0,0
		l-0.1-0.1l-0.1-0.2l0,0l0,0l-0.1-0.1l-0.1-0.2l0,0l0,0l-0.1-0.1l-0.1-0.2l0,0l0,0l-0.1-0.1l-0.1-0.2l0-0.1l0,0l-0.1-0.1l-0.1-0.2
		l0-0.1l0,0l-0.1-0.1l-0.1-0.2l0-0.1l0,0l-0.1-0.1l-0.1-0.1l0-0.1l0,0l-0.1-0.1l-0.1-0.1l0-0.1l0-0.1l-0.1-0.1l-0.1-0.1l0-0.1l0-0.1
		l-0.1-0.1l-0.1-0.1l-0.1-0.1l0-0.1l-0.1-0.1l-0.1-0.1l-0.1-0.1l0-0.1l-0.1-0.1l-0.1-0.1l-0.1-0.1l0-0.1l-0.1-0.1l-0.1-0.1l-0.1-0.1
		l0-0.1l-0.1-0.1l-0.1-0.1l-0.1-0.1l0-0.1l-0.1-0.1l-0.1-0.1l-0.1-0.1l0-0.1l-0.1-0.1l-0.1-0.1l-0.1-0.1l-0.1-0.1l-0.1-0.1l-0.1-0.1
		l-0.1-0.1l-0.1-0.1l-0.1-0.1l-0.1-0.1l-0.1-0.1l-0.1-0.1l-0.1-0.1l-0.1-0.1l-0.1-0.1l-0.1-0.1l-0.1-0.1l-0.1-0.1l-0.1-0.1l-0.1-0.1
		l-0.1-0.1l-0.1-0.1l-0.1-0.1l-0.1-0.1l-0.1-0.1L943,91l-0.1-0.1l-0.1-0.1l0-0.1l-0.1-0.1l-0.1-0.1l-0.1-0.1l0-0.1l-0.1-0.1
		l-0.1-0.1l-0.1-0.1l0-0.1l-0.1-0.1l-0.1-0.1l-0.1-0.1l0-0.1l0-0.1l-0.1-0.1l-0.1-0.1l0-0.1l0-0.1l-0.1-0.1l-0.1-0.1l0-0.1l0-0.1
		l-0.1-0.1l-0.1-0.1l0-0.1l0-0.1l-0.1-0.1l-0.1-0.1l0-0.1l0-0.1l-0.1-0.1l-0.1-0.1l0-0.1l0-0.1l-0.1-0.1l-0.1-0.1l0-0.1l0-0.1
		l-0.1-0.1l-0.1-0.1l0-0.1l0-0.1l-0.1-0.2l-0.1-0.1l0-0.1l0-0.1l-0.1-0.2l-0.1-0.1l0-0.1l0-0.1l-0.1-0.2l-0.1-0.1l0-0.1l0-0.1
		l-0.1-0.2l-0.1-0.1l0,0l0-0.1l-0.1-0.2l-0.1-0.2l0,0l0,0l-0.1-0.2l-0.1-0.2l0,0l0,0l-0.1-0.2l-0.1-0.2l0,0l0,0l-0.1-0.2l-0.1-0.2
		l0,0l0,0l-0.1-0.2l-0.1-0.2l0,0l0,0l-0.1-0.2l-0.1-0.2l0,0l0,0l-0.1-0.2l-0.1-0.2l0,0l0,0l-0.1-0.2l-0.1-0.2l0,0l0,0l-0.1-0.2
		l-0.1-0.2l0,0l0,0l-0.1-0.2l-0.1-0.2l0,0l0,0l-0.1-0.2l-0.1-0.2l0,0l0,0l-0.1-0.2l-0.1-0.2l0,0l-0.1-0.2l-0.1-0.2l0,0l-0.1-0.3
		l-0.1-0.1l0,0c-0.1-0.1-0.1-0.3-0.2-0.4l-0.1-0.3c-4.2-12-5.4-25.4-3.8-38.9c-20.8,10.4-35.8,30.8-38.6,54.9l0,0l0,0.3
		c0,0.1,0,0.2,0,0.3l0,0.2l0,0.1l0,0.2l0,0.3l0,0.1l0,0.2L894.5,96.4l0,0.4L894.5,96.4L894.5,96.4L894.5,96.4z"/>
	<path class="st11" d="M894.2,102.6L894.2,102.6L894.2,102.6z M894.2,102.4C894.2,102.4,894.2,102.4,894.2,102.4
		C894.2,102.4,894.2,102.4,894.2,102.4z M894.3,102.3L894.3,102.3L894.3,102.3z M894.3,102.2L894.3,102.2L894.3,102.2z M894.3,102.1
		L894.3,102.1L894.3,102.1z M894.3,102L894.3,102L894.3,102z M894.3,101.9C894.3,101.9,894.3,101.9,894.3,101.9
		C894.3,101.9,894.3,101.9,894.3,101.9z M894.3,101.8L894.3,101.8L894.3,101.8z M894.3,101.7L894.3,101.7L894.3,101.7z M894.3,101.5
		L894.3,101.5L894.3,101.5z M894.3,101.4L894.3,101.4L894.3,101.4z M894.3,101.3L894.3,101.3L894.3,101.3z M894.3,101.2L894.3,101.2
		L894.3,101.2z M894.3,101.1L894.3,101.1L894.3,101.1z M894.3,101C894.3,101,894.3,100.9,894.3,101C894.3,100.9,894.3,101,894.3,101
		z M894.3,100.9L894.3,100.9L894.3,100.9z M894.3,100.8c0,0,0-0.1,0-0.1C894.3,100.7,894.3,100.7,894.3,100.8z M894.3,100.6
		C894.3,100.6,894.3,100.6,894.3,100.6C894.3,100.6,894.3,100.6,894.3,100.6z"/>
	<path class="st12" d="M964.8,173.2c-20.4,0-38.7-8.6-51.6-22.5C926,164.6,944.4,173.2,964.8,173.2h0.1H964.8z"/>
	<path class="st12" d="M964.9,173.2C965,173.2,965,173.2,964.9,173.2C965,173.2,965,173.2,964.9,173.2z M965.1,173.2L965.1,173.2
		L965.1,173.2z M965.2,173.2L965.2,173.2L965.2,173.2z M965.3,173.2L965.3,173.2L965.3,173.2z M965.4,173.2L965.4,173.2L965.4,173.2
		z M965.5,173.2C965.5,173.2,965.6,173.2,965.5,173.2C965.6,173.2,965.5,173.2,965.5,173.2z M965.6,173.2L965.6,173.2L965.6,173.2z
		 M965.7,173.2C965.8,173.2,965.8,173.2,965.7,173.2C965.8,173.2,965.8,173.2,965.7,173.2z M965.8,173.2
		C965.9,173.2,965.9,173.2,965.8,173.2C965.9,173.2,965.9,173.2,965.8,173.2z M966,173.2C966,173.2,966,173.2,966,173.2
		C966,173.2,966,173.2,966,173.2z M966.1,173.2L966.1,173.2L966.1,173.2z M966.2,173.2C966.2,173.2,966.2,173.2,966.2,173.2
		C966.2,173.2,966.2,173.2,966.2,173.2z M966.3,173.2L966.3,173.2L966.3,173.2z M966.4,173.2L966.4,173.2L966.4,173.2z M966.5,173.2
		L966.5,173.2L966.5,173.2z M966.6,173.2C966.6,173.2,966.7,173.2,966.6,173.2C966.7,173.2,966.6,173.2,966.6,173.2z M967,173.2
		L967,173.2L967,173.2z M967.1,173.2C967.1,173.2,967.1,173.2,967.1,173.2C967.1,173.2,967.1,173.2,967.1,173.2z M967.2,173.2
		L967.2,173.2L967.2,173.2z M894.2,102.7v-0.1V102.7z M894.2,102.5L894.2,102.5L894.2,102.5z M894.3,102.4L894.3,102.4L894.3,102.4z
		 M894.3,102.3L894.3,102.3L894.3,102.3z M894.3,102.2v-0.1V102.2z M894.3,102.1C894.3,102.1,894.3,102,894.3,102.1
		C894.3,102,894.3,102.1,894.3,102.1z M894.3,102L894.3,102L894.3,102z M894.3,101.9L894.3,101.9L894.3,101.9z M894.3,101.7
		C894.3,101.7,894.3,101.7,894.3,101.7C894.3,101.7,894.3,101.7,894.3,101.7z M894.3,101.6C894.3,101.6,894.3,101.6,894.3,101.6
		C894.3,101.6,894.3,101.6,894.3,101.6z M894.3,101.5C894.3,101.5,894.3,101.5,894.3,101.5C894.3,101.5,894.3,101.5,894.3,101.5z
		 M894.3,101.4C894.3,101.4,894.3,101.3,894.3,101.4C894.3,101.3,894.3,101.4,894.3,101.4z M894.3,101.3
		C894.3,101.2,894.3,101.2,894.3,101.3C894.3,101.2,894.3,101.2,894.3,101.3z M894.3,101.2C894.3,101.1,894.3,101.1,894.3,101.2
		C894.3,101.1,894.3,101.1,894.3,101.2z M894.3,101C894.3,101,894.3,101,894.3,101C894.3,101,894.3,101,894.3,101z M894.3,100.9
		C894.3,100.9,894.3,100.9,894.3,100.9C894.3,100.9,894.3,100.9,894.3,100.9z M894.3,100.8C894.3,100.8,894.3,100.8,894.3,100.8
		C894.3,100.8,894.3,100.8,894.3,100.8z M894.3,100.7C894.3,100.6,894.3,100.6,894.3,100.7C894.3,100.6,894.3,100.6,894.3,100.7z
		 M894.3,100.6L894.3,100.6L894.3,100.6z"/>
	<path class="st13" d="M995,142.5l-2.3,3c-1.7,2.2-3.4,4.4-5,6.7C990.1,148.9,992.5,145.7,995,142.5z M980,162.2
		c-1.3,1.7-2.5,3.3-3.8,5c1.7-2.2,3.3-4.3,5-6.5L980,162.2z M941.1,117.3c-1.4,1.7-2.9,3.4-4.3,5.1
		C938.3,120.7,939.7,119,941.1,117.3z M905.5,117l-2.2,2.7L905.5,117l1.1-1.3L905.5,117z M916.3,103.8c-1.4,1.8-2.9,3.5-4.3,5.3
		C913.5,107.3,914.9,105.6,916.3,103.8z M922.5,96.4c-1,1.2-2,2.4-2.9,3.6l0.5-0.6L922.5,96.4z M951.6,105c-0.8,1-1.7,2-2.5,2.9
		l1.2-1.5L951.6,105L951.6,105z M1004.2,130.3c1.5-2,3.1-4.1,4.6-6.1c8.4-0.3,16.7-1.9,24.6-5.1c-6.9,28.8-31.4,50.8-61.5,53.8
		c0.7-0.9,1.3-1.7,2-2.6c-0.7,0.9-1.3,1.7-2,2.6c-1.5,0.2-3.1,0.3-4.7,0.3l-0.1,0c0,0,0,0,0,0l-0.5,0c0,0,0,0,0,0l-0.2,0
		c0,0,0,0-0.1,0h0c0,0,0,0-0.1,0c0,0,0,0,0,0l-0.3,0c0,0,0,0-0.1,0l-0.5,0c0,0,0,0,0,0l-0.5,0c-20.4,0-38.7-8.6-51.6-22.5
		c7.3-8.9,14.7-17.7,22.1-26.5c-7.4,8.8-14.8,17.7-22.1,26.5c-6.6-7.1-11.7-15.5-15-24.8l-0.1-0.3c-2.5-7.2-3.8-14.9-3.8-22.9l0-0.8
		l0,0l0-0.7c0,0,0,0,0,0V101c0,0,0,0,0-0.1c0,0,0-0.1,0-0.1c0,0,0,0,0,0v-0.1c0,0,0,0,0,0l0-0.1c0,0,0,0,0,0l0-0.1
		c0.8-26.8,16.5-49.8,39-61c-1.6,13.6-0.4,27.1,3.9,39.2l0.2,0.4c3.3,9.1,8.4,17.4,15.5,24.4l0.3,0.3c6.4,6.2,14.4,11.3,24.1,15
		c9.4,3.5,19.4,5.4,29.3,5.4c0.8,0,1.5,0,2.3,0c-3.1,4.1-6.1,8.1-9.2,12.2L1004.2,130.3L1004.2,130.3z M927.4,90.5
		c1.7-2.1,3.4-4.1,5.2-6.2c-2.5,3-5.1,6.1-7.6,9.2L927.4,90.5z"/>
	<path class="st7" d="M1059,59c-4.6-3.3-7.6-8.6-7.6-14.7c0-9.9,8.1-18,18-18c4.7,0,8.9,1.8,12.1,4.7c-0.8,1-1.6,2-2.4,3
		c-2.5-2.4-5.9-3.8-9.7-3.8c-7.7,0-14,6.2-14.2,13.9v0.1c0,0,0,0,0,0.1v0.2c0,4.8,2.4,9.1,6.1,11.7C1060.6,57,1059.8,58,1059,59
		L1059,59z"/>
	<path class="st8" d="M1069.4,62.3c-3.9,0-7.5-1.2-10.4-3.3c0.8-1,1.6-2,2.4-3c2.3,1.6,5.1,2.5,8,2.5h0.1c0,0,0,0,0,0h0.1
		c0,0,0,0,0,0h0c0,0,0,0,0,0h0.1c0,0,0,0,0,0h0c0,0,0,0,0,0h0c0,0,0,0,0,0h0c0,0,0,0,0,0h0c0,0,0,0,0,0h0c0,0,0,0,0,0h0c0,0,0,0,0,0
		h0c0,0,0.1,0,0.1,0h0c0,0,0,0,0,0h0c0,0,0,0,0,0c0,0,0,0,0,0c0,0,0,0,0,0c0,0,0,0,0,0c0,0,0,0,0,0c0,0,0,0,0,0
		c7.3-0.6,13-6.7,13-14.1c0-4.1-1.7-7.7-4.5-10.3c0.8-1,1.6-2,2.4-3c3.6,3.3,5.9,8,5.9,13.3C1087.4,54.3,1079.4,62.3,1069.4,62.3
		L1069.4,62.3z"/>
	<path class="st7" d="M1078,129.5c-4.6,0-8.4-3.7-8.4-8.4c0-4.6,3.7-8.4,8.4-8.4s8.4,3.7,8.4,8.4
		C1086.3,125.8,1082.6,129.5,1078,129.5z M1078,115.2c-3.3,0-5.9,2.7-5.9,5.9c0,3.3,2.6,5.9,5.9,5.9s5.9-2.6,5.9-5.9
		C1083.9,117.9,1081.2,115.2,1078,115.2z"/>
	<path class="st14" d="M1069.4,58.5L1069.4,58.5L1069.4,58.5z M1069.5,58.5C1069.5,58.5,1069.5,58.5,1069.5,58.5
		C1069.5,58.5,1069.5,58.5,1069.5,58.5z M1069.6,58.5L1069.6,58.5L1069.6,58.5z M1069.6,58.5L1069.6,58.5L1069.6,58.5z M1069.7,58.5
		L1069.7,58.5L1069.7,58.5z M1069.7,58.5L1069.7,58.5L1069.7,58.5z M1069.8,58.5C1069.8,58.5,1069.8,58.5,1069.8,58.5
		C1069.8,58.5,1069.8,58.5,1069.8,58.5z M1069.8,58.5L1069.8,58.5L1069.8,58.5z M1069.9,58.5C1069.9,58.5,1069.9,58.5,1069.9,58.5
		C1069.9,58.5,1069.9,58.5,1069.9,58.5z M1069.9,58.5C1069.9,58.5,1069.9,58.5,1069.9,58.5C1069.9,58.5,1069.9,58.5,1069.9,58.5z
		 M1070,58.5C1070,58.5,1070,58.5,1070,58.5C1070,58.5,1070,58.5,1070,58.5z M1070,58.5C1070,58.5,1070,58.5,1070,58.5
		C1070,58.5,1070,58.5,1070,58.5z M1070.1,58.5C1070.1,58.5,1070.1,58.5,1070.1,58.5C1070.1,58.5,1070.1,58.5,1070.1,58.5z
		 M1070.1,58.5C1070.1,58.5,1070.1,58.5,1070.1,58.5C1070.1,58.5,1070.1,58.5,1070.1,58.5z M1070.2,58.5
		C1070.2,58.5,1070.2,58.5,1070.2,58.5C1070.2,58.5,1070.2,58.5,1070.2,58.5z M1070.2,58.5c0,0,0.1,0,0.1,0
		C1070.3,58.5,1070.3,58.5,1070.2,58.5z M1070.4,58.5C1070.4,58.5,1070.4,58.5,1070.4,58.5C1070.4,58.5,1070.4,58.5,1070.4,58.5z
		 M1070.4,58.5C1070.4,58.5,1070.4,58.5,1070.4,58.5C1070.4,58.5,1070.4,58.5,1070.4,58.5z M1070.5,58.5
		C1070.5,58.5,1070.5,58.5,1070.5,58.5C1070.5,58.5,1070.5,58.5,1070.5,58.5z M1070.5,58.5C1070.5,58.5,1070.5,58.5,1070.5,58.5
		C1070.5,58.5,1070.5,58.5,1070.5,58.5z"/>
	<path class="st15" d="M1069.4,46.1c-3.4-3.6-6-8.2-7.3-13.8c-4,2.4-6.7,6.8-6.8,11.8c0.2-7.7,6.4-13.9,14.2-13.9
		c3.8,0,7.2,1.5,9.7,3.8C1075.9,38,1072.6,42,1069.4,46.1z"/>
	<path class="st16" d="M1070.6,58.4c3.9-0.3,7.4-2.2,9.8-5.1c-4.2-1.7-8-4.1-11-7.3c3.3-4,6.5-8.1,9.8-12.1
		c2.8,2.6,4.5,6.3,4.5,10.3C1083.6,51.8,1077.9,57.9,1070.6,58.4L1070.6,58.4z"/>
	<path class="st11" d="M1055.3,44.3L1055.3,44.3L1055.3,44.3z M1055.3,44.3L1055.3,44.3L1055.3,44.3z M1055.3,44.2L1055.3,44.2
		L1055.3,44.2z M1055.3,44.1C1055.3,44.1,1055.3,44.1,1055.3,44.1C1055.3,44.1,1055.3,44.1,1055.3,44.1z M1055.3,44.1L1055.3,44.1
		L1055.3,44.1z"/>
	<path class="st17" d="M1069.5,58.5L1069.5,58.5L1069.5,58.5z M1069.5,58.5L1069.5,58.5L1069.5,58.5z M1069.6,58.5L1069.6,58.5
		L1069.6,58.5z M1069.6,58.5L1069.6,58.5L1069.6,58.5z M1069.7,58.5C1069.7,58.5,1069.7,58.5,1069.7,58.5
		C1069.7,58.5,1069.7,58.5,1069.7,58.5z M1069.7,58.5L1069.7,58.5L1069.7,58.5z M1069.8,58.5L1069.8,58.5L1069.8,58.5z M1069.9,58.5
		L1069.9,58.5L1069.9,58.5z M1069.9,58.5L1069.9,58.5L1069.9,58.5z M1070,58.5L1070,58.5L1070,58.5z M1070,58.5L1070,58.5L1070,58.5
		z M1070,58.5L1070,58.5L1070,58.5z M1070.1,58.5L1070.1,58.5L1070.1,58.5z M1070.1,58.5L1070.1,58.5L1070.1,58.5z M1070.2,58.5
		L1070.2,58.5L1070.2,58.5z M1070.4,58.5L1070.4,58.5L1070.4,58.5z M1070.4,58.5L1070.4,58.5L1070.4,58.5z M1070.5,58.5
		C1070.5,58.5,1070.5,58.5,1070.5,58.5C1070.5,58.5,1070.5,58.5,1070.5,58.5z M1070.5,58.5C1070.5,58.5,1070.5,58.5,1070.5,58.5
		C1070.5,58.5,1070.5,58.5,1070.5,58.5z M1070.6,58.5C1070.6,58.5,1070.6,58.5,1070.6,58.5C1070.6,58.5,1070.6,58.5,1070.6,58.5z"/>
	<path class="st18" d="M1055.3,44.3L1055.3,44.3L1055.3,44.3z M1055.3,44.2L1055.3,44.2L1055.3,44.2z M1055.3,44.2L1055.3,44.2
		L1055.3,44.2z M1055.3,44.1L1055.3,44.1L1055.3,44.1z M1055.3,44L1055.3,44L1055.3,44z"/>
	<path class="st19" d="M1061.4,56c-3.7-2.6-6.1-6.8-6.1-11.7v-0.2c0,0,0,0,0-0.1V44c0.1-5,2.8-9.3,6.8-11.8
		c1.3,5.6,3.8,10.2,7.3,13.8C1066.7,49.4,1064,52.7,1061.4,56L1061.4,56z"/>
	<path class="st20" d="M1069.4,58.5c-3,0-5.8-0.9-8-2.5c2.6-3.3,5.3-6.6,8-9.9c3.1,3.2,6.8,5.6,11,7.3c-2.4,2.9-5.9,4.8-9.8,5.1
		c0,0,0,0,0,0c0,0,0,0,0,0c0,0,0,0,0,0c0,0,0,0,0,0c0,0,0,0,0,0c0,0,0,0,0,0h0c0,0,0,0,0,0h0c-0.1,0-0.1,0-0.1,0h0c0,0,0,0,0,0h0
		c0,0,0,0,0,0h0c0,0,0,0,0,0h0c0,0,0,0,0,0h0c0,0,0,0,0,0h0c0,0,0,0,0,0h0c0,0,0,0,0,0h-0.1c0,0,0,0,0,0h0c0,0,0,0,0,0L1069.4,58.5
		C1069.5,58.5,1069.5,58.5,1069.4,58.5L1069.4,58.5L1069.4,58.5z"/>
	<path class="st21" d="M1078,127.1c-3.3,0-5.9-2.6-5.9-5.9c0-3.3,2.6-5.9,5.9-5.9s5.9,2.7,5.9,5.9
		C1083.9,124.4,1081.2,127.1,1078,127.1z"/>
	<path class="st7" d="M1180.3,129.5c-4.6,0-8.4-3.7-8.4-8.4c0-4.6,3.7-8.4,8.4-8.4s8.4,3.7,8.4,8.4
		C1188.7,125.8,1185,129.5,1180.3,129.5z M1180.3,115.2c-3.3,0-5.9,2.7-5.9,5.9c0,3.3,2.6,5.9,5.9,5.9c3.3,0,5.9-2.6,5.9-5.9
		C1186.3,117.9,1183.6,115.2,1180.3,115.2z"/>
	<path class="st21" d="M1180.3,127.1c-3.3,0-5.9-2.6-5.9-5.9c0-3.3,2.6-5.9,5.9-5.9c3.3,0,5.9,2.7,5.9,5.9
		C1186.3,124.4,1183.6,127.1,1180.3,127.1z"/>
	<path class="st7" d="M805.8,46.8c-5.7,0-10.4-4.6-10.4-10.4c0-5.7,4.6-10.4,10.4-10.4c5.7,0,10.4,4.6,10.4,10.4
		C816.2,42.2,811.6,46.8,805.8,46.8z M805.8,29.1c-4.1,0-7.3,3.3-7.3,7.3s3.3,7.3,7.3,7.3c4.1,0,7.3-3.3,7.3-7.3
		S809.9,29.1,805.8,29.1z"/>
	<path class="st9" d="M805.8,43.8c-4.1,0-7.3-3.3-7.3-7.3s3.3-7.3,7.3-7.3c4.1,0,7.3,3.3,7.3,7.3S809.9,43.8,805.8,43.8z"/>
	<path class="st7" d="M659.7,46.8c-1.8,0-3.4-0.4-4.9-1.2c0.8-0.8,1.6-1.5,2.4-2.3c0.8,0.3,1.7,0.5,2.5,0.5c4.1,0,7.3-3.3,7.3-7.3
		c0-0.8-0.1-1.5-0.3-2.2c0.8-0.8,1.6-1.5,2.4-2.3c0.7,1.4,1,2.9,1,4.5C670.1,42.2,665.5,46.8,659.7,46.8L659.7,46.8z"/>
	<path class="st8" d="M654.8,45.6c-3.3-1.8-5.5-5.2-5.5-9.1c0-5.7,4.6-10.4,10.4-10.4c4.1,0,7.7,2.4,9.4,5.9
		c-0.8,0.8-1.6,1.5-2.4,2.3c-0.9-3-3.7-5.1-7-5.1c-4.1,0-7.3,3.3-7.3,7.3c0,3.2,2,5.8,4.8,6.9C656.4,44.1,655.6,44.8,654.8,45.6
		L654.8,45.6z"/>
	<path class="st22" d="M659.7,43.8c-0.9,0-1.8-0.2-2.5-0.5c3.2-3,6.4-6.1,9.5-9.1c0.2,0.7,0.3,1.5,0.3,2.2
		C667.1,40.5,663.8,43.8,659.7,43.8L659.7,43.8z"/>
	<path class="st9" d="M657.2,43.3c-2.8-1-4.8-3.7-4.8-6.9c0-4.1,3.3-7.3,7.3-7.3c3.3,0,6.1,2.1,7,5.1
		C663.5,37.2,660.4,40.3,657.2,43.3L657.2,43.3z"/>
	<path class="st7" d="M719.6,46.9c-2.2-2.8-3.5-6.2-3.5-10c0-8.9,7.2-16.2,16.2-16.2c3.7,0,7.2,1.3,9.9,3.4
		c-1.1,1.1-2.3,2.3-3.4,3.4c-1.9-1.3-4.1-2.1-6.5-2.1c-6.2,0-11.3,5-11.4,11.1v0.1c0,0,0,0,0,0v0.2c0,2.5,0.8,4.8,2.1,6.6
		C721.8,44.6,720.7,45.8,719.6,46.9z"/>
	<path class="st8" d="M732.3,53c-5.1,0-9.7-2.4-12.7-6.1c1.1-1.1,2.2-2.3,3.4-3.4c2.1,2.9,5.5,4.8,9.3,4.8h0.2c0,0,0,0,0,0h0.1
		c0,0,0,0,0,0h0c0,0,0,0,0,0h0c0,0,0,0,0,0h0c0,0,0,0,0,0h0c0,0,0,0,0,0h0c6.1-0.3,10.9-5.3,10.9-11.4c0-3.9-1.9-7.3-4.9-9.4
		c1.1-1.1,2.3-2.3,3.4-3.4c3.8,3,6.2,7.6,6.2,12.8C748.4,45.8,741.2,53,732.3,53L732.3,53z"/>
	<path class="st14" d="M732.3,48.3L732.3,48.3L732.3,48.3z M732.3,48.3L732.3,48.3L732.3,48.3z M732.4,48.3L732.4,48.3L732.4,48.3z
		 M732.4,48.3L732.4,48.3L732.4,48.3z M732.4,48.3C732.4,48.3,732.5,48.3,732.4,48.3C732.5,48.3,732.4,48.3,732.4,48.3z M732.5,48.3
		L732.5,48.3L732.5,48.3z M732.5,48.3C732.5,48.3,732.5,48.3,732.5,48.3C732.5,48.3,732.5,48.3,732.5,48.3z M732.6,48.3L732.6,48.3
		L732.6,48.3z M732.6,48.3C732.6,48.3,732.6,48.3,732.6,48.3C732.6,48.3,732.6,48.3,732.6,48.3z M732.6,48.3L732.6,48.3L732.6,48.3z
		 M732.7,48.3L732.7,48.3L732.7,48.3z M732.7,48.3C732.7,48.3,732.8,48.3,732.7,48.3C732.8,48.3,732.7,48.3,732.7,48.3z M732.8,48.3
		C732.8,48.3,732.8,48.3,732.8,48.3C732.8,48.3,732.8,48.3,732.8,48.3z"/>
	<path class="st9" d="M729.1,37.2c-2-2.9-2.9-6.4-2.9-10.1c-3.1,2-5.2,5.4-5.3,9.4c0.2-6.2,5.2-11.1,11.4-11.1
		c2.4,0,4.7,0.8,6.5,2.1C735.6,30.7,732.3,34,729.1,37.2z"/>
	<path class="st23" d="M732.8,48.3c3.3-0.2,6.3-1.8,8.3-4.2c-1.4-0.2-2.8-0.5-4.2-1c-3.5-1.2-6-3.3-7.8-5.9c3.2-3.3,6.4-6.5,9.7-9.8
		c3,2.1,4.9,5.5,4.9,9.4C743.7,43,738.9,48,732.8,48.3L732.8,48.3z"/>
	<path class="st11" d="M720.8,36.9L720.8,36.9L720.8,36.9z M720.8,36.8L720.8,36.8L720.8,36.8z M720.8,36.8L720.8,36.8L720.8,36.8z
		 M720.8,36.7L720.8,36.7L720.8,36.7z M720.8,36.7L720.8,36.7L720.8,36.7z M720.8,36.6L720.8,36.6L720.8,36.6z"/>
	<path class="st17" d="M732.3,48.3L732.3,48.3L732.3,48.3z M732.3,48.3L732.3,48.3L732.3,48.3z M732.4,48.3L732.4,48.3L732.4,48.3z
		 M732.4,48.3L732.4,48.3L732.4,48.3z M732.5,48.3L732.5,48.3L732.5,48.3z M732.5,48.3L732.5,48.3L732.5,48.3z M732.6,48.3
		L732.6,48.3L732.6,48.3z M732.6,48.3L732.6,48.3L732.6,48.3z M732.6,48.3L732.6,48.3L732.6,48.3z M732.7,48.3
		C732.7,48.3,732.7,48.3,732.7,48.3C732.7,48.3,732.7,48.3,732.7,48.3z M732.7,48.3L732.7,48.3L732.7,48.3z M732.8,48.3L732.8,48.3
		L732.8,48.3z M732.8,48.3L732.8,48.3L732.8,48.3z"/>
	<path class="st18" d="M720.8,36.8L720.8,36.8L720.8,36.8z M720.8,36.8L720.8,36.8L720.8,36.8z M720.8,36.7L720.8,36.7L720.8,36.7z
		 M720.8,36.7C720.8,36.7,720.8,36.7,720.8,36.7C720.8,36.7,720.8,36.7,720.8,36.7z M720.8,36.6L720.8,36.6L720.8,36.6z M720.8,36.6
		L720.8,36.6L720.8,36.6z"/>
	<path class="st24" d="M723,43.5c-1.3-1.9-2.1-4.2-2.1-6.6v-0.2c0,0,0,0,0,0v-0.1c0.1-4,2.2-7.4,5.3-9.4c0,3.7,1,7.2,2.9,10.1
		C727.1,39.3,725,41.4,723,43.5L723,43.5z"/>
	<path class="st25" d="M732.3,48.3c-3.8,0-7.2-1.9-9.3-4.8c2.1-2.1,4.1-4.2,6.2-6.2c1.7,2.6,4.3,4.6,7.8,5.9c1.4,0.5,2.8,0.8,4.2,1
		c-2,2.4-5,4-8.3,4.2h0c0,0,0,0,0,0h0c0,0,0,0,0,0h0c0,0,0,0,0,0h0c0,0,0,0,0,0h0c0,0,0,0,0,0h-0.1c0,0,0,0,0,0
		C732.4,48.3,732.3,48.3,732.3,48.3z"/>
	<path class="st26" d="M1105.7,35.7c-2.7,0-4.9,2.2-4.9,4.9v30.9c0,2.7,2.2,4.9,4.9,4.9h162c2.7,0,4.9-2.2,4.9-4.9V40.6
		c0-2.7-2.2-4.9-4.9-4.9H1105.7z M1267.7,78.4h-162c-3.8,0-6.9-3.1-6.9-6.9V40.6c0-3.8,3.1-6.9,6.9-6.9h162c3.8,0,6.9,3.1,6.9,6.9
		v30.9C1274.6,75.3,1271.5,78.4,1267.7,78.4z"/>
	<path class="st7" d="M1106.1,133.5L1106.1,133.5L1106.1,133.5z M1106,133.5L1106,133.5L1106,133.5z M1106,133.5L1106,133.5
		L1106,133.5z M1105.9,133.5c-3.6-0.1-6.4-3-6.4-6.6v-10.3c0-3.6,2.9-6.6,6.6-6.6h48.9c3.6,0,6.6,2.9,6.6,6.6l0-0.1
		c-4.3,2.1-8.9,3.7-13.3,5c-13.5,4.1-27.5,7.4-41.5,7.4c-2.3,0-4.6-0.1-7-0.3C1100.5,131.4,1103,133.4,1105.9,133.5L1105.9,133.5z"
		/>
	<path class="st27" d="M1106.1,133.5L1106.1,133.5L1106.1,133.5z M1106,133.5C1106,133.5,1106,133.5,1106,133.5
		C1106,133.5,1106,133.5,1106,133.5z"/>
	<path class="st12" d="M1155,133.5h-49c0,0,0,0,0,0h-0.1c-3-0.1-5.4-2.1-6.2-4.8c2.3,0.2,4.6,0.3,7,0.3c14,0,28.1-3.3,41.5-7.4
		c4.4-1.3,9-3,13.3-5l0,0.1v10.3C1161.6,130.5,1158.7,133.5,1155,133.5L1155,133.5z"/>
	<path class="st7" d="M1060.9,167.8L1060.9,167.8L1060.9,167.8z M1060.9,167.8L1060.9,167.8L1060.9,167.8z M1060.9,167.8
		L1060.9,167.8L1060.9,167.8z M1060.8,167.8L1060.8,167.8L1060.8,167.8z M1060.8,167.8L1060.8,167.8L1060.8,167.8z M1060.7,167.8
		L1060.7,167.8L1060.7,167.8z M1060.7,167.8c-3.2-0.1-5.8-2.8-5.8-6.1v-2.3c0-3.4,2.7-6.1,6.1-6.1h139.2c2.4,0,4.5,1.4,5.5,3.5
		c-1,1.3-2,2.6-3,3.9c-34.9,1.3-69.8,2.2-104.7,2.2c-14.3,0-28.7-0.1-43-0.4C1055.3,165.4,1057.7,167.6,1060.7,167.8z"/>
	<path class="st8" d="M1202.7,160.7c1-1.3,2-2.6,3-3.9c0.4,0.8,0.6,1.7,0.6,2.6v1.2C1205,160.6,1203.8,160.7,1202.7,160.7
		L1202.7,160.7z"/>
	<path class="st27" d="M1060.9,167.8L1060.9,167.8L1060.9,167.8z M1060.9,167.8L1060.9,167.8L1060.9,167.8z M1060.8,167.8
		C1060.8,167.8,1060.8,167.8,1060.8,167.8C1060.8,167.8,1060.8,167.8,1060.8,167.8z M1060.8,167.8L1060.8,167.8L1060.8,167.8z
		 M1060.8,167.8C1060.8,167.8,1060.8,167.8,1060.8,167.8C1060.8,167.8,1060.8,167.8,1060.8,167.8z M1060.7,167.8L1060.7,167.8
		L1060.7,167.8z"/>
	<path class="st12" d="M1197.3,167.8h-136.4c0,0,0,0,0,0h-0.1c0,0,0,0,0,0h0c-3-0.1-5.4-2.4-5.7-5.3c14.3,0.3,28.7,0.4,43,0.4
		c34.9,0,69.8-0.8,104.7-2.2C1200.9,163.1,1199.1,165.4,1197.3,167.8z"/>
	<path class="st28" d="M1200.1,167.8h-2.9c1.8-2.3,3.6-4.7,5.4-7c1.2,0,2.4-0.1,3.5-0.1v1.1C1206.2,165.1,1203.5,167.8,1200.1,167.8
		z"/>
	<path class="st24" d="M1115.4,71.9h-4.7c-2.2,0-4-1.8-4-4V44.7c0-2.2,1.8-4,4-4h4.7c2.2,0,4,1.8,4,4v23.2
		C1119.4,70.1,1117.6,71.9,1115.4,71.9z"/>
	<path class="st24" d="M1133.3,71.9h-4.7c-2.2,0-4-1.8-4-4V44.7c0-2.2,1.8-4,4-4h4.7c2.2,0,4,1.8,4,4v23.2
		C1137.2,70.1,1135.4,71.9,1133.3,71.9z"/>
	<path class="st24" d="M1151.1,71.9h-4.7c-2.2,0-4-1.8-4-4V44.7c0-2.2,1.8-4,4-4h4.7c2.2,0,4,1.8,4,4v23.2
		C1155.1,70.1,1153.3,71.9,1151.1,71.9z"/>
	<path class="st24" d="M1169,71.9h-4.7c-2.2,0-4-1.8-4-4V44.7c0-2.2,1.8-4,4-4h4.7c2.2,0,4,1.8,4,4v23.2
		C1172.9,70.1,1171.1,71.9,1169,71.9z"/>
	<path class="st24" d="M1186.8,71.9h-4.7c-2.2,0-4-1.8-4-4V44.7c0-2.2,1.8-4,4-4h4.7c2.2,0,4,1.8,4,4v23.2
		C1190.7,70.1,1189,71.9,1186.8,71.9z"/>
	<path class="st29" d="M1115.4,71.9h-4.7c-2.2,0-4-1.8-4-4V56.1c4.2,0,8.4,0,12.6,0v11.8C1119.4,70.1,1117.6,71.9,1115.4,71.9z"/>
	<path class="st29" d="M1133.3,71.9h-4.7c-2.2,0-4-1.8-4-4V56.2c4.2,0,8.4,0.1,12.6,0.1v11.6C1137.2,70.1,1135.4,71.9,1133.3,71.9z"
		/>
	<path class="st29" d="M1151.1,71.9h-4.7c-2.2,0-4-1.8-4-4V56.3c2.3,0,4.5,0,6.8,0c1.9,0,3.8,0,5.8,0v11.6
		C1155.1,70.1,1153.3,71.9,1151.1,71.9z"/>
	<path class="st29" d="M1169,71.9h-4.7c-2.2,0-4-1.8-4-4V56.3c4.2,0,8.4-0.1,12.6-0.2v11.8C1172.9,70.1,1171.1,71.9,1169,71.9z"/>
	<path class="st29" d="M1186.8,71.9h-4.7c-2.2,0-4-1.8-4-4v-12c2.4-0.1,4.8-0.1,7.2-0.2c1.8-0.1,3.6-0.2,5.4-0.2v12.5
		C1190.7,70.1,1189,71.9,1186.8,71.9z"/>
	<path class="st30" d="M1222,162.9h-2.1c-2.2,0-4-1.8-4-4v-49c0-2.2,1.8-4,4-4h2.1c2.2,0,4,1.8,4,4v49
		C1225.9,161.1,1224.1,162.9,1222,162.9z"/>
	<path class="st30" d="M1240.5,162.9h-2.1c-2.2,0-4-1.8-4-4v-49c0-2.2,1.8-4,4-4h2.1c2.2,0,4,1.8,4,4v49
		C1244.4,161.1,1242.6,162.9,1240.5,162.9z"/>
	<path class="st30" d="M1259.3,162.9h-2.1c-2.2,0-4-1.8-4-4v-49c0-2.2,1.8-4,4-4h2.1c2.2,0,4,1.8,4,4v49
		C1263.2,161.1,1261.4,162.9,1259.3,162.9z"/>
	<path class="st30" d="M1277.9,162.9h-2.1c-2.2,0-4-1.8-4-4v-49c0-2.2,1.8-4,4-4h2.1c2.2,0,4,1.8,4,4v49
		C1281.9,161.1,1280.1,162.9,1277.9,162.9z"/>
	<path class="st31" d="M1222,162.9h-2.1c-2.2,0-4-1.8-4-4v-13.2c3.3-1.1,6.7-2.3,10-3.5V159C1225.9,161.1,1224.1,162.9,1222,162.9z"
		/>
	<path class="st31" d="M1240.5,162.9h-2.1c-1.2,0-2.3-0.5-3-1.4c-0.6-0.7-0.9-1.6-0.9-2.5v-19.7c3.3-1.2,6.7-2.4,10-3.6v23.2
		C1244.4,161.1,1242.6,162.9,1240.5,162.9L1240.5,162.9z"/>
	<path class="st31" d="M1259.3,162.9h-2.1c-2.2,0-4-1.8-4-4v-26.4c3.3-1.2,6.7-2.4,10-3.7v30
		C1263.2,161.1,1261.4,162.9,1259.3,162.9L1259.3,162.9z"/>
	<path class="st31" d="M1277.9,162.9h-2.1c-2.2,0-4-1.8-4-4v-33.2c3.3-1.2,6.7-2.5,10-3.8v37
		C1281.9,161.1,1280.1,162.9,1277.9,162.9z"/>
	<path class="st30" d="M841.4,28.5c0,1.7-1.4,3-3,3c-1.7,0-3-1.4-3-3c0-1.7,1.4-3,3-3C840,25.4,841.4,26.8,841.4,28.5z"/>
	<path class="st30" d="M865.9,145.7c0,1.7-1.4,3-3,3c-1.7,0-3-1.4-3-3c0-1.7,1.4-3,3-3C864.5,142.6,865.9,144,865.9,145.7z"/>
	<path class="st30" d="M863.6,145.7h-1.5V48.2h-24.5V28.5h1.5v18.2h24.5V145.7z"/>
	<path class="st30" d="M964.8,16.7c-47.4,0-85.9,38.5-85.9,85.9c0,47.4,38.5,85.9,85.9,85.9s85.9-38.5,85.9-85.9
		C1050.7,55.3,1012.2,16.7,964.8,16.7L964.8,16.7z M964.8,190.1c-48.2,0-87.4-39.2-87.4-87.4c0-48.2,39.2-87.4,87.4-87.4
		c48.2,0,87.4,39.2,87.4,87.4C1052.2,150.9,1013,190.1,964.8,190.1z"/>
	<path class="st32" d="M959.3,47.6c24.7-2.6,50.9,8.1,56.4,34.6c0.8,3.7,6.5,2.2,5.7-1.6c-6-28.9-34.8-41.8-62.1-38.9
		C955.5,42,955.4,48,959.3,47.6z"/>
	<path class="st32" d="M1018.9,92.7c0.4,5,0.4,10.1-0.1,15.1c-0.4,3.8,5.6,3.8,5.9,0c0.5-5,0.5-10.1,0.1-15.1
		C1024.5,88.9,1018.6,88.9,1018.9,92.7L1018.9,92.7z"/>
	<path class="st30" d="M842.4,120.7L842.4,120.7l-191.7-0.1c-0.4,0-0.7-0.3-0.7-0.7V66.6c0-0.4,0.3-0.7,0.7-0.7
		c0.4,0,0.7,0.3,0.7,0.7V119l191,0.1c0.4,0,0.7,0.3,0.7,0.7C843.1,120.3,842.8,120.7,842.4,120.7z"/>
	<path class="st19" d="M662.5,105.7V72.2h9v24.2C668.5,99.5,665.5,102.6,662.5,105.7z"/>
	<path class="st21" d="M671.5,119.1l-9,0v-13.3c3-3.1,6-6.2,9-9.3V119.1z"/>
	<path class="st30" d="M671.5,119.4h-9V119l9,0C671.5,119,671.5,119.4,671.5,119.4z"/>
	<path class="st19" d="M714.2,119.1l-9,0v-8.7c3-3.1,6-6.2,9-9.3V119.1z"/>
	<path class="st21" d="M705.2,110.4v-34h9V101C711.2,104.1,708.2,107.2,705.2,110.4z"/>
	<path class="st30" d="M714.2,119.4h-9v-0.4l9,0C714.2,119.1,714.2,119.4,714.2,119.4z"/>
	<path class="st19" d="M781.1,119.1l-9,0V82.3h9V119.1z"/>
	<path class="st30" d="M781.1,119.4h-9v-0.3l9,0V119.4z"/>
	<path class="st19" d="M757.6,119.1l-9,0V65.3h9C757.6,65.3,757.6,119.1,757.6,119.1z"/>
	<path class="st30" d="M757.6,119.4h-9v-0.3l9,0V119.4z"/>
	<path class="st21" d="M691.5,119.1l-9,0V85.2h9C691.5,85.2,691.5,119.1,691.5,119.1z"/>
	<path class="st30" d="M691.5,119.4h-9v-0.4l9,0C691.5,119.1,691.5,119.4,691.5,119.4z"/>
	<path class="st19" d="M735.5,119.1l-9,0v-27h9C735.5,92.1,735.5,119.1,735.5,119.1z"/>
	<path class="st30" d="M735.5,119.4h-9v-0.3l9,0C735.5,119.1,735.5,119.4,735.5,119.4z"/>
	<path class="st19" d="M804.4,119.1l-9,0V98.8h9V119.1z"/>
	<path class="st30" d="M804.4,119.4h-9v-0.3l9,0V119.4z"/>
	<path class="st19" d="M829,119.2l-9,0V74h9C829,74,829,119.2,829,119.2z"/>
	<path class="st30" d="M829,119.4h-9v-0.3l9,0V119.4z"/>
	<path class="st7" d="M719.1,169.8c-2.7,0-4.8-2.1-4.9-4.8C714.2,167.6,716.4,169.8,719.1,169.8z M856.9,169.8L856.9,169.8
		L856.9,169.8z M856.9,169.8L856.9,169.8L856.9,169.8z M856.9,169.8L856.9,169.8L856.9,169.8z M857,169.8
		C857,169.8,857,169.8,857,169.8C857,169.8,857,169.8,857,169.8z M857,169.8L857,169.8L857,169.8z M857,169.8
		C857,169.8,857.1,169.8,857,169.8C857.1,169.8,857,169.8,857,169.8z M857.1,169.8C857.1,169.8,857.1,169.8,857.1,169.8
		C857.1,169.8,857.1,169.8,857.1,169.8z M857.1,169.7c2.5-0.1,4.5-2.1,4.7-4.6c-16.2-0.2-32.3-0.6-48.5-0.9
		c-7.5-0.1-15-0.2-22.5-0.2c-6,0-12,0-18,0.1c-6,0-12,0-18,0c-13.5,0-27-0.1-40.6-0.7l0,0.2v1v-1c0-2.7,2.2-4.9,4.9-4.9h137.8
		c2.7,0,4.9,2.2,4.9,4.9v1C861.8,167.5,859.7,169.6,857.1,169.7L857.1,169.7z"/>
	<path class="st27" d="M856.9,169.8H719.1H856.9z M856.9,169.8L856.9,169.8L856.9,169.8z M856.9,169.8L856.9,169.8L856.9,169.8z
		 M857,169.8L857,169.8L857,169.8z M857,169.8L857,169.8L857,169.8z M857,169.8L857,169.8L857,169.8z M857.1,169.8L857.1,169.8
		L857.1,169.8z"/>
	<path class="st12" d="M857,169.8H719.1c-2.7,0-4.8-2.1-4.9-4.8c0-0.1,0-0.1,0-0.2v-1l0-0.2c13.5,0.5,27,0.7,40.6,0.7c6,0,12,0,18,0
		c6,0,12-0.1,18-0.1c7.5,0,15,0,22.5,0.2c16.2,0.3,32.3,0.6,48.5,0.9c-0.2,2.5-2.2,4.4-4.7,4.6C857.1,169.8,857.1,169.8,857,169.8
		L857,169.8C857.1,169.8,857,169.8,857,169.8L857,169.8C857,169.8,857,169.8,857,169.8L857,169.8z"/>
	<path class="st30" d="M841.4,134H650.6c-0.4,0-0.7-0.3-0.7-0.7c0-0.4,0.3-0.7,0.7-0.7h190.7c0.4,0,0.7,0.3,0.7,0.7
		C842.1,133.7,841.8,134,841.4,134L841.4,134z"/>
	<path class="st30" d="M699.3,165.1h-48.7c-0.4,0-0.7-0.3-0.7-0.7c0-0.4,0.3-0.7,0.7-0.7h48.7c0.4,0,0.7,0.3,0.7,0.7
		C700,164.7,699.7,165.1,699.3,165.1z"/>
	<path class="st33" d="M257.6,257.9c3.6-5.1,7.3-10.1,10.9-15.1c12.9-17.8,26-35.5,39.2-53.1h0c-12.7,16.9-25.3,33.9-37.7,51
		c94,0.3,188.1,0.8,282.1,1.6c83.7,0.7,167.4,1.5,251.1,2.4l-3.4,13.3H257.6L257.6,257.9z M1095.8,257.9l-2.6-9.7
		c74.4,1,148.9,2,223.3,3c114.8,1.5,229.6,3.1,344.4,4.4c-14.9-22.6-29.9-45.1-45-67.5h0c15.7,23.1,31.2,46.4,46.6,69.8H1095.8z"/>
</g>
</svg>
