<?xml version="1.0" encoding="UTF-8"?><svg id="BackButton" xmlns="http://www.w3.org/2000/svg" viewBox="0 0 88.95 88.95"><defs><style>.cls-1{fill:#2edfdf;}.cls-1,.cls-2,.cls-3,.cls-4,.cls-5{stroke-width:0px;}.cls-2{fill:#63f7f7;}.cls-3{fill:#24539d;}.cls-4{fill:#182b52;}.cls-6{stroke:#000;stroke-linejoin:round;stroke-width:.21px;}.cls-5{fill:rgba(46,223,223,.25);}</style></defs><path class="cls-5" d="m9.5,71.95C3.55,64.39,0,54.85,0,44.48,0,19.91,19.91,0,44.48,0c10.28,0,19.74,3.49,27.28,9.34-1.44,1.45-2.88,2.89-4.32,4.34,1.44-1.45,2.88-2.9,4.32-4.34,10.46,8.14,17.19,20.85,17.19,35.14,0,24.56-19.91,44.47-44.47,44.47-14.12,0-26.69-6.57-34.84-16.82l-.14-.18h0ZM62.22,18.51l.24.17c8.14,5.69,13.46,15.12,13.46,25.8,0,16.87-13.28,30.63-29.96,31.41h-.01s-.07,0-.1,0h-.02s-.06,0-.09,0h-.11s-.02,0-.03,0h-.11s-.07,0-.1,0h-.38s-.04,0-.07.01h-.48c-10.48,0-19.76-5.12-25.47-13l-.13-.19c-3.68-5.15-5.84-11.45-5.84-18.26v-.52s0,0,0-.01v-.25c.42-17.01,14.34-30.67,31.44-30.67,6.59,0,12.7,2.03,17.75,5.49h0Z"/><path class="cls-2" d="m9.1,43.37c.64-18.99,16.22-34.19,35.37-34.19,7.53,0,14.5,2.35,20.24,6.36l.21.15c9.04,6.41,14.93,16.96,14.93,28.88,0,17.7-13,32.37-29.98,34.97l-.13.02-.21.03-.21.03-.21.03-.21.03-.21.03-.21.03-.21.02-.21.02.22-.02.22-.03.22-.03.22-.03.22-.03.22-.03.26-.04.21-.03c8.83-1.36,16.59-5.98,22-12.59-4.4-.52-8.77-1.47-13.09-3.01-10.71-3.82-18.63-10.23-24.03-18.17l-.14-.21c-5.98-8.88-8.84-19.66-8.97-30.91-9.54,6.02-16.02,16.44-16.52,28.43v.28h-.01Zm42.35-14.48c-4.3,4.33-8.59,8.67-12.89,13.01,4.29-4.34,8.59-8.68,12.89-13.01Zm6.71-6.76c-1.09,1.1-2.18,2.2-3.27,3.29,1.09-1.1,2.18-2.19,3.27-3.29Z"/><path class="cls-3" d="m44.47,44.91v-.14.14Zm0-.18v-.09.09Zm0-.14v-.11.11Zm0-.14v-.14.14Zm0-.15v-.12.12Zm0-.15v-.13.13Z"/><path class="cls-4" d="m44.47,44.85v-.04.04Zm0-.14v-.04.04Zm0-.15v-.02.02Zm0-.17s0,0,0-.01c0,0,0,.01,0,.01Zm0-.14v-.02.02Zm0-.15h0s0,0,0,0Z"/><path class="cls-1" d="m29.98,50.62c-3.47,3.51-6.92,7.02-10.39,10.53,2.66-2.71,5.33-5.41,8-8.11l2.39-2.42Zm-14.4,14.38c-4.09-5.77-6.48-12.81-6.48-20.41v-.59s0,0,0-.01v-.28c.31-12.24,6.84-22.91,16.54-29.03.13,11.34,3.04,22.2,9.11,31.12l.13.18c5.4,7.85,13.28,14.19,23.9,17.98,4.32,1.54,8.69,2.49,13.09,3.01-6.16,7.53-15.35,12.48-25.72,12.96h-.01s-.07,0-.11,0h-.03s-.07,0-.1,0h-.12s-.02,0-.03,0h-.12s-.07,0-.11,0h-.15s-.07,0-.11,0h-.79c-11.88,0-22.39-5.85-28.81-14.83l-.1-.14h0Z"/><path class="cls-6" d="m50.31,34.41l-.65-1.14-17.86,10.56c-.22.11-.33.3-.33.57s.11.46.33.57l17.86,10.56.65-1.14-17.86-10.56c-.22-.11-.32.08-.32.57s.11.68.32.57c0,0,17.86-10.56,17.86-10.56Zm5.03,17.7l-.65-1.14-5.03,3.41c-.16.11-.26.24-.28.41-.03.16-.01.32.04.49l5.03,9.42,1.14-.65-5.03-9.42c-.05-.11-.14.03-.24.41-.11.38-.11.54,0,.49,0,0,5.03-3.41,5.03-3.41Zm.24-27.2l-1.14-.65-5.03,9.26c-.05.16-.07.33-.04.49.03.16.12.3.28.41l5.03,3.33.65-1.14-5.03-3.33c-.11-.11-.11.04,0,.45.11.41.19.56.24.45,0,0,5.03-9.26,5.03-9.26Zm-32.8,18.92v1.3l9.34-.08,9.82-.08v-1.3l-9.82.08-9.34.08Zm-.33,1.22l32.23,19.89c.22.11.43.1.65-.04.22-.14.33-.31.33-.53v-12.83c0-.27-.11-.46-.33-.57l-13.07-7.23v1.14l13.07-7.15c.22-.11.33-.3.33-.57v-12.58c0-.27-.11-.46-.33-.57-.22-.11-.43-.11-.65,0l-32.23,19.89c-.22.11-.33.3-.33.57s.11.46.33.57Zm.65-1.14v1.14l32.23-19.89-.97-.57v12.58l.33-.57-13.07,7.14c-.22.11-.32.3-.32.57s.11.46.32.57l13.07,7.23-.33-.57v12.83l.97-.57-32.23-19.89Z"/></svg>