<?xml version="1.0" encoding="UTF-8"?><svg id="Shark_left" xmlns="http://www.w3.org/2000/svg" xmlns:xlink="http://www.w3.org/1999/xlink" viewBox="0 0 150 150"><defs><style>.cls-1{fill:rgba(255,255,255,.5);}.cls-1,.cls-2,.cls-3,.cls-4,.cls-5,.cls-6,.cls-7,.cls-8,.cls-9,.cls-10,.cls-11,.cls-12,.cls-13,.cls-14,.cls-15,.cls-16,.cls-17,.cls-18,.cls-19,.cls-20,.cls-21,.cls-22,.cls-23,.cls-24,.cls-25,.cls-26,.cls-27,.cls-28,.cls-29,.cls-30,.cls-31{stroke-width:0px;}.cls-2{fill:#7cb370;}.cls-3{fill:#ccd8d8;}.cls-4{fill:#8a9296;}.cls-5{fill:#faf5e3;}.cls-6{fill:#7d766a;}.cls-7{fill:#527aa2;}.cls-32{clip-path:url(#clippath-2);}.cls-8{fill:#898887;}.cls-33{opacity:.8;}.cls-9{fill:#e5ddd0;}.cls-10{fill:#250000;}.cls-11{fill:#a3a6aa;}.cls-12{fill:#4a4740;}.cls-13{fill:none;}.cls-14{fill:#87847c;}.cls-15{fill:#1a0000;}.cls-34{clip-path:url(#clippath-1);}.cls-16{fill:#808380;}.cls-17{fill:#fff;}.cls-18{fill:#d2c4b2;}.cls-19{fill:#766d62;}.cls-20{fill:#1f5551;}.cls-21{fill:#200000;}.cls-22{fill:#7e7973;}.cls-35{clip-path:url(#clippath);}.cls-23{fill:#433e33;}.cls-24{fill:#165e57;}.cls-25{fill:#77a061;}.cls-26{fill:#c1ae97;}.cls-27{fill:#e2d5be;}.cls-28{fill:#cfbda2;}.cls-29{fill:#fcf1df;}.cls-30{fill:#496137;}.cls-31{fill:#746b5b;}</style><clipPath id="clippath"><circle class="cls-13" cx="245" cy="75" r="75"/></clipPath><clipPath id="clippath-1"><circle class="cls-13" cx="233.11" cy="155.29" r="78.4"/></clipPath><clipPath id="clippath-2"><circle class="cls-13" cx="75" cy="75" r="75"/></clipPath></defs><g class="cls-35"><path class="cls-1" d="m373.1,152.75c0,77.32-62.68,139.99-139.99,139.99s-139.99-62.68-139.99-139.99S155.8,12.76,233.11,12.76s139.99,62.68,139.99,139.99Z"/><g class="cls-34"><path class="cls-2" d="m158.65,116.57c.11-.65.45-.48.79-.19.03-.1.13-.17.16-.27.49.74.41-.24.39-.58-.53.11-1.16-.27-1.71-.61-.21-.12-.99-.42-1.09-.66-.1-.23.18-.6.05-.92-.31-.76-.51-1.91-1.21-2.3-.3-.16-.56-.6-.78-.25-.1.16-.64-.23-.8-.31.19.3-.16.39-.1.58.07.21.15.41.22.62.16.46.32.92.49,1.38-.32.13-.5.35-.62-.03-.15-.42-.29-.84-.43-1.27-.2-.59-1.19-.62-1.62-.55.25.26.49.52.73.77-.16-.04-.72-.28-.81-.13-.23.39-.25.36-.68.36.11-.15.22-.3.33-.44-.29-.14-1.11-.73-1.39-.65-.19.05-.26.52-.48.54-.23.02-.46.04-.69.06.38-.31.77-.72.22-1.04-.4-.23-.58-.07-1.02.1-.94.35-1.55.63-2.35,1.27.12.02.23.15.35.17-.31.29-.82.55-.74,1.08h.79c-.06.08-.07.22-.12.3.55-.02,1.11-.04,1.66-.06-.57.26-1.15.51-1.73.77.35.34.45.54.89.54.58-.01,1.17-.02,1.75-.02.86,0,1.57.19,2.41.4.58.15-.36.32-.57.32-.45,0-.91-.12-1.36-.18-.71-.09-1.61.3-2.31.45.41,1.4,1.76,1.18,2.88,1.23-.07.7.09,1.07.74,1.02.79-.06,1.58-.12,2.37-.19.54-.04.74-.42,1.28-.51.34-.06.46-.09.73-.3.23-.18.24-.47.56-.37-.05.09-.04.23-.09.33.38.08.76.16,1.14.23-.07.05-.13.13-.21.17.64,0,1.23.35,1.87.29.16-.02.8-.22.8-.39,0-.29-.4-.22-.14-.59-.43-.12-.7.13-1,.42,0-.31.07-.56-.16-.79.1.01.22,0,.31.04.07.07.19.12.28.17h0Z"/><path class="cls-2" d="m152.69,105.46c.28.17.57.35.85.52-.19.08-.38.16-.57.23.18.08.92.26.89.48-.07.45-.5.24-.87.22-.19-.01-.99.07-1.04-.15-.12-.51-.18-.46-.65-.41.07-.04.15-.08.23-.13-.31-.24-.69-.75-1.08-.68-.71.13-.45-.15-1.03-.38-.11-.04-1,.04-1.01.25,0,.21.72.3.89.35-.59-.04-1.01-.12-1.55.12v.29c.37.22,1.03.05,1.44.04-.19.13-1.87.03-1.83.45.04.39,1.46-.04,1.64-.09-.54.45-1.67.12-2.02.78.47.15.67.21,1.15.09-.02.08-.04.15-.06.23.19.06.38.12.58.15-.14-.41.31-.34.38.06.49-.3.58-.34.74-.94.37.12.22.39.15.71.28-.02.94.11.98-.29.17.41.86.21,1.16,0-.57.61-1.75.71-2.56.99.97.63,1.38.43,2.42.05.58-.21,1.16-.42,1.75-.63.34-.12.52.2.84.17.16-.01.18-.3.45-.3h.83c.36,0,.52-.44.61-.82.11-.48.06-.94-.57-.85-.77.11-.13.33-.43.72-.11-.4-.25-.46-.59-.57-.22-.07-.26-.48-.45-.63-.38-.3-.09-1.2-.86-.88-.26.37-.47.6-.82.87h0Z"/><path class="cls-2" d="m162.25,139.53c-.16-.32-.93-1.07-.3-1.21-.55-.14-.67,0-.46-.74.12-.44.64-.17.92-.05-.36-.26-.36-.39-.12-.84.03.02.15.12.18.15-.17.06-.28.18-.32.36.16-.03.19,0,.3-.14l.08.03c-.34.2.43,1.89.59,2.3.08.22.22.69.43.87.2.17-.05.51.09.81-.06-.04-.13-.04-.2-.07.02.19-.19.58-.29.24-.1-.35-.04-.75.25-.95-.08.05-.17.05-.29.15.04-.13.25-.46.13-.52-.17-.08-.3.07-.37.22.03-.24.1-.57-.15-.66-.02.09-.03.08-.08.15.01-.09.03-.16.05-.25-.19.11-.16-.04-.21.28-.07-.04-.15-.08-.22-.12Zm-8.73-13.06c-.08-.68-1.68-.32-1.84.27.48-.3.93-.66,1.44-.48-.08-.01-.16-.01-.24,0-.06,0-.12,0-.18,0,.15.11.33.12.51.1-.19.04-.39.09-.57.14.19.05.22.09.43,0-.23.26-.41.14-.68.21-.31.08-.47.24-.74.48.06,0,.12,0,.18-.01-.21.19-.47.53-.71.64-.43.2-.66.08-1.06.43.21.41-1.04.6-1.36.55-.51-.08-1.35-.18-1.67-.63.13-.01.24.02.36.06.11.03.22.06.35.06,0-.04-.02-.09-.03-.13.25,0,.49.17.69,0-.04-.04-.08-.07-.12-.1.26-.06.18-.15.32-.37.09-.13.19-.12.3-.1.06,0,.13.02.2,0,.62-.15-.39-.5-.2-.95-.11.02-.76-.28-.64-.38.07-.06.61.17.65.25.16.3.74.16.78.28.16.43.71.45,1.05.41.35-.04.48-.11.76-.39.15-.15.28-.43.47-.58.5-.4,1.33-.24,1.84-.02-.09.09-.17.22-.28.29h0Zm-6.65-4.48c-.11.29-.42.23-.77.17-.33-.06-.69-.11-.94.14.2.04.37.18.44.39-.28-.09-.54.13-.78.35-.28.26-.54.51-.81.27.09-.07.3-.07.38-.15.09-.08.13-.25.32-.38.49-.32-.13-.5-.47-.27-.21.14-.52.74-.76.63-.33-.15-.7.03-1.03-.22.24-.04.75-.09.45-.45.13-.1.32-.22.51-.27-.09-.17-.25-.29-.4-.4.13-.04.31-.02.48,0,.28.04.57.07.71-.16-.44-.28-.91-.35-1.41-.26.05.08.04.08.08.16-.3-.09-1.04-.09-1.33.02.02.05.04.08.07.14-.02.01-.15.11-.2.14-.7-.46.27-.51.5-.58.44-.15.9-.21,1.34-.36.41-.14.82-.28,1.22-.44.65-.26.81-.19,1.48.05-.32.15-.9.26-1.03.65.45.2.65.17,1.14.1.36-.06.61-.5.97-.46-.1.06-.16.18-.25.24.1,0,.21.09.31.1-.06.17-.13.33-.2.5-.08.2-.31.01-.33.36.09,0,.2,0,.29-.03Zm21.02,22.4c.35-.15.7-.31,1.05-.46.29-.13.11-.51.53-.58-.04.09-.06.19-.11.28.24-.1.2-.4.44-.53-.01.17-.06.28-.14.4.25-.15.5-.32.21-.57.29-.02.53.14.8.26.09.04.18,0,.27-.04.14-.05.28-.11.41.09.39.6.39.94,1.16.81-.19.54.12.34.23.71.04.13-.16.22-.06.36.08.12.18.22.1.36-.08.15.99.46,1.18.5.52.11,1.15.12,1.65.23.61.13.57.94.96,1.28-.34-.19-.23.16-.26.17-.09.02-.2,0-.31-.04-.16-.04-.33-.09-.44.02-.04-.1-.03-.08-.13-.15.09-.09.07-.12.12-.23-.15.02-.2-.07-.24-.16-.05-.11-.1-.23-.33-.11.57.27.17.71.04,1.09-.06.18.04.54-.07.66-.18.2-.36.4-.54.6-.05-.25-.06-1.09-.38-1.1-.06,0-.19.09-.34.18-.2.13-.42.26-.46.12-.04-.13.29-.48.34-.52.26-.17.19-.59.05-.84.07,0,.06,0,.13.02-.1-.44-.45-.32-.69-.58-.21-.22-.95-.3-.59.17-.42.04-.33.44-.55.67.02-.14,0-.3.01-.44-.22.48-.79.6-.64,1.38.13.7.25,1.17-.09,1.86-.65,1.31-.98-.38-1.02-1.03-.03-.42.18-.87.28-1.26.08-.3.37-.75.33-1.03-.26.17-.4.77-.72.71.07-.38.53-1.09.8-1.37,0,.07.02.14.03.21.11-.1.2-.1.31-.17-.04.06-.08.12-.12.18l.08.06c.26-.46,1.05-.71,1.43-.26.11-.32.4-.16.66-.12-.15-.15-.22-.43-.39-.51-.22-.1-.54-.01-.43-.36-.19.03-1.31.42-1.41.36-.26-.15-.43-.02-.62-.28-.18-.26-.44-.24-.71-.09.09-.29.33-.56.59-.64-.29-.23-.72.06-1.17.35-.44.28-.91.56-1.29.36.03-.07.06-.14.09-.21-.32.11-.64.32-.97.15.31-.3.62-.61.94-.91h0Zm8.99,4.14c.45-.1.99-.35,1.42-.16.24.1.95-.44,1.29-.57-.17.15-.33.29-.5.43.59.24-.57,1.25-1.12.72-.15-.14-.49-.05-.8.04-.48.14-.87.29-.3-.46h0Zm.29,1.02c-.53.4-.93.68-1.54.9-.61.22-.91.57-1.62.51.04-.06.08-.11.12-.16-.17-.05-.34-.1-.52-.15.2-.38.4-.67.66-1.01.06.24.09.11.21.29-.2.06-.42.19-.46.45.34.17.5-.07.75-.29.37-.33.42-.35.9-.33.32.01,1.4-.25,1.4-.58.15.11.12.2.12.38h0Zm33.68,43.5c-.03-.11-1.01-.12-1.16-.14-.78-.56-1.7-1.53-2.58-1.85-1.06-.39-2.13-.77-3.19-1.15-1.06-.39-2.13-.77-3.19-1.15-.18-.07-.45-.58-.57-.74-.5-.65-1-1.3-1.49-1.95-.49-.64-1.1-1.93-1.88-2.13-.83-.2-2.25-.22-2.91-.84-1.03-.99-2.06-1.98-3.09-2.97-.55-.53-1.28-.54-1.99-.71-1.33-.31-2.64-.61-3.97-.92-.5-.12-1.43-.56-1.94-.38-.56.2-1.12.4-1.68.6-.2.08-.97.2-1.09.41-.4.67-1.42,1.79-1.39,2.62-.49-.54-.75-.91-1.42-1.11-.69-.21-1.03.06-1.68.33-1.06.43-2.48-1.47-2.33-2.64.03-.24.24-.46.28-.71.07-.43.13-.86.2-1.29.1-.67-.27-1.08-.85-1.33-.27-.12-.67-.1-.96-.14-.13-.02-.25.03-.36.08-.11.05-.23.1-.36.08-.28-.04-.55-.04-.81-.04-.37,0-.73,0-1.09-.12.19-.18.66-.7.53-.98-.15-.31.35-1.15-.08-1.17.06-.12.14-.29.23-.39-.04.22.02.44.17.59.07-.35.13-.69.27-1.02-.04.03-.09.06-.13.09l-.04-.06c.09-.06.16-.17.25-.24-.23,0-.18-.1-.28-.15.2-.02.58-.85.7-1.12.23-.56-.31-.55-.71-.55-.1,0-.19,0-.26,0-.25-.03-1.04.16-1.28.26-.58.23-.53.87-.69,1.42-.09.33-.22.41-.46.63-.1.09.07.26,0,.32-.09.08-.25.12-.36.17-.06.02-.13-.04-.21-.1-.08-.06-.16-.11-.26-.1-.29.03-.49.07-.76.17-.28.1-.57.21-.85.32-.12.04-.35-.31-.49-.36-.69-.2-.85-.64-1.27-1.28-.71-1.08-.88-2.01-.89-3.31,0-.52.21-1.02.35-1.51.05-.17.2-.48.19-.67-.02-.28-.39-.56-.38-.83,0-.9,1.5-2.01,2.12-2.26.38-.16,1.01-.61,1.41-.46.21.08.52.29.74.21.39-.14.53.1.87.35.11.09.21.06.3.03.12-.04.22-.08.33.16,0-.16.09-.23.05-.43.21.13.64.24.53.53.15.03.35-.06.3-.29-.01-.08-.45-.23-.54-.27.8-.39-.27-.52-.56-.55.17-.14.52-.14.87-.14.49,0,.98,0,1.03-.37.08.47.42.4.76.32.18-.04.37-.08.51-.04.25.07.53.34.75.49.24.16.52-.03.78-.12.49-.16.71.41,1.12.69.47.32.04,1,.18,1.47.05-.05.11-.1.17-.14-.09.37.06.55.2.85.12.27.26.5.35.85,0,.04.47.45.55.57.25.36.44.07.65-.15.29-.28.18-1.31.07-1.7-.22-.76-.46-1.41-.79-2.13-.19-.41-.32-1.13-.12-1.54.43-.87.56-1.08,1.35-1.54.23-.14.38-.4.55-.62.19-.24.54-.17.64-.32.14-.2.34-.67.54-.79.05-.03.12,0,.19.04.07.04.15.07.22.04.16-.09.33-.18.49-.27-.1-.06-.19-.04-.27-.02-.12.03-.23.06-.32-.15.17,0,.23-.09.37-.13-.09-.05-.16-.14-.25-.19.16-.03.77-.04.79-.22.06-.37-.28-.35-.57-.34-.05,0-.11,0-.15,0,.34-.11.58-.07.66-.46.11-.48-.29-.33-.38-.62-.05-.16.16-.63.08-.8-.12-.21-.47-.28-.62-.5.2.05.39.16.56.29-.16-.72-.34-1,.25-1.42.24-.18.02.34,0,.39-.11.25-.13.52-.18.8.36-.1.27.26.45.38-.1.26-.23.48-.24.76l.07.02c.1-.38.43-.82.62-1.2.18-.37-.32-.91-.35-1.32.11.33.6.52.44.81.25-.22,1.24-1.53.56-1.6.13-.23.45-.22.71-.22.08,0,.16,0,.23,0,.34-.02.56-.17.87-.34-.07,0-.13,0-.2,0-.06,0-.12-.01-.17,0,.05-.03.09-.08.14-.11-.45.07-.81.29-1.27.35.64-.43.97-.46,1.71-.52.23-.01.18-.48.34-.44.31.08.67.26.97.05-.06-.08-.13-.19-.21-.24.03.06.05.13.08.19-1.01.11-.27-1.24-.12-1.65.11-.28.12-.46.37-.56.38-.14.57-.19.77-.6.05.05.1.11.16.16.17-.34,1.47-.07,1.23-.83.16,0,.43.08.55-.06.13-.15.19-.12.25-.1.04.02.09.04.18-.01.3-.2.77-.68,1.14-.58-.11.17-.26.34-.26.51.27-.19.67-.08.99-.07-.25.22-.41.54-.67.31-.13-.12,0-.36-.28-.16-.4.29-1.59.9-1.1,1.61.14.05.37.37.6.15.35-.33.63-.83.95-1.08.08-.07.14,0,.2.06.06.07.13.13.23.04.15-.13.34-.18.52-.26.47-.19.94-.38,1.41-.57-.09-.08-.13-.22-.23-.29.42.07.76-.15,1.13-.31.28-.12-.19-.63-.52-.37.1-.35.36-.75-.09-.92-.23.36-.92,1-.58,1.44-.08.05-.25.1-.34.1-.02-.09-.04-.18-.05-.27-.5.37-1.06.13-1.64-.15.04-.03.09-.07.13-.1-.4-.1-.95-.52-.76-1.04-.05.01-.11,0-.17,0-.07,0-.14-.01-.21.01.22-.17.39-.41.45-.69-.25-.08-.44-.02-.68.04-.02,0-.38-.39-.53-.43.18-.13.34-.07.49-.02.15.06.3.11.47-.03.25-.22.93-.47.43-.81.08.04.17.05.25.1-.48-1.22-2.33-.18-3.02.15-.99.48-1.53,1.53-2.52,2.01.58-.43.85-1.06,1.34-1.59.27-.29.55-.71.87-.93.2-.14.91-.21.97-.47.16-.8.69-.79,1.27-.78.14,0,.28,0,.43,0,.85-.05,1.6-.03,2.45.05.83.09,1.29,0,1.86-.62.27-.3.43-.53.79-.65.37-.12.69-.05,1.01-.13.2-.05.8-.39.93-.57.28-.43-.14-.56,0-.93.07-.19.33-.83,0-.95-.42-.14-.74-.4-1.01.1-.23-.28.18-.25.05-.62-.1-.28-.57-.31-.8-.3.11.11.16.17.35.19-.32.02-.67.1-.96.27-.12.06-.04.17-.24.25-.22.09-.33.11-.48.31-.17.23-.28-.41.05-.51.33-.1.92-.13,1.1-.46-.27.08-.6.26-.84.17.41-.13.81-.3,1.23-.36.74-.11.07-.43-.27-.67-.5-.34-.75-.35-1.35-.38-.32-.02-.09-.27-.23-.51-.12-.2-.46-.37-.64-.51-.07-.06-.46-.29-.48-.39-.05-.21.35-.53.33-.75-.03-.41-.65-1.12-.86-1.48-.37-.64-.89-2.24-1.67-2.28.04-.18.08-.36.12-.54-.34-.08-.83.59-.77.93.09.48-.24.9-.44,1.33-.08-.09-.24-.1-.32-.19-.2,1.06-.79.66-1.37.26-.53-.36-1.06-.72-1.3-.01-.29-.27.25-.65.44-.89-.05.01-.11,0-.16,0-.05,0-.1-.01-.15,0,.15-.36.03-.72-.03-1.08-.07-.4.05-.49.26-.84-.36-.17-.62-.36-1-.3-.48.07-.72-.26-.83-.69-.07-.29-.68-.55-.89-.71-.45-.32-.58-.58-1.06-.35-.44.21-.86.07-1.29-.06-.32-.1-.64-.2-.98-.16-.43.06-.69.2-.56.61.2.66.19.79-.02,1.46-.12.37.11.81.21,1.17.19.67.15.61-.36,1.06-.46.42-.34.38.03.89.26.37.58.65.89.95.46.45.37,1.86,0,2.38-.4.58-1.52.99-2.1,1.37.17.27.58.68.63.99.1.59.2,1.18.29,1.76.09.56-1.02,1.76-1.54,1.11-.53-.67-1.45-1.36-1.41-2.28.03-.66.06-1.32.08-1.98,0-.19-.9-.18-1.07-.2-.47-.05-.95-.1-1.42-.15-.32-.03-.84-.58-1.1-.77-.86-.6-1.52-.92-2.49-1.27-.31-.11-.69-.35-1.03-.27-.64.14-.79.38-1.02-.28-.13-.36-.3-1.32-.57-1.57-.25-.22-.96-.23-1.29-.31.18-.82.34-1.64.51-2.46.15-.72.75-1.36,1.13-1.96.08-.12.32-.66.47-.65.47.02.67.02,1.09-.18.4-.19.03-.54-.21-.67-.45-.25-.53-.26-1.03-.14.07-.06.12-.15.18-.21-.31-.15-.63-.29-.94-.43.47.13.95.25,1.42.39.75.23.8.2,1.46-.27.22-.15.46-.06.71-.04.2.01.45-.18.64-.27.32-.15.64-1.04.83-1.36-.47-.06-1.2.01-1.63-.21-.6-.3-1.19-.6-1.79-.9.86.04,1.54,0,2.32.41.49.26.67.49,1.15.22.33-.19.51-.59.73-.92-.2-.12-.41-.23-.61-.36.13-.3.44-.28.72-.26.08,0,.16,0,.23,0,.15,0,.03.37.18.4.22.05.43.1.65.15-.03-.09-.06-.17-.08-.26.21.11.42.22.64.33-.14-.31-.27-.62-.41-.93.27.25.51.7.84.49.34-.21.97-.43,1.23-.75.39-.5.23-.76-.13-1.1-.33-.31-.47-.7-.67-1.13.06,0,.14,0,.23,0,.25,0,.56,0,.68-.13.24-.29-.12-.56.11-.98-.54-.12-.67-.2-1.05-.63-.2-.24-1-.21-1.29-.26-.44-.08-.72-.21-.82.3-.1.5.15.7.42,1.12-.67.3-.68.26-.68,1.06,0,.16-.33.36-.44.46-.22.19-.18.37-.2.67-.1,1.07-2.3-.91-1.31-1.46,0,.09.05.2.05.29.48-.16.24-.61.15-1-.05-.23-.7-.48-.89-.6-.3-.18-.44.49-.45.65-.04.43-.18.61-.42.96-.4-.26-.33-.37-.22-.82.11-.46-.07-.47-.41-.76.17-.12.34-.23.51-.35-.35-.17-.62-.45-.96-.22-.32.23-.61,0-.96-.14.35-.24.7-.48,1.06-.71-.29-.35-1-.88-1.09-1.33-.13-.69-.54-1.33-1.27-1.2-.09-.46,1.55-1.39.12-1.6.45,0,1.48.22,1.9-.04.47-.29.93-1.33,1.26-1.81-.79-.25-1.36-.31-2.19-.31-.59,0-2.11-.27-1.25.68-.24,0-.74-.17-.76.14-.02.39-.15.89.03,1.24.24.46.25.66.27,1.2.02.6-.05.56-.53.87.26-.03.47.08.38.39-.49-.2-.78-.11-.79.53,0,.67-.02,1.05.22,1.65.12.29,1.04.46,1.31.57.12.05.26.03.4,0,.25-.04.47-.07.49.28-.5.04-1.01.15-.93.86.22-.11.45-.22.68-.33.05.26.18.51-.01.69-.27.26-.48.59-.84.65-.88.14-.61.77-.39,1.49-.17-.12-.79-.38-.86-.58-.07-.19.21-.83.27-1.04-.43-.11-.93-.35-1.36-.35-.7,0-.73.3-.92.93-.09.31-2.3.06-2.71-.1-.48-.18-.93-.34-1.43-.45-.24-.06-.42-.02-.54-.27-.09-.18-.2-.58-.37-.67-.6-.34-.69-.28-1.35-.06-.63.21-.92.14-1.1.84.81.02,1.38-.23,2.15-.54.35.55-1.23.6-1.44.96-.3.53-.06.4.02.95.02.13-.13.26-.09.4.05.23.11.46.16.69-.35-.53-.71-1.06-1.07-1.59-.25-.38-.88-.28-1.24-.25-.78.06-1.55.12-2.33.18-.47.04-.95-.21-1.4-.35.1-.04,1.44-.51,1-.81-.59-.4-.95-.72-1.63-.75.02.08.05.15.07.23-1.07-.28-2.24-.45-3.26-.89-.49-.21-1.2-.72-1.74-.65-.15.02-.31.04-.45.07-.15.02.03.34-.05.41-.21.17-.71.18-.98.25.07-.15.32-.48.17-.57-.42-.24.12-.38-.19-.7-.5.45-.59.68-.8,1.37-.67-.65-1.29-1.31-1.9-2.02-.35.29.13.35-.07.58-.24.28-.48.56-.72.84-.09-.41-.72-.09-1.38.24-.57.28-1.17.56-1.46.36.8-.43,1.61-.85,2.41-1.27-.33-.52-2.53.82-3.02,1.04-.14.06-.32-.07-.5-.21-.21-.16-.41-.31-.55-.17-.16.15-1.12,1.33-1.27,1.26-.85-.38-1.71-.91-2.62-1.07-1.39-.24-2.77-.49-4.15-.73-.94-.17-1.88-.28-2.82-.4-.63-.08-2.51-.03-2.71-.6-.28-.78-2.09-.32-2.72-.65-.72-.38-.68-.37-1.33.15-.47.38-.95.38-1.53.47-.89.15-1.84.55-2.53,1.17-.4.37-.69.86-1.01,1.31-.21.31-.65.3-1.04.29-.12,0-.24,0-.34,0-.02,0-.05,0-.08,0-.11,0-.27,0-.3.07-.04.14-.3.69-.25.82.11.28,1.28.59,1.55.72.4.19.4.84.8.97.51.18.94.24,1.47.3-.24.17-.17.37.05.55-.08.03-.16.06-.23.09.2.09.4.17.6.26-.43.3-.59.52-1.08.4-.56-.15-1.12-.04-1.09-.77-.64.04-.96.11-1.52.43.05.07.11.14.16.2-.73,0-1.2.31-1.86.66.31.44.91.51,1.36.66-.12.02-.23.14-.34.18.51,1,1.54.82,2.46.69.18-.02.3.01.41.05.17.05.3.11.58-.05.36-.21.87-.77,1.08-.14-.15.09-.3.17-.45.26.33.37.61.46.42.94-.15.38-.36.37-.62.36-.15,0-.33-.01-.51.06-.49.2-.58.65-1.14.6-.67-.06-.63.1-1,.73-.19.32-.5.61-.41.99.1.45.13,1.22.36,1.62.21.36.82.68,1.14.94.12.09.97-.53,1.13-.62.11.66.23,1.32.34,1.98.32-.14.65-.28.97-.43.26-.11.68.36.9.52.64.47,1.31-.09,1.93-.43.19.29,0,.39-.18.58-.29.29-.3.4-.38.84-.1.53-.96.83-.79,1.3-.5-.35-1.42.67-1.66,1.11-.35-.61-1.5.5-1.89.74-.52.32-.99.44-1.45.88.5.12.82.03,1.28-.27.21-.14.07-.29.36-.32.23-.03.46-.04.68-.1.54-.16,2.46-.51,2.51-1.14.06-.69,1.53-1.07,1.99-1.4.93-.69,1.64-1.22,2.35-2.17-.24-.06-.47-.12-.71-.18.48-.85.78-1.49,1.53-2.05.86-.65,1.29-.87,2.31-1.07-.17.12-.34.25-.51.38.15.13.3.27.45.4-.65-.01-.93,0-1.51.32-.25.14-.54,1.27-.15,1.38-.25.07-.38.26-.27.52.51-.17,2.82-.8,2.64-1.4-.22-.72.07-.87.63-.92.64-.06.79.06,1.36.41.41.25.96.76,1.42.87.21.05.44,0,.66-.07.26-.06.52-.13.75-.04,1.11.41,1.98.76,2.97,1.45.4.28.93.53,1.29.89.43.43.75,1.14,1.09,1.65.35.53.47.67,1.02.93.39.18.79,1.17,1.04,1.55.19.3.44.07.63-.16.14-.17.25-.33.29-.3.79.5.86.42.78,1.41-.1,1.08,1.35,1.59,1.75,2.55.36.84.48.87,1.27,1.21.48.21.96.21,1.41.53.51.36.91.68,1.34,1.14.57.62.53.72.51,1.61-.6-.23-1.16-.4-1.78-.55.33,1.01.58,1.67.53,2.73-.06,1.09-.12,2.18-.17,3.27-.06,1.31-.09,2.11.27,3.35.28.95,1.07,1.49,1.47,2.36.27.59.54,1.18.82,1.77.25.54.44.5.99.65.68.19,1.6.81,1.88,1.52.25.65.5,1.3.76,1.95.15.38.24.99.6,1.16.55.27.71.53,1.07,1.07.41.61-.33.68-.64.71.26.24.53.47.79.7.23.21.43.12.65.3.22.18.67.39.7.71.01.2-.04.93.11,1.04.55.4,1.16.78,1.51,1.41.17.3.52.21.57-.19.04-.3-.35-.65-.54-.8-.06-.05-.13-.02-.2,0-.12.04-.24.08-.25-.3-.02-.39-.17-.7-.31-1.05-.12-.34-.19-.69-.45-.92-.35-.3-.46-.42-.64-.86-.31-.76-.75-1.25-1.27-1.87-.34-.41-.45-1.46-.61-2,.48.22.95.44,1.43.65.23.11.45,1.45.53,1.73.15.5.56.68.95.98.46.36.76.77,1.13,1.25.09.11.37.36.34.52-.03.15-.17.48-.06.59.52.48,1.03.95,1.54,1.43.32.3.51.54.76.92.21.32.97,1.12.85,1.53-.18.63-.45.89,0,1.34.48.49.95.97,1.43,1.46.18.19.62.26.85.35.73.3,1.47.59,2.2.89.91.37,1.88,1.06,2.84.77.42-.13.92-.5,1.27-.15.53.53,1.08,1.06,1.61,1.59.61.6,1.9.66,2.68.87,1,.28,1.43,1.01,2.15,1.84.28.33.17.86.39,1.21.26.41,1.01.77,1.39,1.05.18.14.37.28.55.42.06.04.12,0,.19-.04.06-.03.13-.07.21-.05.34.06.94.67,1.06.31.28.66.25.59.86.33-.07-.12-.38-.48-.27-.59.21-.19.38-.38.62-.51.31-.17.31-.19.62-.01.42.24.45.18.32.69-.1.42.85.81.75,1.24-.04.16.08.62.04.65-.24.24-.04.41,0,.73.2,1.41-.47,2-1.25,3-.35.45-.7.9-1.05,1.35-.23.29-.27,1.11-.36,1.47-.18.74-.82,2.05-.44,2.76.61,1.15,1.23,2.3,1.84,3.45.75,1.4,1.5,2.79,2.24,4.19.38.7.55,1.13,1.16,1.56.61.42,1.21.85,1.82,1.27.31.22,1.01.51,1.22.85.2.32.15,1.23.2,1.6.07.57.25,1.23.22,1.81-.03.68-.27,1.43-.4,2.1-.3,1.57-.6,3.14-.89,4.71-.49,2.59-.98,5.17-1.47,7.76-.39,2.05-.48,4.22-.72,6.29-.24,2.16-.49,4.31-.73,6.47-.16,1.45.74,2.72,1.29,4.03.23.55.31,1.11.82,1.36.98.47,1.96.95,2.95,1.42.68.33.81.51,1.48.2.83-.38,1.67-.76,2.5-1.13-.92-.02-1.4.09-2.12-.52-.41-.35-.82-.7-1.23-1.06-.18-.14-.17-.67-.21-.9-.1-.6-.72-2.27-.17-2.59.55-.32.71-.35.91-.99.13-.42.53-.75.8-1.08.31-.37.4-.55.54-1.03.15-.49-.56-.23-.78-.53-.17-.24-.74-.77-.59-1.05.24-.44.33-.85.79-.96.54-.13.62-.08.86-.6.24-.53.49-1.05.73-1.58.12-.27-.35-.75-.41-1.04-.09-.38.02-.92.03-1.33.8.4,1.25.63,2.02.1.17-.12.03-.59.14-.88.18-.46.06-.67-.09-1.15.77.15,1.14.17,1.89-.03.79-.21,1.44-.2,1.93-.91.17-.25.61-.68.67-.99.06-.33-.2-.98-.27-1.32-.14-.69-1.46-.77-1.25-1.57.36.11,2.68,1.11,2.85.9.74-.95,1.48-1.9,2.21-2.85.8-1.03,1.61-2.07,2.42-3.11.19-.25.14-.78.18-1.08.03-.26.03-1.71.22-1.84.97-.66,1.94-1.33,2.91-2,.22-.15.71-.14,1.11-.12.18,0,.35.01.47,0,.4-.02.58-.58.8-.92.5-.77,1.51-1.78,1.58-2.75.1-1.47.21-2.95.32-4.42.04-.59.44-.95.76-1.43.69-1,1.39-2,2.07-3,.56-.82.54-.8.31-1.82-.11-.47-.22-.95-.33-1.42h0Z"/></g></g><circle class="cls-7" cx="75" cy="75" r="75"/><g class="cls-32"><g class="cls-33"><path class="cls-10" d="m13.27,53.07c0,1.17,5.2,2.12,11.62,2.12s11.62-.95,11.62-2.12-5.2-2.12-11.62-2.12-11.62.95-11.62,2.12Z"/><path class="cls-17" d="m.34,15.01c2.51,0,4.7,1.32,5.94,3.3,1.56-1.24,3.53-1.98,5.68-1.98,5.06,0,9.16,4.1,9.16,9.16v.1c2.7.5,4.75,2.86,4.75,5.71,0,1.63-.67,3.1-1.75,4.15,2.52.64,4.38,2.91,4.38,5.63,0,1.43-.52,2.74-1.38,3.76,2.19,1.17,3.68,3.48,3.68,6.14,0,3.85-3.12,6.97-6.97,6.97s-6.97-3.12-6.97-6.97c0-2.08.92-3.95,2.37-5.22-1.44-1.06-2.37-2.76-2.37-4.68v-.21c-.78.41-1.68.64-2.63.64-3.21,0-5.81-2.6-5.81-5.81,0-.58.09-1.15.25-1.68-2.54-.98-4.54-3.06-5.4-5.66-.89.41-1.88.65-2.93.65-3.87,0-7-3.13-7-7S-3.53,15.01.34,15.01h0Z"/><path class="cls-3" d="m20.56,51.38c-.02-1.46.36-3.17,1.38-5.13-3.05-3.16-3.54-4.68-3.22-7.58-.77.08-1.54.16-2.29.16-2.59,0-4.95-.91-6.55-5.49-3.8-2.74-5.4-6.31-4.51-10.67-2.51.87-4.94,1.48-6.94,1.48-2.54,0-4.41-.97-4.95-3.61-.1.48-.16.97-.16,1.47,0,3.87,3.13,7,7,7,1.05,0,2.03-.24,2.93-.65.86,2.6,2.85,4.68,5.4,5.66-.16.53-.25,1.09-.25,1.68,0,3.21,2.6,5.81,5.81,5.81.95,0,1.85-.23,2.64-.64v.21c-.01,1.92.92,3.62,2.36,4.68-1.45,1.28-2.37,3.14-2.37,5.22,0-.37.04-.73.09-1.08,1.05.64,2.29,1.12,3.61,1.47h0Z"/><path class="cls-11" d="m24.89,55.19c1.64,0,3.19-.06,4.61-.17.58-.81.98-1.75,1.17-2.77-.57.02-1.23.04-1.95.04-2.4,0-5.45-.18-8.16-.9.02,1.5.45,2.74,1,3.72,1.05.06,2.17.09,3.33.09h0Z"/><path class="cls-4" d="m21.57,55.1c-.56-.98-.99-2.22-1-3.72-1.32-.35-2.56-.83-3.61-1.47-.05.35-.09.71-.09,1.08,0,1.4.41,2.7,1.12,3.79.84.11,1.76.21,2.75.28.27.02.55.04.84.05h0Z"/><path class="cls-29" d="m13.27,53.07c0,1.17,5.2,2.12,11.62,2.12s11.62-.95,11.62-2.12c0,0-1.64,35.59,3.58,54.55-5.2,5-15.2,4.52-15.2,4.52,0,0-10,.48-15.2-4.52,5.21-18.96,3.58-54.55,3.58-54.55Z"/><path class="cls-5" d="m13.27,53.07c0,1.17,5.2,2.12,11.62,2.12s11.62-.95,11.62-2.12c0,0-1.64,35.59,3.58,54.55-5.2,5-15.2,4.52-15.2,4.52,0,0-10,.48-15.2-4.52,5.21-18.96,3.58-54.55,3.58-54.55Z"/><path class="cls-9" d="m36.29,69.33c-2.89.54-6.92,1.45-11.4,1.45s-8.51-.91-11.4-1.45c.09-9.35-.23-16.26-.23-16.26,0,1.17,5.2,2.12,11.62,2.12s11.62-.95,11.62-2.12c0,0-.32,6.91-.23,16.26Z"/><path class="cls-27" d="m11.47,99.03h2.96v-3.14c-.82-.36-1.61-.76-2.36-1.19-.18,1.47-.37,2.92-.59,4.33h0Zm8.97-16c.2-4.36.31-8.57.36-12.48-1.93-.21-3.71-.53-5.27-.83,0,2.14,0,4.27,0,6.28l4.92,7.02Z"/><path class="cls-21" d="m17.97,54.77h0c-1.01-.14-1.89-.3-2.62-.49h0c.72.19,1.61.35,2.62.49Z"/><path class="cls-16" d="m20.73,55.05c-.99-.07-1.92-.16-2.75-.28h0c.84.11,1.76.21,2.75.28Z"/><path class="cls-18" d="m20.81,70.55c.08-6.01.02-11.33-.07-15.5-2.18-.15-4.05-.42-5.37-.77.07,3.94.15,9.74.17,15.44,1.57.3,3.35.62,5.27.83Z"/><path class="cls-18" d="m13.29,53.51c0-.21-.01-.34-.02-.4h0c0,.06,0,.19.02.4Z"/><path class="cls-25" d="m13.27,53.11s0,0,0,0c0,0,0,0,0,0Zm0,0h0s0,0,0,0Zm0,0h0s0,0,0,0Zm0,0h0s0,0,0,0Zm0,0h0s0,0,0,0Z"/><path class="cls-18" d="m13.27,53.11s0-.01,0-.02h0s0,.02,0,.02h0Zm0-.02s0,0,0,0h0s0,0,0,0c0,0,0,0,0,0Zm0,0h0s0,0,0,0Zm0,0h0s0,0,0,0Z"/><path class="cls-25" d="m12.06,94.7c1.01-8.46,1.36-17.73,1.43-25.37.05-4.89-.02-9.1-.09-12.02.18,7.47.32,23.51-1.35,37.39h0,0Z"/><path class="cls-25" d="m13.41,57.31s0-.04,0-.06c0,.02,0,.04,0,.06Zm0-.06c0-.06,0-.11,0-.17,0,.06,0,.11,0,.17Zm0-.18c0-.09,0-.19,0-.28,0,.09,0,.19,0,.28Z"/><path class="cls-18" d="m13.5,69.33c.08-7.97-.14-14.16-.21-15.82.02.58.07,1.71.11,3.28,0,.09,0,.19,0,.28h0c0,.06,0,.12,0,.18h0s0,.04,0,.06c0,0,0,0,0,0,.07,2.92.13,7.13.09,12.02Z"/><path class="cls-21" d="m15.36,54.28c-1.28-.33-2.05-.74-2.09-1.17h0s0,0,0,0h0s0,0,0,.01h0s0,0,0,0h0s0,0,0,0,0,0,0,0c0,0,0,0,0,0h0s0,0,0,0c0,0,0,0,0,0h0s0,0,0,0c0,0,0,0,0,.01h0s0,0,0,0h0c.11.41.86.79,2.08,1.1h0Z"/><path class="cls-18" d="m13.28,53.18h0,0Zm0,0h0s0,0,0,0Zm0-.01s0,0,0,0c0,0,0,0,0,0Zm0,0s0,0,0,0c0,0,0,0,0,0Zm0,0h0s0,0,0,0Zm0,0s0,0,0,0c0,0,0,0,0,0Zm0,0h0s0,0,0,0Zm0,0h0s0,0,0,0Zm0,0h0s0,0,0,0Zm0,0s0,0,0,0c0,0,0,0,0,0Z"/><path class="cls-21" d="m13.27,53.11s0-.04,0-.04h0s0,0,0,0h0s0,.01,0,.02h0Z"/><path class="cls-18" d="m13.27,53.08h0s0,0,0,0Zm0,0h0s0,0,0,0Zm0,0h0s0,0,0,0Z"/><path class="cls-28" d="m14.43,95.89v-21.45l1.1,1.56c.01-2.01.02-4.14,0-6.28-.73-.14-1.41-.27-2.03-.39-.07,7.64-.42,16.9-1.43,25.37.75.43,1.54.83,2.36,1.19h0Z"/><path class="cls-15" d="m15.36,54.28h0c-1.21-.32-1.97-.69-2.08-1.11.11.41.86.79,2.08,1.11Z"/><path class="cls-15" d="m13.28,53.17s0,0,0-.01c0,0,0,0,0,.01Z"/><path class="cls-15" d="m13.27,53.15s0,0,0,0c0,0,0,0,0,0Z"/><path class="cls-15" d="m13.27,53.15s0,0,0,0c0,0,0,0,0,0Z"/><path class="cls-15" d="m13.27,53.14s0,0,0,0c0,0,0,0,0,0Z"/><path class="cls-15" d="m13.27,53.13s0,0,0,0c0,0,0,0,0,0Z"/><path class="cls-26" d="m15.53,69.72c-.02-5.7-.1-11.5-.17-15.44-1.21-.32-1.97-.69-2.08-1.11h0s0,0,0,0h0s0,0,0-.01c0,0,0,0,0,0h0s0,0,0,0c0,0,0,0,0,0h0s0,0,0,0c0,0,0,0,0,0s0,0,0,0h0s0,0,0,0h0s0,0,0,0h0s0-.01,0-.01c0,.06,0,.2.02.4.07,1.66.29,7.85.21,15.82.63.12,1.31.25,2.03.39h0Z"/><path class="cls-28" d="m13.27,53.11h0s0,0,0,0Zm0,0s0-.01,0-.02c0,0,0,0,0,.02Z"/><path class="cls-28" d="m13.27,53.08h0s0,0,0,0Zm0,0s0,0,0,0c0,0,0,0,0,0Z"/><path class="cls-26" d="m13.27,53.11h0s0-.02,0-.03h0s0,0,0,0h0s0,0,0,0c0,0,0,0,0,0,0,0,0,.01,0,.02Z"/><path class="cls-20" d="m36.35,69.4s-5.58,1.5-12.37,1.5c-3.4,0-7.1-.38-10.56-1.51l.15-.46c3.4,1.11,7.05,1.48,10.41,1.48s6.42-.37,8.65-.74c1.11-.19,2.01-.37,2.64-.51.62-.14.96-.23.96-.23l.13.47h0Z"/><path class="cls-24" d="m89.15,131.36c0,1.11-20.23,2.02-45.2,2.02s-45.2-.9-45.2-2.02,20.23-2.02,45.2-2.02,45.2.9,45.2,2.02Z"/><rect class="cls-5" x="3.57" y="99.03" width="79.16" height="31.85"/><rect class="cls-5" x="1.99" y="99.03" width="82.31" height="2.88"/><rect class="cls-14" x="3.57" y="101.91" width="79.16" height="2.05"/><rect class="cls-27" x="3.57" y="115.64" width="79.16" height="5.88"/><path class="cls-8" d="m3.57,118.4h79.16v.35H3.57"/><rect class="cls-14" x="74.18" y="124.49" width="3.07" height="6.39"/><rect class="cls-14" x="77.46" y="124.49" width="3.07" height="6.39"/><path class="cls-17" d="m77.13,88.24c.76-.7,1.24-1.69,1.24-2.81,0-2.1-1.7-3.8-3.8-3.8-1.14,0-2.16.5-2.86,1.3-.46-1.58-1.92-2.74-3.65-2.74-1.03,0-1.96.41-2.65,1.08-.44-.8-1.28-1.34-2.25-1.34-1.42,0-2.58,1.16-2.58,2.58s1.16,2.58,2.58,2.58c.43,0,.82-.11,1.18-.3.36,1.72,1.89,3.01,3.72,3.01,1.14,0,2.16-.5,2.86-1.3.38,1.3,1.43,2.31,2.75,2.63-.14.3-.23.64-.23,1,0,1.29,1.04,2.33,2.33,2.33s2.33-1.04,2.33-2.33c0-.78-.38-1.46-.97-1.88h0Z"/><path class="cls-3" d="m77.86,87.34c.2-.34.34-.71.43-1.1-.19.32-.43.61-.7.85.1.07.18.16.27.25Z"/><path class="cls-3" d="m74.11,91.75h3.32c.35-.36.59-.84.65-1.37-.43.56-1.09.92-1.84.92-1.29,0-2.33-1.04-2.33-2.33,0-.36.09-.69.23-1-1.32-.32-2.38-1.33-2.75-2.63-.7.79-1.72,1.3-2.86,1.3-1.83,0-3.36-1.29-3.72-3.01-.35.18-.75.3-1.18.3-1.42,0-2.58-1.15-2.58-2.58,0-.12.02-.24.04-.36-.3.41-.49.92-.5,1.47v.04c0,1.42,1.16,2.58,2.58,2.58.43,0,.82-.11,1.18-.3.36,1.72,1.89,3.01,3.72,3.01,1.14,0,2.16-.5,2.86-1.3.38,1.3,1.43,2.31,2.75,2.63-.14.3-.23.64-.23,1,0,.63.25,1.21.67,1.63h0Z"/><rect class="cls-9" x="71.04" y="91.75" width="8.17" height="7.28"/><rect class="cls-18" x="71.04" y="94.68" width="2.4" height="4.35"/><rect class="cls-22" x="73.44" y="91.75" width="5.77" height="2.93"/><rect class="cls-19" x="71.04" y="91.75" width="2.4" height="2.93"/><path class="cls-14" d="m19.33,99.03h8.96v-.88c-.32.04-.67.07-1.03.1-.54.04-1.08.06-1.64.06-1.99,0-4.08-.26-6.15-.74-.04.49-.09.97-.14,1.46h0Zm8.96-3.14v-1.67l-7.84-11.19c-.17,3.8-.41,7.71-.73,11.67,1.6.47,3.6.66,5.99.88.99.09,1.85.2,2.58.31h0Z"/><path class="cls-6" d="m14.43,99.03h4.9c.05-.49.09-.98.14-1.46-1.73-.41-3.44-.97-5.04-1.67v3.14Zm5.29-4.34c.32-3.95.56-7.87.73-11.67l-4.92-7.02c-.03,3.86-.1,7.29-.26,9.54-.41,6.01,1.14,8.18,4.45,9.15Z"/><path class="cls-6" d="m25.61,98.3c.56,0,1.1-.02,1.64-.06.37-.03.71-.06,1.03-.1v-2.26c-.73-.12-1.59-.22-2.58-.31-2.39-.22-4.39-.41-5.99-.88-.08.96-.16,1.91-.25,2.87,2.06.48,4.16.74,6.15.74h0Z"/><path class="cls-31" d="m19.47,97.57c.09-.96.17-1.92.25-2.87-3.31-.97-4.86-3.14-4.45-9.15.15-2.25.23-5.68.26-9.54l-1.1-1.56v21.45c1.6.7,3.31,1.27,5.04,1.67Z"/><rect class="cls-14" x="14.43" y="99.03" width="13.86" height="1.44"/><path class="cls-30" d="m38.31,99.03h7.21l-8.55-12.2c.31,4.17.74,8.32,1.34,12.2Z"/><path class="cls-14" d="m31.67,99.03h6.65c-.6-3.87-1.03-8.03-1.34-12.2l-8.69-12.39v19.77l1.36,1.94c1.99.48,2.28,1.06,1.06,1.51l.96,1.37h0Z"/><path class="cls-6" d="m30.71,97.66c1.23-.45.93-1.03-1.06-1.51l1.06,1.51Z"/><path class="cls-14" d="m28.28,100.47h18.25l-1.01-1.44h-13.86l1.01,1.44h-4.39Z"/><path class="cls-12" d="m28.28,99.03h3.38l-.96-1.37c-.53.19-1.34.36-2.42.48v.88h0Zm1.36-2.88l-1.36-1.94v1.67c.52.08.97.17,1.36.27Z"/><path class="cls-23" d="m28.28,98.15c1.08-.12,1.89-.29,2.42-.48l-1.06-1.51c-.39-.09-.84-.18-1.36-.27v2.26h0Z"/><path class="cls-12" d="m28.28,100.47h4.39l-1.01-1.44h-3.38v1.44Z"/><path class="cls-5" d="m17.47,100.47v-23.72l16.63,23.72h-16.63Z"/><path class="cls-5" d="m32.1,100.47v-23.72l16.63,23.72h-16.63Z"/><path class="cls-5" d="m47.57,100.47v-23.72l16.63,23.72h-16.63Z"/><path class="cls-5" d="m1.99,100.47v-23.72l16.63,23.72H1.99Z"/><rect class="cls-14" x="71.79" y="107.41" width="6.54" height="4.94"/><rect class="cls-14" x="61" y="107.41" width="6.54" height="4.94"/><rect class="cls-14" x="50.21" y="107.41" width="6.54" height="4.94"/><rect class="cls-14" x="39.42" y="107.41" width="6.54" height="4.94"/><rect class="cls-14" x="28.63" y="107.41" width="6.54" height="4.94"/><rect class="cls-14" x="17.83" y="107.41" width="6.54" height="4.94"/><rect class="cls-14" x="7.04" y="107.41" width="6.54" height="4.94"/><rect class="cls-8" x="59.91" y="124.49" width="8.32" height="3.19"/><rect class="cls-8" x="49.32" y="124.49" width="8.32" height="3.19"/><rect class="cls-8" x="38.72" y="124.49" width="8.32" height="3.19"/><rect class="cls-8" x="28.14" y="124.49" width="8.32" height="3.19"/><rect class="cls-8" x="17.55" y="124.49" width="8.32" height="3.19"/><rect class="cls-8" x="6.95" y="124.49" width="8.32" height="3.19"/></g><path class="cls-10" d="m126.29,50.4c0,1.96-8.71,3.54-19.46,3.54s-19.46-1.59-19.46-3.54,8.71-3.54,19.46-3.54,19.46,1.59,19.46,3.54Z"/><path class="cls-17" d="m147.95-13.33c-4.2,0-7.87,2.21-9.94,5.53-2.61-2.07-5.91-3.32-9.51-3.32-8.47,0-15.33,6.86-15.33,15.33v.17c-4.52.84-7.95,4.8-7.95,9.56,0,2.73,1.12,5.19,2.93,6.95-4.21,1.07-7.33,4.88-7.33,9.42,0,2.4.87,4.6,2.32,6.29-3.67,1.96-6.17,5.83-6.17,10.28,0,6.44,5.22,11.66,11.66,11.66s11.66-5.22,11.66-11.66c0-3.49-1.54-6.61-3.97-8.75,2.4-1.77,3.97-4.62,3.97-7.83l-.02-.35c1.33.68,2.83,1.07,4.42,1.07,5.38,0,9.73-4.36,9.73-9.73,0-.98-.15-1.92-.41-2.81,4.26-1.64,7.6-5.12,9.04-9.48,1.49.69,3.15,1.08,4.9,1.08,6.47,0,11.72-5.25,11.72-11.72s-5.25-11.72-11.72-11.72Z"/><path class="cls-3" d="m114.08,47.56c.03-2.45-.6-5.31-2.31-8.59,5.1-5.28,5.93-7.84,5.39-12.68,1.3.14,2.58.27,3.83.27,4.34,0,8.28-1.52,10.96-9.2,6.36-4.59,9.03-10.57,7.55-17.86,4.21,1.46,8.27,2.48,11.63,2.48,4.25,0,7.38-1.63,8.28-6.05.17.8.27,1.62.27,2.47,0,6.47-5.25,11.72-11.72,11.72-1.75,0-3.41-.39-4.9-1.08-1.44,4.35-4.78,7.83-9.04,9.48.27.89.41,1.83.41,2.81,0,5.37-4.36,9.73-9.73,9.73-1.59,0-3.09-.39-4.42-1.07l.02.35c0,3.21-1.57,6.06-3.97,7.83,2.43,2.14,3.97,5.26,3.97,8.75,0-.62-.06-1.21-.16-1.8-1.76,1.08-3.84,1.88-6.05,2.46h0Z"/><path class="cls-11" d="m106.83,53.94c-2.74,0-5.35-.1-7.71-.29-.96-1.36-1.65-2.93-1.96-4.64.96.04,2.06.07,3.26.07,4.02,0,9.12-.31,13.66-1.51-.03,2.51-.75,4.58-1.68,6.23-1.76.1-3.63.15-5.57.15Z"/><path class="cls-4" d="m112.4,53.79c.93-1.64,1.65-3.72,1.68-6.23,2.21-.59,4.29-1.38,6.05-2.46.09.59.16,1.19.16,1.8,0,2.34-.69,4.51-1.87,6.34-1.4.19-2.95.35-4.61.46-.46.03-.93.06-1.4.09h0Z"/><path class="cls-29" d="m126.29,50.4c0,1.96-8.71,3.54-19.46,3.54s-19.46-1.59-19.46-3.54c0,0,2.74,59.58-5.99,91.32,8.71,8.37,25.45,7.56,25.45,7.56,0,0,16.74.81,25.45-7.56-8.73-31.74-5.99-91.32-5.99-91.32Z"/><path class="cls-5" d="m126.29,50.4c0,1.96-8.71,3.54-19.46,3.54s-19.46-1.59-19.46-3.54c0,0,2.74,59.58-5.99,91.32,8.71,8.37,25.45,7.56,25.45,7.56,0,0,16.74.81,25.45-7.56-8.73-31.74-5.99-91.32-5.99-91.32Z"/><path class="cls-9" d="m87.76,77.61c4.83.91,11.59,2.43,19.08,2.43s14.25-1.52,19.08-2.43c-.15-15.65.38-27.22.38-27.22,0,1.96-8.71,3.54-19.46,3.54s-19.46-1.59-19.46-3.54c0,0,.53,11.56.38,27.22Z"/><path class="cls-27" d="m129.31,127.33h-4.95v-5.25c1.38-.61,2.7-1.27,3.96-2,.3,2.47.62,4.89.99,7.25h0Zm-15.02-26.79c-.33-7.3-.52-14.34-.6-20.89,3.23-.35,6.21-.88,8.83-1.38-.01,3.59,0,7.15.01,10.52l-8.24,11.75Z"/><path class="cls-21" d="m118.41,53.24h0c1.69-.23,3.17-.51,4.38-.82h0c-1.21.32-2.69.59-4.38.82Z"/><path class="cls-16" d="m113.8,53.7c1.66-.12,3.21-.27,4.61-.46h0c-1.41.19-2.95.35-4.61.46Z"/><path class="cls-18" d="m113.68,79.65c-.13-10.06-.04-18.97.12-25.95,3.65-.26,6.78-.71,8.99-1.28-.11,6.6-.25,16.3-.29,25.84-2.62.5-5.6,1.03-8.83,1.38h0Z"/><path class="cls-18" d="m126.26,51.13c.01-.35.02-.57.03-.67h0c0,.1-.01.33-.03.67Z"/><path class="cls-25" d="m126.29,50.45s0,0,0,0c0,0,0,0,0,0Zm0-.01h0s0,0,0,0Zm0-.01h0s0,0,0,0Zm0-.01h0s0,0,0,0Zm0,0h0s0,0,0,0Z"/><path class="cls-18" d="m126.29,50.45s0-.02,0-.03v.02s0,0,0,0h0Zm0-.03s0,0,0,0h0s0,0,0,0h0Zm0-.01h0s0,0,0,0Zm0-.01h0s0,0,0,0Z"/><path class="cls-25" d="m128.31,120.08c-1.7-14.17-2.28-29.68-2.4-42.47-.08-8.18.03-15.24.15-20.12-.31,12.51-.53,39.36,2.25,62.59h0Z"/><path class="cls-25" d="m126.06,57.48s0-.06,0-.09c0,.03,0,.06,0,.09Zm0-.1c0-.1,0-.19,0-.29,0,.09,0,.19,0,.29Zm0-.29c0-.16,0-.31.01-.47,0,.15,0,.31-.01.47Z"/><path class="cls-18" d="m125.91,77.61c-.13-13.34.24-23.71.35-26.48-.04.97-.11,2.87-.18,5.49,0,.16,0,.31-.01.47h0c0,.1,0,.2,0,.29h0s0,.07,0,.1c0,0,0,0,0,0-.12,4.88-.23,11.94-.15,20.12Z"/><path class="cls-21" d="m122.8,52.42c2.15-.56,3.43-1.24,3.5-1.97h0s0,0,0,0h0s0,.02,0,.02h0s0,0,0,.01h0s0,0,0,.01,0,0,0,0c0,0,0,0,0,.01h0s0,0,0,0,0,0,0,0h0s0,0,0,0c0,0,0,.01,0,.02h0s0,0,0,0h0c-.18.69-1.44,1.32-3.47,1.85h0Z"/><path class="cls-18" d="m126.27,50.57h0,0Zm0,0h0s0,0,0,0Zm0-.02s0,0,0,0c0,0,0,0,0,0Zm0,0s0,0,0,0c0,0,0,0,0,0Zm0-.01h0s0,0,0,0Zm0-.01s0,0,0,0c0,0,0,0,0,0Zm0,0h0s0,0,0,0Zm0-.01h0s0,0,0,0Zm0-.01h0s0,0,0,0Zm0-.01s0,0,0,0c0,0,0,0,0,0Z"/><path class="cls-21" d="m126.29,50.45s0-.06,0-.06h0s0,0,0,.01h0s0,.02,0,.03h0Z"/><path class="cls-18" d="m126.29,50.41h0s0,0,0,0Zm0,0h0s0,0,0,0Zm0,0h0s0,0,0,0Z"/><path class="cls-28" d="m124.36,122.08v-35.9l-1.83,2.61c-.02-3.37-.03-6.93-.01-10.52,1.22-.23,2.36-.46,3.4-.65.13,12.79.7,28.3,2.4,42.47-1.26.72-2.58,1.39-3.96,2h0Z"/><path class="cls-15" d="m122.8,52.42h0c2.03-.53,3.29-1.16,3.47-1.85-.18.69-1.44,1.32-3.47,1.85Z"/><path class="cls-15" d="m126.27,50.56s0-.01,0-.02c0,0,0,.01,0,.02Z"/><path class="cls-15" d="m126.28,50.53s0,0,0,0c0,0,0,0,0,0Z"/><path class="cls-15" d="m126.28,50.52s0,0,0-.01c0,0,0,0,0,.01Z"/><path class="cls-15" d="m126.29,50.5s0,0,0,0c0,0,0,0,0,0Z"/><path class="cls-15" d="m126.29,50.49s0,0,0,0c0,0,0,0,0,0Z"/><path class="cls-26" d="m122.51,78.27c.03-9.54.17-19.25.29-25.84,2.03-.53,3.29-1.16,3.47-1.85h0s0,0,0,0h0s0-.02,0-.02c0,0,0,0,0,0h0s0,0,0-.01,0,0,0,0h0s0,0,0-.01c0,0,0,0,0,0s0,0,0,0h0s0,0,0-.01h0s0,0,0-.01h0s0-.02,0-.02c0,.1-.01.33-.03.67-.11,2.77-.48,13.14-.35,26.48-1.05.2-2.19.42-3.4.65h0Z"/><path class="cls-28" d="m126.29,50.45h0s0,0,0,0Zm0-.01s0-.02,0-.03c0,0,0,.02,0,.03Z"/><path class="cls-28" d="m126.29,50.41h0s0,0,0,0Zm0,0s0,0,0,0c0,0,0,0,0,0Z"/><path class="cls-26" d="m126.29,50.45h0s0-.04,0-.04h0s0-.01,0-.01h0s0,.02,0,.02c0,0,0,0,0,0,0,.01,0,.02,0,.03Z"/><path class="cls-20" d="m87.65,77.73s9.35,2.51,20.71,2.52c5.68,0,11.88-.63,17.68-2.52l-.25-.78c-5.69,1.86-11.81,2.48-17.43,2.48s-10.75-.62-14.48-1.25c-1.86-.31-3.37-.62-4.41-.86-1.04-.23-1.61-.39-1.61-.39l-.21.79Z"/><rect class="cls-5" x="10.02" y="127.33" width="132.52" height="53.32"/><rect class="cls-5" x="7.38" y="127.33" width="137.79" height="4.83"/><rect class="cls-14" x="10.02" y="132.15" width="132.52" height="3.43"/><path class="cls-17" d="m19.39,109.27c-1.28-1.17-2.08-2.84-2.08-4.7,0-3.52,2.85-6.37,6.37-6.37,1.91,0,3.62.84,4.78,2.17.77-2.65,3.21-4.59,6.11-4.59,1.73,0,3.29.69,4.43,1.8.73-1.33,2.14-2.25,3.77-2.25,2.38,0,4.32,1.93,4.32,4.32s-1.93,4.32-4.32,4.32c-.71,0-1.38-.19-1.97-.5-.61,2.88-3.17,5.05-6.23,5.05-1.91,0-3.62-.84-4.78-2.18-.64,2.18-2.4,3.87-4.61,4.4.24.51.39,1.07.39,1.67,0,2.15-1.74,3.9-3.9,3.9s-3.9-1.74-3.9-3.9c0-1.3.64-2.44,1.62-3.15h0Z"/><path class="cls-3" d="m18.17,107.76c-.33-.56-.57-1.19-.72-1.84.32.53.71,1.01,1.17,1.43-.16.12-.31.27-.45.41h0Z"/><path class="cls-3" d="m24.45,115.15h-5.55c-.59-.61-.98-1.4-1.08-2.29.71.93,1.82,1.54,3.08,1.54,2.15,0,3.9-1.74,3.9-3.9,0-.6-.15-1.16-.39-1.67,2.22-.54,3.98-2.22,4.61-4.4,1.17,1.33,2.87,2.17,4.78,2.17,3.06,0,5.62-2.16,6.23-5.05.59.31,1.26.5,1.97.5,2.38,0,4.32-1.93,4.32-4.32,0-.21-.03-.4-.06-.6.5.69.81,1.54.83,2.46v.07c0,2.39-1.93,4.32-4.32,4.32-.71,0-1.38-.19-1.97-.5-.61,2.88-3.17,5.05-6.23,5.05-1.91,0-3.62-.84-4.78-2.18-.64,2.18-2.4,3.87-4.61,4.4.24.51.39,1.07.39,1.67,0,1.06-.42,2.02-1.11,2.73h0Z"/><rect class="cls-9" x="15.91" y="115.15" width="13.67" height="12.18"/><rect class="cls-18" x="25.56" y="120.05" width="4.02" height="7.28"/><rect class="cls-22" x="15.91" y="115.15" width="9.65" height="4.9"/><rect class="cls-19" x="25.56" y="115.15" width="4.02" height="4.9"/><path class="cls-14" d="m116.15,127.33h-14.99v-1.48c.54.06,1.11.12,1.73.16.9.07,1.81.1,2.75.1,3.32,0,6.84-.43,10.29-1.24.07.82.15,1.63.23,2.45Zm-14.99-5.26v-2.8l13.13-18.73c.29,6.35.68,12.91,1.22,19.54-2.67.79-6.02,1.11-10.03,1.47-1.66.15-3.1.33-4.32.52Z"/><path class="cls-6" d="m124.36,127.33h-8.21c-.08-.82-.16-1.63-.23-2.45,2.9-.68,5.76-1.62,8.44-2.8v5.25h0Zm-8.85-7.26c-.54-6.62-.93-13.18-1.22-19.54l8.24-11.75c.05,6.46.17,12.2.43,15.96.68,10.07-1.9,13.69-7.45,15.32Z"/><path class="cls-6" d="m105.62,126.12c-.93,0-1.85-.03-2.75-.1-.62-.05-1.19-.1-1.73-.16v-3.78c1.22-.2,2.66-.37,4.32-.52,4.01-.36,7.36-.69,10.03-1.47.13,1.6.26,3.2.41,4.81-3.45.81-6.96,1.24-10.29,1.24Z"/><path class="cls-31" d="m115.91,124.88c-.15-1.61-.29-3.21-.41-4.81,5.55-1.63,8.13-5.25,7.45-15.32-.26-3.77-.38-9.5-.43-15.96l1.83-2.61v35.9c-2.67,1.18-5.54,2.12-8.44,2.8Z"/><rect class="cls-14" x="101.15" y="127.33" width="23.2" height="2.41"/><path class="cls-30" d="m84.37,127.33h-12.07l14.32-20.42c-.52,6.98-1.24,13.93-2.25,20.42h0Z"/><path class="cls-14" d="m95.5,127.33h-11.13c1.01-6.49,1.73-13.44,2.25-20.42l14.54-20.74v33.09l-2.28,3.25c-3.34.8-3.83,1.78-1.77,2.53l-1.61,2.29Z"/><path class="cls-6" d="m97.1,125.04c-2.05-.75-1.57-1.73,1.77-2.53l-1.77,2.53Z"/><path class="cls-14" d="m101.15,129.74h-30.55l1.69-2.41h23.2l-1.69,2.41h7.35Z"/><path class="cls-12" d="m101.15,127.33h-5.66l1.61-2.29c.89.32,2.24.6,4.05.81v1.48Zm-2.28-4.82l2.28-3.25v2.8c-.87.14-1.63.29-2.28.44Z"/><path class="cls-23" d="m101.15,125.85c-1.81-.21-3.16-.49-4.05-.81l1.77-2.53c.65-.16,1.41-.31,2.28-.44v3.78Z"/><path class="cls-12" d="m101.15,129.74h-7.35l1.69-2.41h5.66v2.41Z"/><path class="cls-5" d="m119.26,129.74v-39.7l-27.84,39.7h27.84Z"/><path class="cls-5" d="m94.77,129.74v-39.7l-27.84,39.7h27.84Z"/><path class="cls-5" d="m68.86,129.74v-39.7l-27.84,39.7h27.84Z"/><path class="cls-5" d="m145.17,129.74v-39.7l-27.84,39.7h27.84Z"/><rect class="cls-14" x="17.38" y="141.36" width="10.94" height="8.27"/><rect class="cls-14" x="35.44" y="141.36" width="10.95" height="8.27"/><rect class="cls-14" x="53.51" y="141.36" width="10.94" height="8.27"/><rect class="cls-14" x="71.58" y="141.36" width="10.94" height="8.27"/><rect class="cls-14" x="89.64" y="141.36" width="10.94" height="8.27"/><rect class="cls-14" x="107.7" y="141.36" width="10.95" height="8.27"/><rect class="cls-14" x="125.77" y="141.36" width="10.94" height="8.27"/></g></svg>