<?xml version="1.0" encoding="UTF-8"?><svg xmlns="http://www.w3.org/2000/svg" xmlns:xlink="http://www.w3.org/1999/xlink" viewBox="0 0 110.67 110.67"><defs><style>.cls-1{fill:#ffd068;}.cls-1,.cls-2,.cls-3,.cls-4,.cls-5,.cls-6,.cls-7,.cls-8,.cls-9,.cls-10,.cls-11,.cls-12,.cls-13,.cls-14,.cls-15,.cls-16,.cls-17,.cls-18,.cls-19,.cls-20,.cls-21{stroke-width:0px;}.cls-2{fill:#686c6e;}.cls-3{fill:#054148;}.cls-22{clip-path:url(#clippath-2);}.cls-4{fill:#0aa7c5;}.cls-5{fill:none;}.cls-23{clip-path:url(#clippath-1);}.cls-6{fill:#c87c47;}.cls-7{fill:#7d4418;}.cls-8{fill:#d59a3b;}.cls-9{fill:#b98a66;}.cls-24{clip-path:url(#clippath);}.cls-10{fill:#ffc465;}.cls-11{fill:#f3e4d6;}.cls-12{fill:#56788b;}.cls-13{fill:#ebebeb;}.cls-14{fill:#a86c26;}.cls-15{fill:#20131c;}.cls-16{fill:#10788e;}.cls-17{fill:#ecb63e;}.cls-18{fill:#435670;}.cls-19{fill:#0c1014;}.cls-20{fill:#85cdfb;}.cls-21{fill:#f8b46b;}</style><clipPath id="clippath"><rect class="cls-5" x="-1023.91" y="-816.58" width="1280" height="720"/></clipPath><clipPath id="clippath-1"><circle class="cls-5" cx="-75.33" cy="55.33" r="55.33"/></clipPath><clipPath id="clippath-2"><circle class="cls-5" cx="55.33" cy="55.33" r="55.33"/></clipPath></defs><g id="Bg"><g class="cls-24"><rect class="cls-20" x="-1023.91" y="-834.02" width="1288.17" height="988.77"/><path class="cls-9" d="m997.59-189.49c-391.61-174.66-559.38-189.43-749.92-220.47l-172.27-23.86-455.22-28.45-644.08,53.7v49.72L750.93,127.81l246.67-317.3h0Z"/><path class="cls-18" d="m-379.83-462.04l-644.08,174.57V154.75H264.26L1370.92,12.48-379.82-462.04h0Z"/><path class="cls-13" d="m139.12,4.03h57.38L-31.44-180.27h-34.68L139.12,4.03h0Z"/></g></g><g id="Layer_2"><g class="cls-23"><path class="cls-16" d="m8.42,116.66h-156.76v-36.74h15.13v-28.26h31.67v13.66h21.06V30.31h22.98v28.25h24.86v-14.07h11.97v27.56H-6.22v-17.31h14.63v61.91h0Z"/><rect class="cls-16" x="-8.74" y="49.45" width="18.93" height="5.45"/><rect class="cls-11" x="-14.12" y="44.49" width="15.81" height="8.72"/><rect class="cls-15" x="-2.14" y="44.49" width="2.2" height="8.72"/><path class="cls-21" d="m-6.22,34.44s7.77-2.22,7.9-7.84c.13-5.62-4.31-10.97-10.84-8.75-6.53,2.22-6.79,1.98-9.41-.51-2.61-2.49-4.51-3.27-8.88-2.36-4.38.91-4.7,4.83-6.53,3.85-1.83-.98-2.48-3.94-4.38-4.22-1.89-.28-4.18-.28-5.49,1.41-1.31,1.7-2.16,4.38-6.4,2.22-4.25-2.16-3.98-3.79-6.14-3.27-2.16.52-3.27,6.2-5.36,5.88-2.09-.33-3.07-1.63-6.34-.98-3.27.65-1.63,1.37-4.24,2.81-2.61,1.44-6.73,2.09-6.27,3.46.46,1.37,2.94,2.35,4.38,2.15s2.87-.72,3.79-.13c.91.59,5.68,3.85,7.77,3.46,2.09-.39,7.77-1.37,9.67.06,1.89,1.44,5.62,4.64,7.38,6.6,1.76,1.96,4.7,2.81,7.71,2.74,3-.07,5.81-1.5,6.79-3.79.98-2.29,2.02-2.87,2.94-1.24.91,1.63,5.03,5.36,7.77,3,2.74-2.35,4.54-5.78,5.23-5.44.95.47,2.84,4.5,8.95.86h0Z"/><path class="cls-6" d="m-4.94,31.75c-2.55,1.03-4.9,1.15-7.01.53-.17-.04-.33-.1-.48-.16l-.15-.05c-1.62-.54-3.36.17-4.26,1.63-.77,1.24-1.78,2.23-3.21,2.76-2.28.85-5.11.23-6.69-1.7-.25-.31-.73-.83-1.22-1.34-.73-.76-1.97-.63-2.53.26-2.32,3.75-5.92,6.15-10.94,4.37-4.03-1.43-10.96-9.41-11.54-9.85-.4-.3-.97-.5-1.65-.62-1.61-.28-3.28-.08-4.79.54-1.8.74-3.71,1.1-5.69.71-1.27-.24-2.3-.73-3.19-1.37-1.58-1.13-3.57-1.32-5.45-.81-.76.21-1.58.2-2.45-.11-.79-.28-1.5-.68-2.17-1.14-.21.22-.3.46-.21.73.46,1.37,2.94,2.35,4.38,2.15s2.87-.72,3.79-.13c.91.59,5.68,3.85,7.77,3.46,2.09-.39,7.77-1.37,9.67.06,1.89,1.44,5.62,4.64,7.38,6.6,1.76,1.96,4.7,2.81,7.71,2.74,3-.07,5.81-1.5,6.79-3.79.98-2.29,2.02-2.87,2.94-1.24.92,1.63,5.03,5.36,7.77,3,2.74-2.35,4.54-5.78,5.23-5.44.95.48,2.84,4.5,8.95.87,0,0,6.33-1.82,7.65-6.32-1.75,1.8-4.09,2.71-6.37,3.63h0Z"/></g><circle class="cls-1" cx="55.33" cy="55.33" r="55.33"/><g class="cls-22"><path class="cls-17" d="m124.57,110.32V36.02h-18.88v-8.34h-26.14v8.34h-12.1v17.93H27.26v-17.93H-14.37v10.25h-16.82v64.05H124.57Z"/><path class="cls-16" d="m120.37,99.62v-48.07h-27.22v48.07h-28.19v-16.87H27.91v16.87H7.03v-31.44H-15.15v31.44h-13.49v10.7H124.98v-10.7h-4.62,0Z"/><path class="cls-7" d="m54.78,106.89l-4.51-18.88h1.28v-11.28h-3.97l-2.35-9.83,15.99-7.38c3.1,4.12,6.93,9.12,8,10.11.75.69,1.3.67,1.69.41v1.16h-.65v.76h.65v10.21h-.65v3.02h.65v1.67h-.32v2.04h.32v15.87h-1.22v2.13h-14.92,0Zm-36.41-25.18c.33.09.66.16,1.02.16.28,0,.55-.04.81-.09l-.52,6.72-3.15,1.13,1.85-7.92h0Zm24.03-11.61l-.3-1.75.58-.27.48,2.02h-.77Zm.92,5.34l-.71-4.13h.85l.99,4.13h-1.12Zm.22,1.3l-.02-.09h1.2l.02.09h-1.21Zm1.81,2.52h-1.38l-.39-2.25h1.23l.54,2.25Zm2.54-1.21l-.25-1.04h.25v1.04Zm3.39,6.79h-1.77l-.6-2.52h2.37v2.52Zm0,2.87h-1.09l-.6-2.52h1.69v2.52Zm-4.29,9.1l-.71-4.13h2.27l.98,4.13h-2.54Zm.92,5.34l-.71-4.13h2.62l.98,4.13h-2.9Zm.21,1.21h2.98l.85,3.55h-3.21l-.61-3.55Zm-12.61-15.34h7.14l3.25,18.88h-13.54l3.15-18.88Zm-7.46,15.34h2.07l-.59,3.55h-2.33l.85-3.55h0Zm12.66-26.61h-3.32l1.12-6.73.96-.44,1.23,7.18h0Zm5,4.04h-1.48l-.22-1.26h1.39l.3,1.26Zm-17.71-1.26h2.9l-.6,2.52h-2.3v-2.52Zm2.97-.27h-2.97v-2.25h3.5l-.54,2.25Zm3.48-2.25v.38l-.31,1.86h-.34l.54-2.25h.12Zm.11-.27h-.16l.54-2.25-.37,2.25Zm6.58,2.52h-4.18l.38-2.25h3.41l.39,2.25Zm.29,2.79v-1.08l.19,1.08h-.19Zm3.99,5.66l-.06-.37h1.91l.09.37h-1.94,0Zm-16.47,0h-.95v-2.52h1.55l-.6,2.52Zm4.68-5.39l-.42,2.52h-.74l.6-2.52h.56Zm-.48-.32h.54v.05h-.55v-.05s.01,0,.01,0Zm.74-1.21h-.45l.3-1.26h.36l-.21,1.26Zm2.62,1.27l.42-2.52h4.25v2.52h-4.67Zm5.6,2.79h-.67v-2.52h.23l.43,2.52Zm2.83,0l-.43-2.52h1.58l.6,2.52h-1.75,0Zm.06.34h1.77l.22.94h-1.83l-.16-.94h0Zm-3.55,0h.73l.43,2.52h-1.16v-2.52Zm-5.46,0h5.19v2.52h-5.61l.42-2.52Zm-4.11,2.15h.92l-.06.37h-.95l.09-.37Zm1.28-2.15l-.16.94h-.84l.22-.94h.77Zm8.02-.34h-5.13l.42-2.52h4.71v2.52Zm3.27-2.85h1.56v.05s-1.55,0-1.55,0v-.05h0Zm-16.44.32h2.24l-.6,2.52h-1.64v-2.52Zm4.1,9.15h-1.22l.82-3.44h.97l-.58,3.44Zm-.89,5.34h-1.6l.99-4.13h1.31l-.69,4.13Zm-.89,5.34h-1.99l.98-4.13h1.69l-.69,4.13Zm15.16-14.12h1.96l.82,3.44h-2.19l-.59-3.44Zm-21.73-.98l-2.49.89.43-6.89c.83-.67,1.36-1.69,1.36-2.84,0-.35-.06-.67-.15-.99l9.61-4.44-.95,3.96h-3.84v11.28h1.15l-3.16,13.25v-12.86c0-1.02-1.01-1.72-1.96-1.38h0Zm27.52-4.99h-2.44l-.6-2.52h3.04v2.52Zm0-2.79h-3.1l-.02-.08v-2.17h3.12v2.25h0Zm21.6,27.64v-2.13h-1.22v-15.87h.32v-2.04h-.32v-1.67h.66v-3.02h-.66v-10.21h.65v-.76h-.65v-2.27c.05-.14.07-.23.07-.23,3.23-15.1-7.98-27.17-10.67-25.23-2.62,1.88-4.01,9.84-4.09,10.31l-41.26,18.99.47,3.69c-.29.52-.47,1.12-.47,1.75,0,1.15.54,2.16,1.36,2.83l-2.31,9.24-4.22,1.52c-.58.21-.97.76-.97,1.38v13.73h-3.1v3.37h69.26v-3.37h-2.85Z"/><rect class="cls-19" x="59.71" y="43.61" width="1.16" height="64.04"/><rect class="cls-19" x="-39.98" y="105.05" width="107.14" height="5.21"/><path class="cls-7" d="m35.37,107.65h-4.38L15.31,41.95h4.38l15.68,65.7Z"/><path class="cls-7" d="m25.69,106.72h-4.37L10.01,41.02h4.37l11.31,65.7Z"/><path class="cls-7" d="m-12.9,107.65h4.38L7.15,41.95H2.78l-15.68,65.7Z"/><path class="cls-7" d="m-4.74,107.65H-.36L10.59,41.95h-4.38L-4.74,107.65Z"/><path class="cls-8" d="m44.93,31.67L-24.25,63.61l-1.43-11.37L40.41,21.83l4.53,9.84h0Z"/><path class="cls-7" d="m42.24,30.56L-22.26,60.78l-.83-7.17,61.22-28.54,4.11,5.49h0Z"/><path class="cls-14" d="m38.13,22.94s2.17-13.01,6.34-16.01c4.17-3,21.52,15.68,16.51,39.03,0,0-1,4.11-3.89,1.45-2.89-2.67-18.96-24.46-18.96-24.46h0Z"/><path class="cls-8" d="m42.1,22.51c.12.27,3.48-11.42,4.4-11.4.92.02,3.43,3.17,3.63,4.09.2.92-8.03,7.31-8.03,7.31h0Z"/><path class="cls-8" d="m43.64,25.06c-.08.28,8.43-5.85,9.29-5.53,1.07.4,3.86,4.96,3.47,7.06-.17.93-12.76-1.53-12.76-1.53Z"/><path class="cls-8" d="m45.57,27.7c-.26.14,11.36,2.73,11.68,3.6,1.03,2.79,1.91,10.54,1.01,10.8-.91.26-12.68-14.4-12.68-14.4h0Z"/><path class="cls-10" d="m43.37,20.77c.09.2,2.56-8.39,3.23-8.38.68.02,2.52,2.33,2.67,3.01.14.68-5.9,5.37-5.9,5.37Z"/><path class="cls-10" d="m45.79,24.65c-.06.21,6.2-4.3,6.83-4.07.79.29,2.84,3.64,2.55,5.19-.13.68-9.38-1.13-9.38-1.13Z"/><path class="cls-10" d="m47.81,29.17c-.19.11,8.35,2.01,8.58,2.64.76,2.05,1.41,7.75.74,7.94-.67.19-9.32-10.58-9.32-10.58Z"/><rect class="cls-7" x="21.85" y="97.69" width="10.27" height="1.87"/><rect class="cls-7" x="19.62" y="89.43" width="10.27" height="1.87"/><rect class="cls-7" x="17.4" y="81.17" width="10.27" height="1.87"/><rect class="cls-7" x="17.76" y="72.91" width="7.69" height="1.87"/><rect class="cls-7" x="16.1" y="64.65" width="7.69" height="1.87"/><rect class="cls-7" x="14.43" y="56.39" width="7.69" height="1.87"/><rect class="cls-7" x="12.77" y="48.13" width="7.69" height="1.87"/><rect class="cls-7" x="-7.47" y="89.43" width="8.76" height="1.87"/><rect class="cls-7" x="-5.58" y="81.17" width="8.77" height="1.87"/><rect class="cls-7" x="-3.69" y="72.91" width="6.56" height="1.87"/><rect class="cls-7" x="-2.27" y="64.65" width="6.56" height="1.87"/><rect class="cls-2" x="59.21" y="74.06" width="2.15" height="3.16"/><rect class="cls-2" x="58.7" y="66.8" width="3.18" height="4.67"/><rect class="cls-19" x="58.7" y="49.83" width="3.18" height="1.18"/><rect class="cls-2" x="57.83" y="101.76" width="4.93" height="3.29"/><path class="cls-15" d="m38.13,29.45c0,.82-.66,1.48-1.48,1.48s-1.48-.66-1.48-1.48.66-1.48,1.48-1.48,1.48.66,1.48,1.48Z"/><path class="cls-15" d="m30.22,33.06c0,.82-.66,1.48-1.48,1.48s-1.48-.66-1.48-1.48.66-1.48,1.48-1.48,1.48.66,1.48,1.48Z"/><path class="cls-15" d="m22.3,36.67c0,.82-.66,1.48-1.48,1.48s-1.48-.66-1.48-1.48.66-1.48,1.48-1.48,1.48.66,1.48,1.48Z"/><path class="cls-15" d="m14.39,40.28c0,.82-.66,1.48-1.48,1.48s-1.48-.66-1.48-1.48.66-1.48,1.48-1.48,1.48.66,1.48,1.48Z"/><path class="cls-15" d="m6.47,43.89c0,.82-.66,1.48-1.48,1.48s-1.48-.66-1.48-1.48.66-1.48,1.48-1.48,1.48.66,1.48,1.48Z"/><path class="cls-12" d="m-6.67,75.43H3.31v-16.62H-6.67v16.62Zm10.39.42H-7.08v-17.45H3.73v17.45Z"/><rect class="cls-3" x="96.45" y="69.47" width="21.66" height="37.61"/><rect class="cls-15" x="96.45" y="69.47" width="8.21" height="37.61"/><rect class="cls-15" x="96.08" y="68.26" width="22.39" height="1.34"/><rect class="cls-15" x="96.08" y="105.74" width="22.39" height="1.34"/><rect class="cls-15" x="96.08" y="80.75" width="22.39" height="1.34"/><rect class="cls-15" x="96.08" y="94.05" width="22.39" height="1.34"/><rect class="cls-3" x="78.67" y="59.4" width="29.95" height="52"/><rect class="cls-4" x="100.35" y="59.4" width="3.37" height="52"/><rect class="cls-15" x="78.67" y="59.4" width="11.36" height="52"/><rect class="cls-15" x="78.17" y="57.73" width="30.96" height="1.85"/><rect class="cls-15" x="78.17" y="109.55" width="30.96" height="1.85"/><rect class="cls-15" x="78.17" y="75" width="30.96" height="1.85"/><rect class="cls-15" x="78.17" y="93.39" width="30.96" height="1.85"/><path class="cls-14" d="m-6.67,75.43H29.34v-16.62H-6.67v16.62Zm36.42.42H-7.08v-17.45H29.76v17.45Z"/><path class="cls-14" d="m-6.67,75.36H29.34v-3.9H-6.67v3.9Zm36.42.42H-7.08v-4.74H29.76v4.74Z"/><path class="cls-14" d="m-6.67,70.92H29.34v-3.9H-6.67v3.9Zm36.42.42H-7.08v-4.74H29.76v4.74Z"/><path class="cls-14" d="m-6.67,70.92H3.31v-3.9H-6.67v3.9Zm10.39.42H-7.08v-4.74H3.73v4.74Z"/><path class="cls-14" d="m3.73,75.43h9.98v-16.62H3.73v16.62Zm10.39.42H3.31v-17.45h10.81v17.45Z"/><path class="cls-14" d="m3.73,70.92h9.98v-3.9H3.73v3.9Zm10.39.42H3.31v-4.74h10.81v4.74Z"/><path class="cls-14" d="m14.12,75.43h9.98v-16.62h-9.98v16.62Zm10.39.42h-10.81v-17.45h10.81v17.45Z"/><path class="cls-14" d="m14.12,70.92h9.98v-3.9h-9.98v3.9Zm10.39.42h-10.81v-4.74h10.81v4.74Z"/><path class="cls-14" d="m-6.67,66.61H29.34v-3.9H-6.67v3.9Zm36.42.42H-7.08v-4.73H29.76v4.73Z"/></g></g></svg>