<?xml version="1.0" encoding="UTF-8"?><svg xmlns="http://www.w3.org/2000/svg" xmlns:xlink="http://www.w3.org/1999/xlink" viewBox="0 0 110.67 110.67"><defs><style>.cls-1{fill:rgba(196,196,196,.8);}.cls-1,.cls-2,.cls-3,.cls-4,.cls-5,.cls-6,.cls-7,.cls-8,.cls-9,.cls-10,.cls-11,.cls-12,.cls-13,.cls-14,.cls-15,.cls-16,.cls-17,.cls-18,.cls-19,.cls-20,.cls-21,.cls-22{stroke-width:0px;}.cls-2{fill:#054148;}.cls-23{clip-path:url(#clippath-2);}.cls-3{fill:#0aa7c5;}.cls-4{fill:none;}.cls-24{clip-path:url(#clippath-1);}.cls-5{fill:#9b5c37;}.cls-6{fill:#abbec8;}.cls-7{fill:#c87c47;}.cls-8{fill:#7d4418;}.cls-9{fill:#d59a3b;}.cls-10{fill:#b98a66;}.cls-25{clip-path:url(#clippath);}.cls-11{fill:#2ebfd4;}.cls-12{fill:#f3e4d6;}.cls-26{clip-path:url(#clippath-3);}.cls-13{fill:#ebebeb;}.cls-14{fill:#20131c;}.cls-15{fill:#10788e;}.cls-16{fill:#ecb63e;}.cls-17{fill:#435670;}.cls-18{fill:#f6c4a1;}.cls-19{fill:#0c1014;}.cls-20{fill:#85cdfb;}.cls-21{fill:#f8b46b;}.cls-22{fill:#333636;}</style><clipPath id="clippath"><rect class="cls-4" x="-893.24" y="-816.58" width="1280" height="720"/></clipPath><clipPath id="clippath-1"><circle class="cls-4" cx="-75.33" cy="55.33" r="55.33"/></clipPath><clipPath id="clippath-2"><circle class="cls-4" cx="55.33" cy="55.33" r="55.33"/></clipPath><clipPath id="clippath-3"><circle class="cls-4" cx="186" cy="55.33" r="55.33"/></clipPath></defs><g id="Bg"><g class="cls-25"><rect class="cls-20" x="-893.24" y="-834.02" width="1288.17" height="988.77"/><path class="cls-10" d="m1128.26-189.49c-391.61-174.66-559.38-189.43-749.92-220.47l-172.27-23.86-455.22-28.45-644.08,53.7v49.72L881.59,127.81l246.67-317.3h0Z"/><path class="cls-17" d="m-249.16-462.04l-644.08,174.57V154.75H394.92L1501.59,12.48-249.16-462.04h0Z"/><path class="cls-13" d="m269.79,4.03h57.38L99.23-180.27h-34.68L269.79,4.03h0Z"/></g></g><g id="Layer_2"><g class="cls-24"><rect class="cls-18" x="-200.67" y="-16.27" width="230.67" height="144.04"/><path class="cls-5" d="m-115.14,53.53c-.64-.24-1.24-.53-1.92-.71.3.05.84.19,1.21.29-1.53-.88-4.48-.46-6.38-.5-4.19-.1-8.4.25-12.61.24-6.33,0-12.68.08-18.99.21-8.31.18-16.68,2.57-24.93,3.51-4.84.55-9.23.73-14.06.57-4.75-.16-9.16-1.31-14.1-.63-4.78.66-6.96,23.02-10.84,25.92-1.77,1.33-4.11,3.08-3.86,5.64.32,3.25,5.59,3.53,8.19,4.02,4.4.82,8.22.72,12.65.73,4.88,0,8.82.55,13.51,1.8,11.25,3,22.57.57,33.94.68,4.22.05,8.06,1.33,12.18,2.03,4.98.84,9.8.64,14.81.9,9.05.47,17.9-.37,26.94.46,5.66.52,11.47.22,17.16.22,6.8,0,13.38,1.07,20.12,1.86,8.27.97,16.71,1.28,25.04,1.3,4.63,0,9.84-1.01,13.77-3.62,2.41-1.6,2.44-3.51,4.13-5.65,2.68-3.41,5.88-3.3,9.89-4.02,2.36-.42,9.09-.66,9.94-3.67,1.03-3.62-7.36-6.1-9.66-6.56-9.03-1.81-16.92-37.38-26.06-37.41-14.28-.05-32.15,15.62-46.42,16.25-7.59.34-16.93,2.05-23.93-.52-1.43-.53-2.96-1.2-4.46-1.84-3.55-1.5-7.16-1.26-10.91-1.98l5.65.45h0Z"/></g><circle class="cls-1" cx="55.33" cy="55.33" r="55.33"/><g class="cls-23"><path class="cls-15" d="m139.08,116.66H-17.67v-36.74H-2.55v-28.26h31.67v13.66h21.06V30.31h22.98v28.25h24.86v-14.07h11.97v27.56h14.45v-17.31h14.63v61.91h0Z"/><rect class="cls-15" x="-4.69" y="46.55" width="36.7" height="5.45"/><rect class="cls-15" x="47.88" y="25.03" width="27.42" height="5.45"/><rect class="cls-15" x="95.68" y="39.07" width="16.43" height="5.45"/><path class="cls-12" d="m90.81,73.64h-14.89l3.92-64.2h7.05l3.92,64.2Z"/><path class="cls-6" d="m76.63,62.08l-.71,11.56h14.89l-.71-11.56h-13.48,0Z"/><path class="cls-14" d="m82.32,9.43h-2.48l-3.92,64.2h4.31l2.09-64.2Z"/><rect class="cls-6" x="63.22" y="72.81" width="40.3" height="15.62"/><rect class="cls-14" x="73.89" y="72.81" width=".29" height="15.62"/><rect class="cls-14" x="76.86" y="72.81" width=".29" height="15.62"/><rect class="cls-14" x="79.84" y="72.81" width=".29" height="15.62"/><rect class="cls-14" x="82.81" y="72.81" width=".29" height="15.62"/><rect class="cls-14" x="85.79" y="72.81" width=".29" height="15.62"/><rect class="cls-14" x="88.77" y="72.81" width=".29" height="15.62"/><rect class="cls-14" x="91.74" y="72.81" width=".29" height="15.62"/><rect class="cls-14" x="94.72" y="72.81" width=".29" height="15.62"/><rect class="cls-14" x="97.69" y="72.81" width=".29" height="15.62"/><rect class="cls-14" x="100.67" y="72.81" width=".29" height="15.62"/><rect class="cls-12" x="63.22" y="72.81" width="40.3" height="2.82"/><rect class="cls-14" x="63.22" y="72.81" width="8.59" height="15.62"/><rect class="cls-6" x="56.73" y="87.74" width="53.27" height="15.62"/><rect class="cls-14" x="69.87" y="88.61" width=".29" height="15.62"/><rect class="cls-14" x="72.78" y="88.61" width=".29" height="15.62"/><rect class="cls-14" x="75.69" y="88.61" width=".29" height="15.62"/><rect class="cls-14" x="78.61" y="88.61" width=".29" height="15.62"/><rect class="cls-14" x="81.52" y="88.61" width=".29" height="15.62"/><rect class="cls-14" x="84.44" y="88.61" width=".29" height="15.62"/><rect class="cls-14" x="87.35" y="88.61" width=".29" height="15.62"/><rect class="cls-14" x="90.27" y="88.61" width=".29" height="15.62"/><rect class="cls-14" x="93.18" y="88.61" width=".29" height="15.62"/><rect class="cls-14" x="96.09" y="88.61" width=".29" height="15.62"/><rect class="cls-14" x="99.01" y="88.61" width=".29" height="15.62"/><rect class="cls-14" x="101.92" y="88.61" width=".29" height="15.62"/><rect class="cls-14" x="104.83" y="88.61" width=".29" height="15.62"/><rect class="cls-14" x="107.75" y="88.61" width=".29" height="15.62"/><rect class="cls-12" x="56.73" y="87.74" width="53.27" height="2.7"/><rect class="cls-14" x="56.73" y="87.74" width="10.96" height="15.62"/><rect class="cls-6" x="50.19" y="102.68" width="66.36" height="15.62"/><rect class="cls-14" x="66.04" y="102.68" width=".29" height="15.62"/><rect class="cls-14" x="69.23" y="102.68" width=".29" height="15.62"/><rect class="cls-14" x="72.42" y="102.68" width=".29" height="15.62"/><rect class="cls-14" x="75.61" y="102.68" width=".29" height="15.62"/><rect class="cls-14" x="78.81" y="102.68" width=".29" height="15.62"/><rect class="cls-14" x="82" y="102.68" width=".29" height="15.62"/><rect class="cls-14" x="85.19" y="102.68" width=".29" height="15.62"/><rect class="cls-14" x="88.38" y="102.68" width=".29" height="15.62"/><rect class="cls-14" x="91.57" y="102.68" width=".29" height="15.62"/><rect class="cls-14" x="94.77" y="102.68" width=".29" height="15.62"/><rect class="cls-14" x="97.96" y="102.68" width=".29" height="15.62"/><rect class="cls-14" x="101.15" y="102.68" width=".29" height="15.62"/><rect class="cls-14" x="104.34" y="102.68" width=".29" height="15.62"/><rect class="cls-14" x="107.53" y="102.68" width=".29" height="15.62"/><rect class="cls-12" x="50.19" y="102.68" width="66.36" height="2.76"/><rect class="cls-14" x="50.19" y="102.68" width="13.19" height="15.62"/><path class="cls-6" d="m43.52,118.3h-10.71c-1.3,0-2.35-1.05-2.35-2.35v-24.43c0-1.3,1.05-2.35,2.35-2.35h10.71c1.3,0,2.35,1.05,2.35,2.35v24.43c0,1.3-1.05,2.35-2.35,2.35Z"/><path class="cls-14" d="m35.95,89.17h-3.13c-1.3,0-2.35,1.05-2.35,2.35v24.43c0,1.3,1.05,2.35,2.35,2.35h3.13v-29.13Z"/><rect class="cls-14" x="41.33" y="89.17" width="1.15" height="29.13"/><rect class="cls-14" x="38.17" y="89.17" width="1.15" height="29.13"/><path class="cls-2" d="m45.88,93.48v-1.96c0-1.3-1.05-2.35-2.35-2.35h-10.71c-1.3,0-2.35,1.05-2.35,2.35v1.96h15.41Z"/><path class="cls-6" d="m23.98,118.3h-10.71c-1.3,0-2.35-1.05-2.35-2.35v-24.43c0-1.3,1.05-2.35,2.35-2.35h10.71c1.3,0,2.35,1.05,2.35,2.35v24.43c0,1.3-1.05,2.35-2.35,2.35Z"/><path class="cls-14" d="m16.4,89.17h-3.13c-1.3,0-2.35,1.05-2.35,2.35v24.43c0,1.3,1.05,2.35,2.35,2.35h3.13v-29.13Z"/><rect class="cls-14" x="21.78" y="89.17" width="1.15" height="29.13"/><rect class="cls-14" x="18.63" y="89.17" width="1.15" height="29.13"/><path class="cls-2" d="m26.33,93.48v-1.96c0-1.3-1.05-2.35-2.35-2.35h-10.71c-1.3,0-2.35,1.05-2.35,2.35v1.96h15.41Z"/><path class="cls-6" d="m4.44,118.3H-6.27c-1.3,0-2.35-1.05-2.35-2.35v-24.43c0-1.3,1.05-2.35,2.35-2.35H4.44c1.3,0,2.35,1.05,2.35,2.35v24.43c0,1.3-1.05,2.35-2.35,2.35Z"/><rect class="cls-14" x="2.24" y="89.17" width="1.15" height="29.13"/><rect class="cls-14" x="-.92" y="89.17" width="1.15" height="29.13"/><path class="cls-2" d="m6.79,93.48v-1.96c0-1.3-1.05-2.35-2.35-2.35H-6.27c-1.3,0-2.35,1.05-2.35,2.35v1.96H6.79Z"/><path class="cls-21" d="m124.45,34.44s7.77-2.22,7.9-7.84c.13-5.62-4.31-10.97-10.84-8.75-6.53,2.22-6.79,1.98-9.41-.51-2.61-2.49-4.51-3.27-8.88-2.36-4.38.91-4.7,4.83-6.53,3.85-1.83-.98-2.48-3.94-4.38-4.22-1.89-.28-4.18-.28-5.49,1.41-1.31,1.7-2.16,4.38-6.4,2.22-4.25-2.16-3.98-3.79-6.14-3.27-2.16.52-3.27,6.2-5.36,5.88-2.09-.33-3.07-1.63-6.34-.98-3.27.65-1.63,1.37-4.24,2.81-2.61,1.44-6.73,2.09-6.27,3.46.46,1.37,2.94,2.35,4.38,2.15s2.87-.72,3.79-.13c.91.59,5.68,3.85,7.77,3.46,2.09-.39,7.77-1.37,9.67.06,1.89,1.44,5.62,4.64,7.38,6.6,1.76,1.96,4.7,2.81,7.71,2.74,3-.07,5.81-1.5,6.79-3.79.98-2.29,2.02-2.87,2.94-1.24.91,1.63,5.03,5.36,7.77,3,2.74-2.35,4.54-5.78,5.23-5.44.95.47,2.84,4.5,8.95.86h0Z"/><path class="cls-7" d="m125.72,31.75c-2.55,1.03-4.9,1.15-7.01.53-.17-.04-.33-.1-.48-.16l-.15-.05c-1.62-.54-3.36.17-4.26,1.63-.77,1.24-1.78,2.23-3.21,2.76-2.28.85-5.11.23-6.69-1.7-.25-.31-.73-.83-1.22-1.34-.73-.76-1.97-.63-2.53.26-2.32,3.75-5.92,6.15-10.94,4.37-4.03-1.43-10.96-9.41-11.54-9.85-.4-.3-.97-.5-1.65-.62-1.61-.28-3.28-.08-4.79.54-1.8.74-3.71,1.1-5.69.71-1.27-.24-2.3-.73-3.19-1.37-1.58-1.13-3.57-1.32-5.45-.81-.76.21-1.58.2-2.45-.11-.79-.28-1.5-.68-2.17-1.14-.21.22-.3.46-.21.73.46,1.37,2.94,2.35,4.38,2.15s2.87-.72,3.79-.13c.91.59,5.68,3.85,7.77,3.46,2.09-.39,7.77-1.37,9.67.06,1.89,1.44,5.62,4.64,7.38,6.6,1.76,1.96,4.7,2.81,7.71,2.74,3-.07,5.81-1.5,6.79-3.79.98-2.29,2.02-2.87,2.94-1.24.92,1.63,5.03,5.36,7.77,3,2.74-2.35,4.54-5.78,5.23-5.44.95.48,2.84,4.5,8.95.87,0,0,6.33-1.82,7.65-6.32-1.75,1.8-4.09,2.71-6.37,3.63h0Z"/><path class="cls-12" d="m129.62,27.25s2.23-4.73-2.55-7.18c-4.78-2.45-5.17-.91-7.79.52-2.61,1.44-4.9,1.5-8.36-1.04-3.46-2.55-4.64-3.53-6.66-2.22-2.02,1.31-3.27,3.85-5.49,3.66-2.22-.2-4.51-2.68-6.07-2.74-1.57-.07-2.09,3.41-4.83,3.76-2.74.35-7.12-.82-10.19-1.21-3.07-.39-5.09.07-4.38,1.89.72,1.83,3.66,3.53,5.75,3.33,2.09-.2,7.25-2.35,9.01.2,1.76,2.55,3.85,5.42,5.94,4.57,2.09-.85,5.55-5.62,7.64-5.03,2.09.59,3.27,6.12,6.4,5.18,3.14-.93,3.33-6.09,7.25-4.4,3.92,1.7,2.97,5.43,8.13,4.91,5.16-.52,6.19-4.19,6.19-4.19h0Z"/><path class="cls-3" d="m31.67,41.8s1.25,8.1-2.34,9.34c-3.58,1.25-13.07,5.3-13.07,16.51s15.62,15.42,15.62,15.42c0,0-3.9-6.54-2.44-11.53,1.45-4.99,7.37-4.83,9.76-9.11,2.39-4.28.94-7.59-1.04-11.45-3.92-7.63-6.49-9.19-6.49-9.19Z"/><path class="cls-11" d="m33.07,53.27s-1.22,4.82-4.72,5.4c-5.33.88-9.53,3.06-8.21,10.38,1.11,6.13,8.21,10.2,8.21,10.2,0,0-6.18-11.03-2.13-12.99,4.05-1.96,10.98-5.18,6.85-12.99h0Z"/><path class="cls-3" d="m7.53,9.14s6.85,16.82-4.98,24.09c-11.84,7.27-27.83,30.75,11.63,46.42,0,0-6.02-12.42-2.7-18.31,3.32-5.89,17.17-18.33,13.29-29.67C20.61,19.52,15,14.74,7.53,9.14Z"/><path class="cls-11" d="m14.07,31.67s-.79,6.15-4.21,7.32c-4.6,1.58-16.66,9.52-11.06,23.52,2.91,7.27,9.35,9.81,9.35,9.81,0,0-4.89-8.1-.88-15.42,4-7.32,13.19-12.3,6.8-25.23h0Z"/><path class="cls-3" d="m9.29,44.48c-.21,1.33-1.4,1.9-2.51,2.65-1.54,1.04-3.3,2.32-4.64,3.95-1.43,1.74-1.83,4.21-1.41,6.79.21,1.26.71,2.75,1.28,3.94.49,1.02,1.44,1.75,1.98,2.67-1.2-5.45-.6-9.2,2.22-11.87,1.26-1.19,2.56-2.11,3.11-3.7.48-1.39.7-2.09-.03-4.42h0Z"/><rect class="cls-6" x="77.93" y="5.71" width="10.86" height="3.73"/><rect class="cls-14" x="77.93" y="5.71" width="3.41" height="3.73"/></g><g class="cls-26"><path class="cls-16" d="m255.24,110.32V36.02h-18.88v-8.34h-26.14v8.34h-12.1v17.93h-40.18v-17.93h-41.64v10.25h-16.82v64.05h155.76Z"/><path class="cls-15" d="m251.03,99.62v-48.07h-27.22v48.07h-28.19v-16.87h-37.04v16.87h-20.88v-31.44h-22.18v31.44h-13.49v10.7h153.62v-10.7h-4.62,0Z"/><path class="cls-19" d="m101.25,88.37l6.93-27.71,2.14.2-6.48,27.75-2.58-.24h0Z"/><path class="cls-19" d="m110.35,86.49l2.2-28.48,2.14-.16-1.76,28.44-2.58.19Z"/><rect class="cls-19" x="90.69" y="105.05" width="107.14" height="5.21"/><path class="cls-19" d="m120.47,106.72h-24.99v-22.91c0-.96.6-1.81,1.5-2.13l20.45-7.35c1.48-.53,3.03.56,3.03,2.13v30.26Z"/><path class="cls-22" d="m116.47,102.37h-16.99v-15.58c0-.65.41-1.23,1.02-1.45l13.91-5c1.01-.36,2.06.38,2.06,1.45v20.58h0Z"/><path class="cls-9" d="m175.6,31.67l-69.18,31.94-1.43-11.37,66.09-30.41,4.53,9.84h0Z"/><path class="cls-8" d="m172.91,30.56l-64.5,30.22-.83-7.17,61.22-28.54,4.11,5.49h0Z"/><path class="cls-19" d="m116.35,60.66c0,3.14-2.54,5.69-5.68,5.69s-5.69-2.55-5.69-5.69,2.55-5.69,5.69-5.69,5.68,2.55,5.68,5.69Z"/><path class="cls-14" d="m114.01,60.66c0,1.84-1.49,3.34-3.34,3.34s-3.34-1.49-3.34-3.34,1.49-3.34,3.34-3.34,3.34,1.49,3.34,3.34Z"/><path class="cls-14" d="m113.4,54.72c0,.82-.66,1.48-1.48,1.48s-1.48-.66-1.48-1.48.66-1.48,1.48-1.48,1.48.66,1.48,1.48Z"/><path class="cls-19" d="m110.83,100.94h-1.03v-14.71l1.03-.29v14.99Z"/><path class="cls-19" d="m107.67,100.94h-.91v-13.85l.91-.26v14.11Z"/><path class="cls-19" d="m104.87,100.94h-.82v-13.1l.82-.23v13.33Z"/><path class="cls-19" d="m102.35,100.94h-.73v-12.42l.73-.21v12.62Z"/></g></g></svg>