<?xml version="1.0" encoding="UTF-8"?><svg xmlns="http://www.w3.org/2000/svg" xmlns:xlink="http://www.w3.org/1999/xlink" viewBox="0 0 110.67 110.67"><defs><style>.cls-1{fill:#505050;}.cls-1,.cls-2,.cls-3,.cls-4,.cls-5,.cls-6,.cls-7,.cls-8,.cls-9,.cls-10,.cls-11,.cls-12,.cls-13,.cls-14,.cls-15,.cls-16,.cls-17,.cls-18,.cls-19,.cls-20,.cls-21,.cls-22,.cls-23,.cls-24,.cls-25,.cls-26,.cls-27{stroke-width:0px;}.cls-2{fill:#0aa7c5;}.cls-3{fill:none;}.cls-28{clip-path:url(#clippath-1);}.cls-4{fill:#9b5c37;}.cls-5{fill:#abbec8;}.cls-6{fill:#fff;}.cls-7{fill:#575256;}.cls-8{fill:#dfe6e8;}.cls-9{fill:#646362;}.cls-10{fill:#818181;}.cls-11{fill:#b3c0d1;}.cls-12{fill:#c87c47;}.cls-13{fill:#044159;}.cls-14{fill:#b98a66;}.cls-29{clip-path:url(#clippath);}.cls-15{fill:#fff0e3;}.cls-16{fill:#3c3c3c;}.cls-17{fill:#444;}.cls-18{fill:#20131c;}.cls-19{fill:#10788e;}.cls-20{fill:#522c14;}.cls-21{fill:#435670;}.cls-22{fill:#f6c4a1;}.cls-23{fill:#85cdfb;}.cls-24{fill:#07a287;}.cls-25{fill:rgba(255,255,255,.8);}.cls-26{fill:#555;}.cls-27{fill:#303030;}</style><clipPath id="clippath"><rect class="cls-3" x="-762.58" y="-816.58" width="1280" height="720"/></clipPath><clipPath id="clippath-1"><circle class="cls-3" cx="55.33" cy="55.33" r="55.33"/></clipPath></defs><g id="Bg"><g class="cls-29"><rect class="cls-23" x="-762.58" y="-834.02" width="1288.17" height="988.77"/><path class="cls-14" d="m1258.92-189.49c-391.61-174.66-559.38-189.43-749.92-220.47l-172.27-23.86-455.22-28.45-644.08,53.7v49.72L1012.26,127.81l246.67-317.3h0Z"/><path class="cls-21" d="m-118.49-462.04l-644.08,174.57V154.75H525.59L1632.26,12.48-118.49-462.04h0Z"/></g></g><g id="Layer_2"><circle class="cls-25" cx="55.33" cy="55.33" r="55.33"/><g class="cls-28"><rect class="cls-22" x="-70" y="-16.27" width="230.67" height="144.04"/><path class="cls-4" d="m15.53,53.53c-.64-.24-1.24-.53-1.92-.71.3.05.84.19,1.21.29-1.53-.88-4.48-.46-6.38-.5-4.19-.1-8.4.25-12.61.24-6.33,0-12.68.08-18.99.21-8.31.18-16.68,2.57-24.93,3.51-4.84.55-9.23.73-14.06.57-4.75-.16-9.16-1.31-14.1-.63-4.78.66-6.96,23.02-10.84,25.92-1.77,1.33-4.11,3.08-3.86,5.64.32,3.25,5.59,3.53,8.19,4.02,4.4.82,8.22.72,12.65.73,4.88,0,8.82.55,13.51,1.8,11.25,3,22.57.57,33.94.68,4.22.05,8.06,1.33,12.18,2.03,4.98.84,9.8.64,14.81.9,9.05.47,17.9-.37,26.94.46,5.66.52,11.47.22,17.16.22,6.8,0,13.38,1.07,20.12,1.86,8.27.97,16.71,1.28,25.04,1.3,4.63,0,9.84-1.01,13.77-3.62,2.41-1.6,2.44-3.51,4.13-5.65,2.68-3.41,5.88-3.3,9.89-4.02,2.36-.42,9.09-.66,9.94-3.67,1.03-3.62-7.36-6.1-9.66-6.56-9.03-1.81-16.92-37.38-26.06-37.41-14.28-.05-32.15,15.62-46.42,16.25-7.59.34-16.93,2.05-23.93-.52-1.43-.53-2.96-1.2-4.46-1.84-3.55-1.5-7.16-1.26-10.91-1.98l5.65.45h0Z"/><path class="cls-20" d="m37.01,94.46c0,.99-5.32,1.79-11.89,1.79s-11.89-.8-11.89-1.79,5.32-1.79,11.89-1.79,11.89.8,11.89,1.79Z"/><path class="cls-20" d="m71.53,94.46c0,.99-5.32,1.79-11.89,1.79s-11.89-.8-11.89-1.79,5.32-1.79,11.89-1.79,11.89.8,11.89,1.79Z"/><path class="cls-20" d="m99,91.33c0,.99-5.32,1.79-11.89,1.79s-11.89-.8-11.89-1.79,5.32-1.79,11.89-1.79,11.89.8,11.89,1.79Z"/><path class="cls-12" d="m109.68,82.28c3.26.01,6.57.03,9.81-.38,1.22-.15,2.51-.37,3.66-.81l.16-.07c.15-.54.41-1,.73-1.39-.34-.25-.7-.49-1.05-.73-.54-.15-1-.26-1.33-.33-9.03-1.81-16.92-37.38-26.06-37.41-14.28-.05-32.15,15.62-46.42,16.25-7.59.34-16.93,2.05-23.93-.52-1.43-.53-2.96-1.2-4.46-1.84-3.55-1.5-7.16-1.26-10.91-1.98l5.65.45c-.64-.24-1.24-.53-1.92-.71.3.05.84.19,1.21.29-1.53-.88-4.48-.46-6.38-.5-4.19-.1-8.4.25-12.61.24-6.33,0-12.68.08-18.99.21-8.31.18-16.68,2.57-24.93,3.51-4.84.55-9.23.73-14.06.57-4.75-.16-9.16-1.31-14.1-.63-3.89.53-6.05,15.41-8.81,22.51,4.31,6.41,11.25,6.97,19.13,7.09,9.45.14,18.94-.71,28.38-.18,6.52-1.65,12.82-3.35,19.68-3.5,8.31-.18,16.82-.42,25.1.43,7.3.75,14.47,2.53,21.79,3.03,3.92.27,8.17.62,12.05-.26,3.78-.85,7.38-2.32,11.18-3.13,7.23-1.55,14.66-2.44,22.06-2.34,7.43.1,15.82.36,23.9,1.64,3.81-.05,7.74.46,11.49.47h0Z"/><path class="cls-27" d="m-69.39,81.57c5.86.9,11.87,1.65,17.81,1.26,5.3-.34,10.42-1.64,15.7-2.21,11.01-1.2,21.6.12,32.12,3.58,10.31,3.39,19.85,6.19,30.85,5.37,21.31-1.59,41.57-11.4,62.94-11.67,8.74-.11,16.69,2.3,25.18,3.81,1.88.33,3.98.72,6.17,1.03.09-1.38.11-2.79.08-4.23-8.94-2.33-16.78-37.31-25.84-37.34-14.28-.05-32.15,15.62-46.42,16.25-7.59.34-16.93,2.05-23.93-.52-1.43-.53-2.96-1.2-4.46-1.84-3.55-1.5-7.16-1.26-10.91-1.98l5.65.45c-.64-.24-1.24-.53-1.92-.71.3.05.84.19,1.21.29-1.53-.88-4.48-.46-6.38-.5-4.19-.1-8.4.25-12.61.24-6.33,0-12.68.08-18.99.21-8.31.18-16.68,2.57-24.93,3.51-4.84.55-9.23.73-14.06.57-4.75-.16-9.16-1.31-14.1-.63-3.89.53-6.05,15.41-8.81,22.52,5.22.77,10.43,1.73,15.67,2.54h0Z"/><path class="cls-26" d="m123.71,81.82c.73-.84,1.2-2.43,1.32-4.98.39-8.23.35-16.5-.15-24.71-.92-15.06-2.61-38.05-16.52-47.45-2.09-1.41-4.43-2.4-6.91-2.85C70.64-3.82,55.42,24.92,30.06,23.8,4.7,22.67,11.18,20.98-6.01,6.89c-17.19-14.09-47.34-23.67-65.94,11.27-10.25,19.25-15.91,42.68-12.56,64.52,12.27.76,23.12-8.52,34.33-12.03,10.38-3.25,21.56-1.73,31.3,1.24,8.11,2.48,16.21,6.44,24.78,7.66,11.63,1.66,23.59-.21,34.71-4.19,15.4-5.52,31.06-12.31,48.04-11.34,5.84.34,13.96,1.16,18.51,5.3,3.5,3.19,13.01,16.62,16.55,12.5h0Z"/><path class="cls-16" d="m122.5,30.75c-1.56,1.98-3.28,3.84-5.21,5.52-8.08,7-17.8,11.4-28.09,14.11-11.49,3.03-23.1,5.35-34.55,8.62-11.22,3.2-22.67,6.46-34.37,7.15-11.24.67-22.21-1.4-33.24-3.36-10.51-1.87-21.04-3.96-31.24-7.16-13.04-4.09-25.29-9.77-36.12-17.61-.81,2.55-1.53,5.13-2.17,7.73,3.76,7.16,8.07,13.98,14.79,18.71,4.97,3.49,10.28,5.56,15.84,6.76.56-.2,1.12-.4,1.67-.58,10.38-3.25,21.56-1.73,31.3,1.24,8.11,2.48,16.21,6.44,24.78,7.66,11.63,1.66,23.59-.21,34.71-4.19,15.4-5.52,31.06-12.31,48.04-11.34,3.15.18,6.96.51,10.52,1.42,4.16-3.11,7.9-6.95,11.15-10.66,4.91-5.6,8.72-11.41,13.39-16.28-.32-2.56-.7-5.15-1.21-7.73h0Z"/><path class="cls-18" d="m124.71,49.51c-5.17,6.3-9.7,13.48-15.65,18.63-.54.47-1.1.94-1.66,1.41,3.69,3.56,12.84,16.29,16.3,12.27.73-.84,1.2-2.43,1.32-4.98.39-8.23.35-16.5-.15-24.71-.05-.84-.11-1.72-.16-2.61Z"/><path class="cls-17" d="m101.45,1.82C70.64-3.82,55.42,24.92,30.06,23.8,4.7,22.67,11.18,20.98-6.01,6.89c-14.92-12.23-39.61-21.03-58.03-.28,4.81.52,11.83,2.91,16.78,7.04,7.57,6.33,13.18,16.57,26.03,28.86,16.43,15.72,9.02,15.38,48.75,31.45,39.73,16.06,51.29-14.65,58.61-29.31,5.54-11.09,21.4-22.97,32.83-24.81-3.59-9.43-9.11-16.49-17.52-18.02h0Z"/><path class="cls-9" d="m118.25,18.08c-3.59-8.54-8.93-14.83-16.81-16.27C70.64-3.82,55.42,24.92,30.06,23.8,4.7,22.67,11.18,20.98-6.01,6.89-19.71-4.34-41.63-12.68-59.38,2.07-41.71,1.07-18.44,30.45-5.73,42.51c14.09,13.36,29.02,17.64,56.64,13.98,22.65-3,27.88-17.75,39.07-27.99,8.53-7.81,22.22-12.47,28.28-10.41h0Z"/><path class="cls-1" d="m101.45,1.82C70.64-3.82,55.42,24.92,30.06,23.8,4.7,22.67,11.18,20.98-6.01,6.89-16.07-1.36-30.57-8.04-44.6-5.18c10.29,2.42,18.69,11.06,26.75,21.37C-5.73,31.69,2.97,43.18,21.46,47.23c27.04,5.92,35.11-.2,64.68-25.12,13.53-11.4,25.15-8.51,31.75-4.87-3.59-8.11-8.83-14.03-16.44-15.42Z"/><path class="cls-9" d="m71.11,20.62c3.8-3.72,8.46-7.48,15.02-10.91,12.24-6.4,21.25-4.14,27.24-.22-3.13-4.01-7.04-6.78-11.93-7.67C70.64-3.82,55.44,23.8,30.06,23.8c-11.19,0-18.88-2.82-36.07-16.91C-11.92,2.05-19.35-2.26-27.32-4.41-23.21-.4-21.24.32-14.6,9.36-5.99,21.08,11.74,44.37,37.67,42.39c19.07-1.45,22.89-11.44,33.45-21.78Z"/><path class="cls-10" d="m6.18,19.11c5.42,5.73,12.6,13.95,20.85,15.08,9.92,1.35,16.48-6.31,21.74-15.18-5.84,2.8-11.91,4.79-18.71,4.79-9.89,0-17.06-2.22-30.45-12.45,2.11,2.69,4.26,5.32,6.57,7.77Z"/><rect class="cls-24" x="30.88" y="78.31" width="34.1" height="6.55"/><path class="cls-18" d="m97.95,80.49c0,5.99-4.85,10.84-10.84,10.84s-10.84-4.85-10.84-10.84,4.85-10.84,10.84-10.84,10.84,4.85,10.84,10.84Z"/><path class="cls-20" d="m55.95,91.33c0,.99-5.32,1.79-11.89,1.79s-11.89-.8-11.89-1.79,5.32-1.79,11.89-1.79,11.89.8,11.89,1.79Z"/><path class="cls-18" d="m54.9,80.49c0,5.99-4.85,10.84-10.84,10.84s-10.84-4.85-10.84-10.84,4.85-10.84,10.84-10.84,10.84,4.85,10.84,10.84Z"/><rect class="cls-18" x="30.88" y="59.54" width="19.11" height="20.15"/><path class="cls-13" d="m49.76,46.53c-.11.26-.24.51-.43.76-2.26,3.04-3.96,6.31-6.54,9.15-1.45,1.6-2.94,3.15-4.42,4.73v5.52h19.11v-20.15h-7.73Z"/><rect class="cls-7" x="30.88" y="70.54" width="19.11" height="9.16"/><rect class="cls-18" x="30.88" y="74.59" width="19.11" height="1.68"/><rect class="cls-18" x="52.01" y="70.37" width="25.79" height="13.43"/><path class="cls-18" d="m70.47,83.66c0,5.99-4.85,10.84-10.84,10.84s-10.84-4.85-10.84-10.84,4.85-10.84,10.84-10.84,10.84,4.85,10.84,10.84Z"/><path class="cls-5" d="m64.13,83.66c0,2.49-2.02,4.5-4.5,4.5s-4.5-2.02-4.5-4.5,2.02-4.5,4.5-4.5,4.5,2.02,4.5,4.5Z"/><path class="cls-18" d="m37.01,82.61c0,6.57-5.32,11.89-11.89,11.89s-11.89-5.32-11.89-11.89,5.32-11.89,11.89-11.89,11.89,5.32,11.89,11.89Z"/><path class="cls-5" d="m30.05,82.61c0,2.73-2.21,4.94-4.94,4.94s-4.94-2.21-4.94-4.94,2.21-4.94,4.94-4.94,4.94,2.21,4.94,4.94Z"/><path class="cls-15" d="m97.95,67.65v-5.83l-11.55-11.85h-32.69l-7.61,11.15v6.53h51.85Z"/><path class="cls-2" d="m87.11,52.02h-16.24l8.95,9.18h16.24l-8.95-9.18Z"/><path class="cls-24" d="m46.1,78.31h4.11s.26-5.48,7.16-5.49c6.9,0,11.19-2.1,11.19-2.1l3.75,14.14h25.64v-23.04h-51.85v16.49h0Z"/><path class="cls-11" d="m66.25,49.97h-12.54l-7.61,11.14v17.19h4.11s.26-5.48,7.16-5.49c3.09,0,5.8.1,7.86.22,2.43.14,4.49,1.84,5.1,4.2l1.97,7.63h5.5v-23.04l-11.55-11.85h0Z"/><rect class="cls-18" x="79.3" y="64.87" width="17.35" height="13.45"/><path class="cls-2" d="m74.77,61.14h-25.7l5.31-9.02h11.98l8.42,9.02Z"/><rect class="cls-11" x="48.79" y="43.36" width="40.42" height="6.61"/><rect class="cls-18" x="48.79" y="43.36" width="22.25" height="6.61"/><path class="cls-19" d="m5.1,56.29v9.19l10.48,7.86h26.96v-15.76l7.89-8.1v-6.11h-2.85l-9.5,12.18-32.98.74h0Z"/><rect class="cls-18" x="5.1" y="57.81" width="37.44" height="1.44"/><path class="cls-18" d="m7.89,58.53v9.04l.36.27v-9.31h-.36Z"/><path class="cls-18" d="m11.35,58.53v11.64l.36.27v-11.91h-.36Z"/><path class="cls-18" d="m14.82,58.53v14.24l.36.27v-14.51h-.36Z"/><rect class="cls-18" x="18.29" y="58.53" width=".36" height="14.81"/><rect class="cls-18" x="21.76" y="58.53" width=".36" height="14.81"/><rect class="cls-18" x="25.23" y="58.53" width=".36" height="14.81"/><rect class="cls-18" x="28.7" y="58.53" width=".36" height="14.81"/><rect class="cls-18" x="32.17" y="58.53" width=".36" height="14.81"/><rect class="cls-18" x="35.64" y="58.53" width=".36" height="14.81"/><rect class="cls-18" x="39.11" y="58.53" width=".36" height="14.81"/><path class="cls-12" d="m10.12,98.89c-2.82-1.17-5.97-2.13-8.91-2.54-5.11-.72-10.24-.45-15.33-1.54-2.48-.53-5.11-.54-7.63-.7-2.49-.15-4.95-.6-7.44-.81-3.11-.26-6.11-.81-9.25-.53-3.76.34-7.31.85-11.11.47-4.94-.49-10.42-2.03-15.26-.59-2.33.69-4.85,1.24-6.97,2.46-1.13.65-3.36,1.15-4.15,2.13,1.09,1.45,3.79.81,5.34.92-.97,1.64-3.12,1.99-4.34,3.31,2.6.76,4.65-.23,7.31-.53,2.08-.24,4.39-.44,6.4.11,1.07.29,2.03.8,3.05,1.26,1.26.57,1.65.19,2.94-.14,1.78-.46,3.43.75,5.11.35-.33.58-2.71,1.24-2.48,1.98.2.61,2.71.28,3.25.25,3.26-.16,6.51-.49,9.78-.67,3.62-.2,7.19-.98,10.81-1.01,3.77-.03,7.56-.11,11.33-.11,1.76,0,15.78,1.11,15.16-1.66.92-.14,1.87.14,2.82.1,1.45-.06,2.95-.21,4.38-.42,1.33-.2,2.62-.25,3.98-.25,1.16,0,2.3.34,3.39.32.93-1.39-.45-1.93-2.18-2.14h0Z"/><path class="cls-5" d="m-11.98,97.18c1.09-2.35,2.59-4.75,4.43-6.58,1.49-1.48,3.67-1.8,5.78-2.41.77-.22,1.8-.61,2.6-.53,1.05.1,1.23.88,1.72,1.71.93,1.56,2.1,2.72,3.16,4.11.83,1.09.67,3.68-.6,4.28-.94.44-2.43.32-3.46.52-1.24.25-2.41.73-3.63,1-1.7.39-3.88.26-5.53-.18-.96-.25-1.89-.55-2.68-1.13-.6-.44-1.11-.96-1.8-.8Z"/><path class="cls-5" d="m1.28,86.5c-2.77,0-3.11,2.99-5.4,4.62-.62.44-1.92.82-2.27,1.53-.37.75.3,1.81.62,2.49.95,2.02,1.42,4.83,3.66,5.25,2.2.41,6.82-1.18,8.91-1.89,2.53-.86,2.54-2.44,2.24-4.86-.3-2.41-1.2-4.84-3.21-6.23-1.59-1.1-2.62-.9-4.55-.89h0Z"/><path class="cls-8" d="m4.51,89.91c.32,1.34,1.31,3.94,3.1,2.17.31-.31.59-.64.87-.97-.51-1.48-1.34-2.81-2.64-3.71-1.21-.84-2.1-.92-3.32-.91.97,1,1.71,2.26,1.99,3.42h0Z"/><path class="cls-8" d="m-1.24,90.58c1.74.69,2.77,2.45,4,3.74,2.46,2.56,4.21,1.62,6.38.28-.02-.2-.03-.41-.06-.63-1.02.94-2.18,1.56-3.7,1.11-1.29-.38-2.41-1.39-2.78-2.74-.38-1.39-1.36-4.85-3.21-5.2-.92.72-1.51,1.91-2.42,2.96.6.11,1.2.25,1.78.48Z"/><path class="cls-8" d="m-3.28,95.14c1.07.92,2.81,3.99,4.54,4.98.49-.1.98-.22,1.47-.35-3.03-1.32-4.01-4.55-6.86-5.17.35.18.66.37.86.54h0Z"/><path class="cls-18" d="m3.44,86.51c-.82,2.6-3.47,4.26-5.83,5.66-1.63.97-3.07,2.22-4.79,2.98-1.3.57-4.25,2.27-5.14.42-.97-2.03,1.99-5.81,3.46-7.09,2.03-1.77,5.87-2.26,8.46-2.34.76-.03,2.13-.19,3.83.36h0Z"/><path class="cls-18" d="m75.57,84.86h-.49v-20.93h-26.04v14.37h-.49v-14.86h27.02v21.42h0Z"/><rect class="cls-18" x="49.92" y="64.67" width="3.27" height=".96"/><rect class="cls-15" x="79.3" y="80.54" width="3.32" height="1.66"/><rect class="cls-15" x="93.33" y="80.54" width="3.32" height="1.66"/><rect class="cls-18" x="79.3" y="82.63" width="3.32" height="1.17"/><rect class="cls-18" x="93.33" y="82.63" width="3.32" height="1.17"/><rect class="cls-7" x="80.76" y="64.87" width=".2" height="13.45"/><rect class="cls-7" x="82.52" y="64.87" width=".2" height="13.45"/><rect class="cls-7" x="84.28" y="64.87" width=".2" height="13.45"/><rect class="cls-7" x="86.04" y="64.87" width=".2" height="13.45"/><rect class="cls-7" x="87.8" y="64.87" width=".2" height="13.45"/><rect class="cls-7" x="89.56" y="64.87" width=".2" height="13.45"/><rect class="cls-7" x="91.32" y="64.87" width=".2" height="13.45"/><rect class="cls-7" x="93.08" y="64.87" width=".2" height="13.45"/><rect class="cls-7" x="94.84" y="64.87" width=".2" height="13.45"/><rect class="cls-7" x="79.31" y="65.97" width="17.34" height=".2"/><rect class="cls-7" x="79.31" y="67.73" width="17.34" height=".2"/><rect class="cls-7" x="79.31" y="69.49" width="17.34" height=".2"/><rect class="cls-7" x="79.31" y="71.25" width="17.34" height=".2"/><rect class="cls-7" x="79.31" y="73.01" width="17.34" height=".2"/><rect class="cls-7" x="79.31" y="74.77" width="17.34" height=".2"/><rect class="cls-7" x="79.31" y="76.53" width="17.34" height=".2"/><path class="cls-6" d="m-2.24,17l.52,2.07,2.07.52-2.07.52-.52,2.07-.52-2.07-2.07-.52,2.07-.52.52-2.07Z"/></g></g></svg>