<?xml version="1.0" encoding="UTF-8"?><svg xmlns="http://www.w3.org/2000/svg" xmlns:xlink="http://www.w3.org/1999/xlink" viewBox="0 0 107.02 107.02"><defs><style>.cls-1{fill:#774b36;}.cls-1,.cls-2,.cls-3,.cls-4,.cls-5,.cls-6,.cls-7,.cls-8{stroke-width:0px;}.cls-1,.cls-2,.cls-5,.cls-6,.cls-7,.cls-8{fill-rule:evenodd;}.cls-2{fill:#f2a986;}.cls-3{fill:none;}.cls-4{fill:#b98369;}.cls-9{clip-path:url(#clippath-1);}.cls-5{fill:#8b4929;}.cls-6{fill:#956147;}.cls-7{fill:#9c9c9c;}.cls-8{fill:#6f3417;}</style><clipPath id="clippath"><rect class="cls-3" x="-1418.09" y="-843" width="1280" height="720"/></clipPath><clipPath id="clippath-1"><rect class="cls-3" x="-138.09" y="-843" width="1280" height="720"/></clipPath></defs><g id="Front"><g class="cls-9"><path class="cls-2" d="m965.42-372.3c529.39,51.4,889.83,152.62,889.83,268.97,0,168.33-754.43,305-1683.67,305-61.61,0-122.45-.6-182.38-1.79L965.42-372.3h0Z"/><path class="cls-2" d="m-52.79,199.63C-876.18,179.74-1512.09,51.88-1512.09-102.67c0-168.33,754.43-305,1683.67-305,211.31,0,413.58,7.07,600.11,20L-1300.76-179-52.79,199.63h0Z"/><path class="cls-7" d="m771.68-387.67c66.74,4.62,131.45,9.98,193.74,16.03L-10.8,200.54l-31.94-.66-10.05-.25L-1300.76-179,771.68-387.67h0Z"/></g></g><g id="Layer_9"><path class="cls-6" d="m89.95,52.48l-7.93.88v43.17l7.93-.88v-43.17Z"/><path class="cls-1" d="m78.5,51.11l3.52,2.25v43.17l-3.52-2.25v-43.17Z"/><path class="cls-6" d="m34.56,54.51l-8.6.95v46.8l8.6-.96v-46.8Z"/><path class="cls-1" d="m22.14,53.02l3.82,2.44v46.8l-3.82-2.44v-46.8Z"/><path class="cls-8" d="m9.3,73.61L.17,70.8V5.52l9.76-.77,95.56,11.99L9.3,73.61h0Z"/><path class="cls-5" d="m10.1,5.19l96.75,1.95-.65,60.26-96.89,6.21.79-68.42h0Z"/><path class="cls-4" d="m18.05,46.62v-15.58l7.13-.09c1.7-.02,3.21.28,4.51.91,1.3.63,2.32,1.52,3.05,2.66.73,1.15,1.1,2.52,1.1,4.1s-.37,2.95-1.1,4.12-1.75,2.09-3.05,2.75c-1.3.66-2.8,1-4.51,1.03l-7.13.09Zm3.63-3.01l3.32-.04c1.05-.01,1.96-.22,2.73-.62.77-.4,1.37-.97,1.79-1.7.43-.73.64-1.59.64-2.57s-.21-1.85-.64-2.56c-.43-.71-1.02-1.26-1.79-1.65-.77-.38-1.68-.57-2.73-.55l-3.32.04v9.66Z"/><path class="cls-4" d="m36.49,46.38v-14.86l3.47-.04v14.86l-3.47.04Z"/><path class="cls-4" d="m46.27,46.51c-1.01.01-1.94-.16-2.79-.53s-1.54-.89-2.09-1.58l1.93-2.32c.41.53.85.93,1.31,1.2.46.27.95.4,1.48.39,1.41-.02,2.12-.85,2.12-2.49v-7.07l-5.27.07v-2.76l8.71-.11v9.64c0,1.84-.46,3.22-1.37,4.14s-2.25,1.39-4.02,1.41h0Z"/><path class="cls-4" d="m61.75,46.32c-2.13.03-3.79-.54-4.99-1.7-1.2-1.16-1.8-2.83-1.8-5.01v-8.32l3.47-.04v8.2c0,1.42.29,2.43.88,3.05.59.62,1.41.92,2.46.9,1.06-.01,1.88-.34,2.46-.97.59-.63.88-1.65.88-3.07v-8.2l3.42-.04v8.32c0,2.18-.6,3.87-1.8,5.06-1.2,1.19-2.86,1.8-4.99,1.83h0Z"/><path class="cls-4" d="m70,45.96l6.5-14.55,3.33-.04,6.52,14.38-3.54.05-5.33-12.7,1.33-.02-5.35,12.84-3.46.04h0Zm3.25-3.14l.9-2.55,7.5-.1.92,2.53-9.31.12Z"/><path class="cls-4" d="m87.86,45.73v-14.46l3.37-.04v11.74l7.31-.09v2.73l-10.68.14h0Z"/></g></svg>